<svg xmlns="http://www.w3.org/2000/svg" width="152" height="48" viewBox="0 0 151.47 47.219">
  <defs>
    <style>
      .cls-1 {
        fill: #7f5b50;
      }

      .cls-1, .cls-2 {
        fill-rule: evenodd;
      }

      .cls-2 {
        fill: #945f4b;
      }
    </style>
  </defs>
  <title>Is the order a rabbit?</title>
  <path class="cls-1" d="M67.87,37.872c.37-2.37,3.06-3.61,4.25-3.647-.33-1.285-.41-6.8,1.21-7.452,0,0,1.37-.195.94,5.073,0,0-.34,1.272-.7,2.309l1.15.284c3.09-6.834,6-6.027,6-6.027,2.05,1.363-4.27,7.288-4.27,7.288.73,1.548,0,4.122,0,4.122a6.4768,6.4768,0,0,1,4.8,1.473c1.84-1.244,2.51.373,2.51.373.46,1.432-1.23,2-1.23,2,1.5,2.052.92,2.92.58,3.285-.43.353-2.22-.923-2.22-.923-1.08-.208-1.93-.835-3.13-.9a14.689,14.689,0,0,0-7.02,1.431c-1.23.607-2.12.865-2.61.485-.59-2,3.16-5.082,3.16-5.082.51-.458-.37-.6-.37-.6a3.165,3.165,0,0,1-3.0656-3.2613Q67.858,37.987,67.87,37.872Z"/>
  <path class="cls-2" d="M6.79,35.1l2.9-2.782-.75-.778c-.29.278-.53.531-.73.758a10.99,10.99,0,0,0-.83-.948L3.67,27.482a2.08,2.08,0,0,1-.47-.654.5449.5449,0,0,1-.01-.45,2.0087,2.0087,0,0,1,.35-.464l-.64-.666L0,28.03l.75.778.73-.757a11.123,11.123,0,0,0,.83.947l3.71,3.869a2.07,2.07,0,0,1,.47.653.5472.5472,0,0,1,.01.451,1.9987,1.9987,0,0,1-.35.463Zm6.88-5.786a3.1619,3.1619,0,0,0,.83-.968,2.1663,2.1663,0,0,0,.29-1.152,1.9111,1.9111,0,0,0-.45-1.15,1.8763,1.8763,0,0,0-1.41-.761,5.5658,5.5658,0,0,0-2.04.359,3.192,3.192,0,0,0-.36.137,5.29,5.29,0,0,1-1.08.306.64.64,0,0,1-.6-.266.629.629,0,0,1-.13-.605,1.0751,1.0751,0,0,1,.4-.55,1.9725,1.9725,0,0,1,1.26-.458,1.83,1.83,0,0,1,1.22.5l.71-.563-1.53-1.947-.84.658.27.31-.02.009a2.4913,2.4913,0,0,0-.84.219,3.43,3.43,0,0,0-.77.446,3.0858,3.0858,0,0,0-.95,1.163,2.2524,2.2524,0,0,0-.17,1.206,2.1533,2.1533,0,0,0,.45,1.03,1.7122,1.7122,0,0,0,.98.676,2.4772,2.4772,0,0,0,1.05.025c.32-.068.79-.194,1.41-.381.51-.157.86-.259,1.04-.3a1.5713,1.5713,0,0,1,.51-.048.5888.5888,0,0,1,.5.8,1.1764,1.1764,0,0,1-.42.563,2.4622,2.4622,0,0,1-1.44.575,1.5309,1.5309,0,0,1-1.21-.432l-.71.562,1.53,1.858.84-.658-.3-.3.01-.009a2.6577,2.6577,0,0,0,.95-.246,4.3021,4.3021,0,0,0,1.02-.606h0Zm9.5-6.289a3.4222,3.4222,0,0,0,.99-.875,3.3233,3.3233,0,0,0,.53-1.728l-.9-.215a1.6359,1.6359,0,0,1-.69,1.361c-.49.277-.95.022-1.4-.765l-1.69-3,1.52-.916L21,15.95l-1.55.88-.85-1.528-.9.513a3.0625,3.0625,0,0,1,.05.875,2.734,2.734,0,0,1-.26.932,1.3866,1.3866,0,0,1-.59.662l.57,1.01.83-.471,1.64,2.946q1.3348,2.3351,3.23,1.256Zm3.16-2.038,3.35-1.5-.44-.971q-.4.183-.81.411-.18-.534-.45-1.147l-1.3-2.887a1.9472,1.9472,0,0,1,.95-.994.9356.9356,0,0,1,.96.044,2.56,2.56,0,0,1,.81,1.127l.82,1.808a2.0789,2.0789,0,0,1,.25.932.7.7,0,0,1-.5.549l.37.83,3.36-1.507-.44-.971q-.42.189-.81.411-.18-.534-.45-1.147l-.77-1.712a4.0331,4.0331,0,0,0-1.48-1.93,2.1,2.1,0,0,0-1.94.075,3.0116,3.0116,0,0,0-.86.635,3.8993,3.8993,0,0,0-.69.917l-1.69-3.768-.69.309a1.716,1.716,0,0,1-.54.566,6.8317,6.8317,0,0,1-1.25.7l.43.971.88-.44a9.5794,9.5794,0,0,0,.45,1.134l2.35,5.25a4.147,4.147,0,0,1,.24.659.6439.6439,0,0,1-.04.456.813.813,0,0,1-.44.36Zm11.84-4.614a3.7831,3.7831,0,0,0,2.54-2.671l-.79-.353a2.8424,2.8424,0,0,1-.7,1.081,2.5612,2.5612,0,0,1-.91.578,1.66,1.66,0,0,1-1.65-.189,3.5458,3.5458,0,0,1-1.08-1.69l4.32-1.565a3.356,3.356,0,0,0-1.7-2.229,3.4534,3.4534,0,0,0-4.68,2.761,4.0317,4.0317,0,0,0,.18,1.885,4.242,4.242,0,0,0,1.04,1.714,3.1259,3.1259,0,0,0,1.58.831,3.5082,3.5082,0,0,0,1.85-.154h0Zm-2.82-4.2a2.2137,2.2137,0,0,1,.07-1.245,1.1631,1.1631,0,0,1,.76-.714c.7-.239,1.24.137,1.6,1.126Zm15.08.876a3.44,3.44,0,0,0,1.67-.833,3.1866,3.1866,0,0,0,.94-1.566,4.3989,4.3989,0,0,0,.02-2.077,3.8718,3.8718,0,0,0-.84-1.778,3.1538,3.1538,0,0,0-1.49-.972,3.7,3.7,0,0,0-1.85-.059,3.362,3.362,0,0,0-1.64.838,3.5993,3.5993,0,0,0-.98,1.6,4.12,4.12,0,0,0-.05,2.071,3.71,3.71,0,0,0,.83,1.757,3.135,3.135,0,0,0,1.5.962,3.8549,3.8549,0,0,0,1.89.054h0Zm-.18-.979a1.2281,1.2281,0,0,1-1.31-.615,5.0414,5.0414,0,0,1-.79-1.966,4.0277,4.0277,0,0,1-.02-1.826,1.16,1.16,0,0,1,.94-.94,1.182,1.182,0,0,1,1.27.64,5.7407,5.7407,0,0,1,.76,1.972,4.3675,4.3675,0,0,1,.06,1.817,1.0859,1.0859,0,0,1-.91.917h0Zm5.04-.171,3.64-.486-.14-1.055q-.4649.061-.9.162a11.61,11.61,0,0,0-.11-1.228l-.3-2.262a2.4649,2.4649,0,0,1,.43-.968,1.135,1.135,0,0,1,.74-.558.7889.7889,0,0,0,.39.583,1.1,1.1,0,0,0,.64.1.8432.8432,0,0,0,.67-.4,1.0907,1.0907,0,0,0,.15-.7,1.0608,1.0608,0,0,0-.46-.815,1.2787,1.2787,0,0,0-.9-.175A2.5868,2.5868,0,0,0,57.31,5.64h-.03c-.03-.213-.06-.429-.1-.65s-.08-.4-.11-.536l-.68.091a1.7856,1.7856,0,0,1-.69.388,6.4829,6.4829,0,0,1-1.4.314l.15,1.055.96-.171c.01.375.05.771.1,1.187l.31,2.331a2.292,2.292,0,0,1-.01.963.7091.7091,0,0,1-.64.381Zm9.96-.88a2.6209,2.6209,0,0,0,1.91-.991h.02l.11.638,2.65-.166-.06-1.062c-.3.019-.6.052-.91.1.01-.375.01-.786-.02-1.233l-.52-8.3-.76.048a1.6792,1.6792,0,0,1-.71.339,6.4707,6.4707,0,0,1-1.41.216l.06,1.062q.54-.033.99-.1c-.01.375,0,.786.02,1.233l.06.922a3.6984,3.6984,0,0,0-1.26-.173,3.2608,3.2608,0,0,0-1.77.617,3.3246,3.3246,0,0,0-1.14,1.467,4.9092,4.9092,0,0,0,.17,3.875,2.8559,2.8559,0,0,0,1.07,1.174,2.55,2.55,0,0,0,1.5.34h0Zm.65-1.317a1.2072,1.2072,0,0,1-1.18-.663,4.0311,4.0311,0,0,1-.48-1.716,4.3,4.3,0,0,1,.27-1.91,1.3449,1.3449,0,0,1,1.23-.849,2.0691,2.0691,0,0,1,.56.042,1.4106,1.4106,0,0,1,.45.161l.26,4.192a1.39,1.39,0,0,1-.47.521,1.2723,1.2723,0,0,1-.64.223h0Zm8.8,1.024a3.7581,3.7581,0,0,0,3.28-1.67l-.62-.6a2.7358,2.7358,0,0,1-1.02.786,2.528,2.528,0,0,1-1.05.24,1.6782,1.6782,0,0,1-1.5-.731A3.5687,3.5687,0,0,1,73.35,6.8l4.59-.031a3.359,3.359,0,0,0-.86-2.67,3.4408,3.4408,0,0,0-5.33,1.038,3.9,3.9,0,0,0-.46,1.836,4.11,4.11,0,0,0,.41,1.965,3.08,3.08,0,0,0,1.2,1.309,3.5378,3.5378,0,0,0,1.8.476h0Zm-1.26-4.9a2.3238,2.3238,0,0,1,.48-1.15,1.2118,1.2118,0,0,1,.97-.416c.73.008,1.11.54,1.13,1.6Zm6.01,4.768,3.66.252.07-1.062c-.31-.021-.61-.028-.91-.021.06-.37.11-.778.14-1.225l.16-2.277a2.4762,2.4762,0,0,1,.61-.863,1.159,1.159,0,0,1,.84-.4.7561.7561,0,0,0,.27.65,1.0711,1.0711,0,0,0,.61.224.8431.8431,0,0,0,.73-.258,1.185,1.185,0,0,0,0-1.544,1.2885,1.2885,0,0,0-.85-.353,2.6,2.6,0,0,0-2.1,1.146h-.03c.01-.214.03-.433.03-.657a4.9108,4.9108,0,0,0,0-.548l-.69-.047a1.6749,1.6749,0,0,1-.74.243,6.6153,6.6153,0,0,1-1.44.028l-.07,1.061.98.025c-.06.37-.11.764-.14,1.183L80.42,8.5a2.29,2.29,0,0,1-.21.94.6841.6841,0,0,1-.7.247Zm13.43,1.639a2.7938,2.7938,0,0,0,2.19-.495h.02a5.8388,5.8388,0,0,0-.06.644l2.61.46.18-1.048c-.29-.052-.6-.091-.9-.117q.15-.5419.27-1.2l.41-2.259q.4648-2.6329-2.09-3.084A4.6079,4.6079,0,0,0,94,5.102a2.5115,2.5115,0,0,0-1.16.455,1.3943,1.3943,0,0,0-.56.883,1.0065,1.0065,0,0,0,.12.71.8092.8092,0,0,0,.6.383.8408.8408,0,0,0,.71-.144.8764.8764,0,0,0,.34-.553.772.772,0,0,0-.08-.553,1.3735,1.3735,0,0,1,1.06-.211q.945.165.72,1.42l-.13.717a6.1312,6.1312,0,0,0-2.83.217,2.0239,2.0239,0,0,0-1.46,1.641,1.7785,1.7785,0,0,0,1.55,2.165h0Zm1.11-1.2a.9.9,0,0,1-.53-.278.6817.6817,0,0,1-.13-.592,1.0408,1.0408,0,0,1,.69-.8,3.1707,3.1707,0,0,1,1.42-.176l-.27,1.544a1.5,1.5,0,0,1-1.18.3h0Zm9.35,3.189,3.52,1.049.3-1.02c-.29-.088-.59-.161-.88-.22.14-.347.28-.735.41-1.165l.65-2.187a2.4274,2.4274,0,0,1,.79-.707,1.1363,1.1363,0,0,1,.9-.206.7908.7908,0,0,0,.12.694,1.0848,1.0848,0,0,0,.55.353.843.843,0,0,0,.77-.091,1.1759,1.1759,0,0,0,.34-1.506,1.3333,1.3333,0,0,0-.76-.532,2.61,2.61,0,0,0-2.3.658l-.02-.008c.06-.206.12-.417.17-.634s.09-.4.12-.535l-.66-.2a1.7088,1.7088,0,0,1-.78.073,6.6014,6.6014,0,0,1-1.41-.288l-.3,1.019.95.24q-.21.5209-.39,1.124l-.68,2.254a2.191,2.191,0,0,1-.41.87.6779.6779,0,0,1-.73.087Zm8.68,3.029a2.786,2.786,0,0,0,2.24-.059l.01.005q-.1351.441-.18.621l2.47.957.38-.992a8.792,8.792,0,0,0-.86-.29,11.8543,11.8543,0,0,0,.5-1.128l.84-2.135q.975-2.493-1.44-3.43a4.6587,4.6587,0,0,0-1.48-.324,2.5246,2.5246,0,0,0-1.23.219,1.4,1.4,0,0,0-.72.759,1.0512,1.0512,0,0,0-.02.719.817.817,0,0,0,.51.493.8508.8508,0,0,0,.73,0,.8934.8934,0,0,0,.44-.478.7769.7769,0,0,0,.03-.557,1.3612,1.3612,0,0,1,1.08,0c.6.23.74.74.43,1.532l-.26.679a6.1844,6.1844,0,0,0-2.83-.339,2.0309,2.0309,0,0,0-1.75,1.327,1.7886,1.7886,0,0,0,1.11,2.425h0Zm1.31-.96a.8778.8778,0,0,1-.46-.375.6724.6724,0,0,1-.01-.606,1.022,1.022,0,0,1,.83-.653,3.1345,3.1345,0,0,1,1.42.1l-.56,1.462a1.4927,1.4927,0,0,1-1.22.07h0Zm7.6,4.833a3.2261,3.2261,0,0,0,1.84.353,3.2865,3.2865,0,0,0,1.68-.714,4.7,4.7,0,0,0,1.26-1.62,4.5892,4.5892,0,0,0,.52-1.832,2.921,2.921,0,0,0-.34-1.552,2.5629,2.5629,0,0,0-1.13-1.047,2.787,2.787,0,0,0-2.03-.165l1.83-3.672-.68-.337a1.7,1.7,0,0,1-.78-.061,6.47,6.47,0,0,1-1.33-.523l-.48.953.9.4a11.4771,11.4771,0,0,0-.58,1.072l-3.53,7.081.76.374.63-.37.02.006a2.4323,2.4323,0,0,0,.59,1.023,3.2168,3.2168,0,0,0,.85.634h0Zm.24-1.021a1.0167,1.0167,0,0,1-.54-.616,1.3,1.3,0,0,1,.16-1.03l1.45-2.92a1.3793,1.3793,0,0,1,.65-.167,1.4459,1.4459,0,0,1,.67.152,1.184,1.184,0,0,1,.67,1.148,3.7519,3.7519,0,0,1-.45,1.744,4.3607,4.3607,0,0,1-1.19,1.551,1.2549,1.2549,0,0,1-1.42.138h0Zm7.24,5.261a3.2472,3.2472,0,0,0,1.8.544,3.2861,3.2861,0,0,0,1.74-.534,4.7166,4.7166,0,0,0,1.43-1.479,4.46,4.46,0,0,0,.7-1.768,2.8557,2.8557,0,0,0-.17-1.579,2.5487,2.5487,0,0,0-1.01-1.159,2.7935,2.7935,0,0,0-2-.377l2.2-3.461-.64-.406a1.7,1.7,0,0,1-.77-.143,6.4481,6.4481,0,0,1-1.27-.66l-.57.9.84.491c-.16.213-.39.548-.68,1l-4.25,6.673.71.451.67-.3.01.008a2.4639,2.4639,0,0,0,.48,1.079,3.5,3.5,0,0,0,.78.72h0Zm.35-.99a1.0743,1.0743,0,0,1-.48-.67,1.4,1.4,0,0,1,.27-1.008l1.75-2.751a1.3893,1.3893,0,0,1,.67-.1,1.4443,1.4443,0,0,1,.65.221,1.19,1.19,0,0,1,.55,1.212,3.9749,3.9749,0,0,1-.64,1.687,4.2689,4.2689,0,0,1-1.34,1.419,1.2621,1.2621,0,0,1-1.43-.012h0Zm10.53-1.863a.9621.9621,0,0,0,.79.2,1.1488,1.1488,0,0,0,.72-.468,1.2,1.2,0,0,0,.27-.837.9511.9511,0,0,0-.39-.724.9813.9813,0,0,0-.8-.191,1.206,1.206,0,0,0-1.01,1.277,1.036,1.036,0,0,0,.42.739h0Zm-6.69,5.43,2.9,2.242.66-.842q-.375-.282-.75-.523c.26-.273.52-.586.8-.941l2.98-3.866-.59-.462a1.7161,1.7161,0,0,1-.76-.213,6.7344,6.7344,0,0,1-1.21-.773l-.65.842.8.566a12.09,12.09,0,0,0-.78.929l-1.43,1.839a2.24,2.24,0,0,1-.69.664.69.69,0,0,1-.72-.183Zm5.88,5.164a3.3519,3.3519,0,0,0,1.14.668,3.2309,3.2309,0,0,0,1.8-.027l-.07-.918a1.6308,1.6308,0,0,1-1.5-.24c-.42-.378-.32-.9.29-1.569l2.34-2.532,1.34,1.169.72-.8-1.31-1.2,1.19-1.282-.76-.7a2.8631,2.8631,0,0,1-.82.314,2.68,2.68,0,0,1-.96.048,1.4353,1.4353,0,0,1-.82-.365l-.78.858.7.642-2.3,2.471c-1.21,1.323-1.27,2.475-.2,3.458h0Zm6.28,2.478a4.563,4.563,0,0,0,.5.463,2.4533,2.4533,0,0,0,.64.363l.4-.629a1.4872,1.4872,0,0,1-.32-.278.6674.6674,0,0,1-.2-.39.4172.4172,0,0,1,.14-.308.76.76,0,0,1,.54-.145,8.1609,8.1609,0,0,1,1.04.136,9.2433,9.2433,0,0,0,1.89.174,2.1084,2.1084,0,0,0,1.37-.543,2.0809,2.0809,0,0,0,.72-1.586,3.4,3.4,0,0,0-1.02-2.123,3.48,3.48,0,0,0-1.21-.905,2.8686,2.8686,0,0,0-1.28-.27,1.5376,1.5376,0,0,0-.99.359,1.0822,1.0822,0,0,0-.39.655.907.907,0,0,0,.27.717.7706.7706,0,0,0,.67.28,1.0694,1.0694,0,0,0,.62-.238,1.2625,1.2625,0,0,0,.24-.3.8253.8253,0,0,0,.12-.354,1.2453,1.2453,0,0,1,.53.128,1.4317,1.4317,0,0,1,.51.374,1.0451,1.0451,0,0,1,.31.967,2.0882,2.0882,0,0,1-.66.945,2.5632,2.5632,0,0,1-1.11.6,4.8422,4.8422,0,0,1-1.37.063,7.6271,7.6271,0,0,0-1.38,0,1.2943,1.2943,0,0,0-.66.291.8218.8218,0,0,0-.31.749,1.5442,1.5442,0,0,0,.39.8h0Zm-1.97,1.928a.932.932,0,0,0,.71.323,1.059,1.059,0,0,0,.78-.278,1.1632,1.1632,0,0,0,.39-.724.915.915,0,0,0-.24-.754.9321.9321,0,0,0-.71-.323,1.0591,1.0591,0,0,0-.78.278,1.0711,1.0711,0,0,0-.38.735.931.931,0,0,0,.23.743Z"/>
</svg>
