<svg xmlns="http://www.w3.org/2000/svg" width="179" height="208.7151" viewBox="0 0 179 208.7151">
  <defs>
    <style>
      .a, .c {
        fill: #f19ec2;
      }

      .a, .c, .e, .f, .g, .h, .i, .j {
        fill-rule: evenodd;
      }

      .a {
        opacity: 0.8;
      }

      .b {
        fill: #955e4b;
      }

      .c {
        opacity: 0.5;
      }

      .d {
        fill: none;
        stroke: #955e4b;
        stroke-linecap: round;
        stroke-linejoin: round;
        stroke-width: 0.9818px;
        stroke-dasharray: 0 1.5105;
      }

      .e {
        fill: #8f82bc;
      }

      .f {
        fill: #89c997;
      }

      .g {
        fill: #ec6d7b;
      }

      .h {
        fill: #7ecef4;
      }

      .i {
        fill: #facd89;
      }

      .j {
        fill: #88abda;
      }
    </style>
  </defs>
  <title>ご注文はうさぎですか？BLOOM</title>
  <g>
    <path class="a" d="M90.781,206.5853a11.3063,11.3063,0,0,0-.685-2.8915,9.0445,9.0445,0,0,1-.76-2.6609.588.588,0,0,1,.5311-.6091c1.2189,0,3.425,4.1075,5.5541,4.1075a2.3043,2.3043,0,0,0,2.3566-2.2827c0-3.5744-6.9969-2.204-6.9969-3.8791,0-1.6733,6.9969-.3043,6.9969-3.8793a2.3036,2.3036,0,0,0-2.3566-2.28c-2.1291,0-4.3352,4.1062-5.5541,4.1062a.5864.5864,0,0,1-.5311-.6074,9.0642,9.0642,0,0,1,.76-2.663,11.2763,11.2763,0,0,0,.685-2.8893,1.9344,1.9344,0,0,0-2.0543-2.13,2.0108,2.0108,0,0,0-2.2047,2.13,9.0824,9.0824,0,0,0,.76,2.8893,11.4438,11.4438,0,0,1,.685,2.663.587.587,0,0,1-.5332.6074c-1.2161,0-3.4221-4.1062-5.552-4.1062a2.3048,2.3048,0,0,0-2.3579,2.28c0,3.575,6.9982,2.206,6.9982,3.8793,0,1.6751-6.9982.3047-6.9982,3.8791a2.3055,2.3055,0,0,0,2.3579,2.2827c2.13,0,4.3359-4.1075,5.552-4.1075a.5886.5886,0,0,1,.5332.6091,11.4169,11.4169,0,0,1-.685,2.6609,9.1047,9.1047,0,0,0-.76,2.8915,2.0107,2.0107,0,0,0,2.2047,2.13A1.9344,1.9344,0,0,0,90.781,206.5853Z"/>
    <g>
      <path class="b" d="M80.4836,154.669H76.7721v-.4967a2.09,2.09,0,0,0,.7012-.0893.4974.4974,0,0,0,.31-.2669,1.3871,1.3871,0,0,0,.0726-.5065v-4.5963a.92.92,0,0,0-.1968-.6694,1.3556,1.3556,0,0,0-.8872-.1943v-.4967h3.7115v.4967a2.0287,2.0287,0,0,0-.7013.0922.5076.5076,0,0,0-.31.267,1.3649,1.3649,0,0,0-.0731.5045V153.31a1.3841,1.3841,0,0,0,.07.4908.5122.5122,0,0,0,.2993.2748,1.9532,1.9532,0,0,0,.7151.0971Z"/>
      <path class="b" d="M85.5859,153.3852a1.1884,1.1884,0,0,1-.2783.793,1.71,1.71,0,0,1-.7607.4986,3.3584,3.3584,0,0,1-1.1139.17,4.4745,4.4745,0,0,1-.8574-.0834,2.7937,2.7937,0,0,1-.7557-.2513l-.21.3023h-.421l-.054-1.4025h.4534a1.2964,1.2964,0,0,0,.5448.65,2.2005,2.2005,0,0,0,1.2352.2886,3.6165,3.6165,0,0,0,.4426-.0294,1.1345,1.1345,0,0,0,.4559-.164.4548.4548,0,0,0,.2184-.4161.3688.3688,0,0,0-.2238-.3533,4.9979,4.9979,0,0,0-.8391-.267q-.7443-.1884-1.2191-.3583a2.207,2.207,0,0,1-.8038-.4887,1.0891,1.0891,0,0,1-.3293-.82,1.1437,1.1437,0,0,1,.5855-1.009,2.8225,2.8225,0,0,1,1.535-.3719,3.7265,3.7265,0,0,1,.9491.0971,3.8,3.8,0,0,1,.5992.21l.13-.2749H85.3v1.2514h-.4422a.822.822,0,0,0-.27-.4043,1.4423,1.4423,0,0,0-.5585-.2837,2.9276,2.9276,0,0,0-.8063-.1,3.5564,3.5564,0,0,0-.7528.0815q-.3747.081-.3749.3828a.2957.2957,0,0,0,.0731.2051.668.668,0,0,0,.2508.1511,5.8385,5.8385,0,0,0,.6257.1836c.2983.0755.4765.1207.5339.1344a5.7093,5.7093,0,0,1,1.4433.5448A1.1965,1.1965,0,0,1,85.5859,153.3852Z"/>
      <path class="b" d="M92.6369,153.7081a2.15,2.15,0,0,1-.68.8745,1.5853,1.5853,0,0,1-.9118.264,1.42,1.42,0,0,1-.9388-.2591,1.065,1.065,0,0,1-.372-.58,3.3568,3.3568,0,0,1-.07-.7195v-2.5411H88.85V150.25a1.9222,1.9222,0,0,0,.89-.1943,1.5426,1.5426,0,0,0,.5958-.5232,1.7545,1.7545,0,0,0,.2782-.7066h.4422V150.25h1.5267v.4966H91.0562V153.32a2.6218,2.6218,0,0,0,.0618.6763.2826.2826,0,0,0,.3048.208.53.53,0,0,0,.4265-.2022,2.8542,2.8542,0,0,0,.3238-.5044Z"/>
      <path class="b" d="M99.1575,154.669H96.3847v-.4967a.7524.7524,0,0,0,.5124-.1325.5036.5036,0,0,0,.14-.3857v-1.8118a3.0224,3.0224,0,0,0-.0353-.4859.79.79,0,0,0-.186-.3916.5791.5791,0,0,0-.4638-.1747,1.0939,1.0939,0,0,0-.5152.1374,1.025,1.025,0,0,0-.402.3583,1.3863,1.3863,0,0,0-.1918.478,3.2836,3.2836,0,0,0-.04.5525v.9285a3.6843,3.6843,0,0,0,.0295.5526.4093.4093,0,0,0,.1673.2748.794.794,0,0,0,.4559.1v.4967H93.029v-.4967a1.3981,1.3981,0,0,0,.5315-.0755.3424.3424,0,0,0,.21-.2238,2.063,2.063,0,0,0,.0408-.4878v-4.5267a.8136.8136,0,0,0-.13-.5417,1,1,0,0,0-.6527-.1433v-.4859l2.174-.4632v3.6413a3.9581,3.9581,0,0,1,.6611-.5644,1.7036,1.7036,0,0,1,.952-.2286,2.0157,2.0157,0,0,1,.5609.08,1.6984,1.6984,0,0,1,.5045.2376.991.991,0,0,1,.3264.3562,2.0766,2.0766,0,0,1,.2213,1.0247v1.6136a1.1739,1.1739,0,0,0,.1158.62q.1162.1663.6125.1668Z"/>
      <path class="b" d="M104.0428,152.2948h-3.3174c.0034.0687.0132.2139.0294.4367a2.5507,2.5507,0,0,0,.1512.6861,1.2909,1.2909,0,0,0,.4367.59,1.3233,1.3233,0,0,0,.8338.24,2.102,2.102,0,0,0,.6905-.1452,1.4862,1.4862,0,0,0,.7013-.5615l.4206.2857a2.2078,2.2078,0,0,1-2.0229,1.02,3.4082,3.4082,0,0,1-1.13-.1776,2.543,2.543,0,0,1-.8662-.4967,2.1592,2.1592,0,0,1-.5447-.75,2.2923,2.2923,0,0,1-.1889-.9275,2.4074,2.4074,0,0,1,.316-1.2092,2.314,2.314,0,0,1,.9035-.8843,2.7079,2.7079,0,0,1,1.3431-.3288,2.3163,2.3163,0,0,1,1.249.318,1.9632,1.9632,0,0,1,.7528.8254A2.47,2.47,0,0,1,104.0428,152.2948Zm-1.3377-.4957q0-1.2308-.9712-1.2308a.8407.8407,0,0,0-.72.3406,1.6009,1.6009,0,0,0-.2782.89Z"/>
      <path class="b" d="M82.5207,163.1854a2.2828,2.2828,0,0,1-.3563,1.2789,2.3128,2.3128,0,0,1-.9629.8333,3.0591,3.0591,0,0,1-1.33.2885,3.1973,3.1973,0,0,1-1.2867-.264,2.3632,2.3632,0,0,1-.9928-.8038,2.2139,2.2139,0,0,1-.3857-1.3221,2.0955,2.0955,0,0,1,.7984-1.7775,3.05,3.05,0,0,1,1.8992-.6066,2.9079,2.9079,0,0,1,1.4133.3239,2.2077,2.2077,0,0,1,.8981.8677A2.3849,2.3849,0,0,1,82.5207,163.1854Zm-1.49-.0324a3.0706,3.0706,0,0,0-.2424-1.381.965.965,0,0,0-.9442-.4642.9533.9533,0,0,0-1.0492.8284,4.9268,4.9268,0,0,0-.1,1.0983,3.4336,3.4336,0,0,0,.2213,1.3427.9369.9369,0,0,0,.9658.5123.9563.9563,0,0,0,.7469-.2827,1.3711,1.3711,0,0,0,.3293-.7017A5.5833,5.5833,0,0,0,81.0312,163.153Z"/>
      <path class="b" d="M87.6794,161.6641a.6447.6447,0,0,1-.1919.4937.6334.6334,0,0,1-.45.1806.67.67,0,0,1-.54-.3023,1.4292,1.4292,0,0,0-.1782-.1934.2956.2956,0,0,0-.1992-.06.7212.7212,0,0,0-.6557.4564,2.04,2.04,0,0,0-.2345.9462v.9393a1.1729,1.1729,0,0,0,.1158.62q.1163.1663.6124.1668h.2861v.4967h-3.35v-.4967h.2807q.4527,0,.5555-.1727a1.3005,1.3005,0,0,0,.1026-.6144v-1.5753a1.3228,1.3228,0,0,0-.0731-.5182.3809.3809,0,0,0-.2616-.2081,2.585,2.585,0,0,0-.6041-.0511v-.4966l2.1038-.4633a7.1871,7.1871,0,0,1,.1512,1.17,2.2841,2.2841,0,0,1,.3965-.582,2.0668,2.0668,0,0,1,.55-.426,1.3131,1.3131,0,0,1,.6233-.162.97.97,0,0,1,.7013.2484A.8029.8029,0,0,1,87.6794,161.6641Z"/>
      <path class="b" d="M93.9752,165.3437a13.1742,13.1742,0,0,0-2.0882.2424,1.7114,1.7114,0,0,1-.0971-.5663,2.3349,2.3349,0,0,1-1.5159.5663,2.2362,2.2362,0,0,1-1.1788-.3288,2.4305,2.4305,0,0,1-.8632-.898,2.48,2.48,0,0,1-.321-1.2387,2.5436,2.5436,0,0,1,.14-.8254,2.2451,2.2451,0,0,1,.44-.7528,2.0872,2.0872,0,0,1,.742-.5359,2.4838,2.4838,0,0,1,1.0085-.1944,2.2059,2.2059,0,0,1,.712.1021,1.7771,1.7771,0,0,1,.4751.2346,3.2648,3.2648,0,0,1,.3612.316v-1.77a1.6021,1.6021,0,0,0-.0594-.5182.3089.3089,0,0,0-.2238-.1993,2.6524,2.6524,0,0,0-.5369-.0539v-.4967l2.2123-.4632v6.042a2.75,2.75,0,0,0,.0349.5389.3063.3063,0,0,0,.1968.2188,1.8084,1.8084,0,0,0,.5614.0835Zm-2.1853-1.02v-2.1848a2.8738,2.8738,0,0,0-.5394-.5015,1.2341,1.2341,0,0,0-.7444-.2267.9162.9162,0,0,0-.4962.1452,1.1628,1.1628,0,0,0-.3724.372,2.4578,2.4578,0,0,0-.2376,1.2573,2.2406,2.2406,0,0,0,.3377,1.3486,1.01,1.01,0,0,0,.8387.4534,1.34,1.34,0,0,0,.6742-.1776A1.7255,1.7255,0,0,0,91.79,164.3239Z"/>
      <path class="b" d="M99.0937,163.0342H95.7762c.0034.0688.0133.214.0295.4368a2.5466,2.5466,0,0,0,.1511.6861,1.2911,1.2911,0,0,0,.4368.59,1.323,1.323,0,0,0,.8337.24,2.1015,2.1015,0,0,0,.6905-.1452,1.4862,1.4862,0,0,0,.7013-.5615l.4206.2857a2.2078,2.2078,0,0,1-2.0229,1.02,3.4082,3.4082,0,0,1-1.13-.1776,2.5416,2.5416,0,0,1-.8661-.4967,2.16,2.16,0,0,1-.5448-.75,2.2923,2.2923,0,0,1-.1889-.9275,2.4074,2.4074,0,0,1,.316-1.2092,2.3143,2.3143,0,0,1,.9035-.8844,2.7094,2.7094,0,0,1,1.3432-.3288,2.3153,2.3153,0,0,1,1.2489.3181,1.9632,1.9632,0,0,1,.7528.8254A2.47,2.47,0,0,1,99.0937,163.0342Zm-1.3378-.4956q0-1.2308-.9712-1.2308a.84.84,0,0,0-.72.3406,1.6,1.6,0,0,0-.2783.89Z"/>
      <path class="b" d="M104.459,161.6641a.6447.6447,0,0,1-.1919.4937.6334.6334,0,0,1-.45.1806.67.67,0,0,1-.54-.3023,1.4292,1.4292,0,0,0-.1782-.1934.2956.2956,0,0,0-.1992-.06.7212.7212,0,0,0-.6557.4564,2.04,2.04,0,0,0-.2345.9462v.9393a1.1729,1.1729,0,0,0,.1158.62q.1162.1663.6124.1668h.2861v.4967h-3.35v-.4967h.2807q.4527,0,.5555-.1727a1.3005,1.3005,0,0,0,.1026-.6144v-1.5753a1.3228,1.3228,0,0,0-.0731-.5182.3809.3809,0,0,0-.2616-.2081,2.585,2.585,0,0,0-.6041-.0511v-.4966l2.1038-.4633a7.1871,7.1871,0,0,1,.1512,1.17,2.2841,2.2841,0,0,1,.3965-.582,2.0668,2.0668,0,0,1,.55-.426,1.3131,1.3131,0,0,1,.6233-.162.97.97,0,0,1,.7013.2484A.8029.8029,0,0,1,104.459,161.6641Z"/>
      <path class="b" d="M67.2977,175.0085a1.3679,1.3679,0,0,1-.1673.6988,1.0434,1.0434,0,0,1-.45.4269,1.45,1.45,0,0,1-.6394.1374,1.2829,1.2829,0,0,1-.7553-.2129.8215.8215,0,0,1-.3616-.51,2.8927,2.8927,0,0,1-1.8124.7233,1.5363,1.5363,0,0,1-.955-.2836.8929.8929,0,0,1-.3724-.7469,1.2528,1.2528,0,0,1,.2-.693,1.8479,1.8479,0,0,1,.5855-.5535,4.54,4.54,0,0,1,.92-.4289q.5344-.1855,1.3324-.3907v-.3082a.9122.9122,0,0,0-.1806-.6006.8287.8287,0,0,0-.6659-.2189.8588.8588,0,0,0-.5992.1727.9018.9018,0,0,0-.2425.5232.9584.9584,0,0,1-.16.4073.5736.5736,0,0,1-.4829.159.6463.6463,0,0,1-.3989-.13.4476.4476,0,0,1-.1728-.3827,1.0594,1.0594,0,0,1,.5452-.8746,3.0056,3.0056,0,0,1,1.672-.3719,2.492,2.492,0,0,1,1.6322.3994,1.3649,1.3649,0,0,1,.4451,1.0679v1.7048c0,.216.0054.374.0162.4751a.3877.3877,0,0,0,.0889.2287.3149.3149,0,0,0,.4745-.0668.583.583,0,0,0,.1055-.3513Zm-2.4763.0431v-1.3377a3.1907,3.1907,0,0,0-1.3024.634.9247.9247,0,0,0-.2778.6076.5378.5378,0,0,0,.1506.3984.5754.5754,0,0,0,.4265.1512,1.0737,1.0737,0,0,0,.5231-.1237A3.2609,3.2609,0,0,0,64.8214,175.0516Z"/>
      <path class="b" d="M74.9318,172.4036a.6462.6462,0,0,1-.1919.4937.6377.6377,0,0,1-.45.1806.6724.6724,0,0,1-.54-.3023,1.3836,1.3836,0,0,0-.1781-.1944.301.301,0,0,0-.1992-.0589.72.72,0,0,0-.6557.4555,2.0431,2.0431,0,0,0-.2346.9471v.9383a1.1679,1.1679,0,0,0,.1159.62q.1163.1679.6124.1678h.2861v.4957h-3.35v-.4957h.2807q.4527,0,.5555-.1727a1.3066,1.3066,0,0,0,.1026-.6154v-1.5753a1.3315,1.3315,0,0,0-.0731-.5182.38.38,0,0,0-.2616-.2071,2.5307,2.5307,0,0,0-.6041-.0511v-.4966l2.1038-.4642a7.2135,7.2135,0,0,1,.1512,1.1709,2.3069,2.3069,0,0,1,.3965-.583,2.0859,2.0859,0,0,1,.55-.426,1.313,1.313,0,0,1,.6233-.1619.9735.9735,0,0,1,.7012.2483A.8063.8063,0,0,1,74.9318,172.4036Z"/>
      <path class="b" d="M80.8875,175.0085a1.3669,1.3669,0,0,1-.1674.6988,1.0437,1.0437,0,0,1-.45.4269,1.45,1.45,0,0,1-.6394.1374,1.2829,1.2829,0,0,1-.7553-.2129.822.822,0,0,1-.3617-.51,2.8926,2.8926,0,0,1-1.8123.7233,1.5359,1.5359,0,0,1-.955-.2836.893.893,0,0,1-.3725-.7469,1.2536,1.2536,0,0,1,.2-.693,1.849,1.849,0,0,1,.5855-.5535,4.5433,4.5433,0,0,1,.92-.4289q.5345-.1855,1.3323-.3907v-.3082a.9121.9121,0,0,0-.1805-.6006.8291.8291,0,0,0-.666-.2189.8588.8588,0,0,0-.5992.1727.9011.9011,0,0,0-.2424.5232.961.961,0,0,1-.1595.4073.5737.5737,0,0,1-.4829.159.6464.6464,0,0,1-.399-.13.4478.4478,0,0,1-.1727-.3827,1.0592,1.0592,0,0,1,.5452-.8746,3.0052,3.0052,0,0,1,1.672-.3719,2.4922,2.4922,0,0,1,1.6322.3994,1.3649,1.3649,0,0,1,.4451,1.0679v1.7048c0,.216.0054.374.0162.4751a.3877.3877,0,0,0,.0888.2287.315.315,0,0,0,.4746-.0668.5836.5836,0,0,0,.1055-.3513Zm-2.4764.0431v-1.3377a3.1907,3.1907,0,0,0-1.3024.634.9247.9247,0,0,0-.2778.6076.5378.5378,0,0,0,.1507.3984.5751.5751,0,0,0,.4265.1512,1.0742,1.0742,0,0,0,.5231-.1237A3.2657,3.2657,0,0,0,78.4111,175.0516Z"/>
      <path class="b" d="M86.7121,173.9033a2.4757,2.4757,0,0,1-.1889.9678,2.3061,2.3061,0,0,1-.531.78,2.3775,2.3775,0,0,1-.7823.5016,2.5318,2.5318,0,0,1-.9309.1727,2.0636,2.0636,0,0,1-.9923-.2238,2.1217,2.1217,0,0,1-.6856-.5751,7.4823,7.4823,0,0,0-.7174.7989h-.4206v-5.9782a1.0409,1.0409,0,0,0-.0731-.45.3422.3422,0,0,0-.2425-.1835,2.8455,2.8455,0,0,0-.526-.052v-.4849l2.2334-.475v3.49a2.8744,2.8744,0,0,1,.6394-.4505,2.0446,2.0446,0,0,1,.952-.1914,2.2869,2.2869,0,0,1,.9791.2,2.04,2.04,0,0,1,.715.5388,2.3624,2.3624,0,0,1,.4289.7558A2.6179,2.6179,0,0,1,86.7121,173.9033Zm-1.4943-.0432a2.9842,2.9842,0,0,0-.2238-1.1925.8665.8665,0,0,0-.8823-.5182,1.199,1.199,0,0,0-.4663.0952,1.6658,1.6658,0,0,0-.4264.2561,2.355,2.355,0,0,0-.3641.3769v2.1956a1.5162,1.5162,0,0,0,.6448.5369,1.6981,1.6981,0,0,0,.5688.1168.8914.8914,0,0,0,.7125-.3,1.58,1.58,0,0,0,.348-.7145A4.0471,4.0471,0,0,0,85.2178,173.86Z"/>
      <path class="b" d="M92.8023,173.9033a2.4739,2.4739,0,0,1-.189.9678,2.3058,2.3058,0,0,1-.5309.78,2.3775,2.3775,0,0,1-.7823.5016,2.5322,2.5322,0,0,1-.9309.1727,2.0633,2.0633,0,0,1-.9923-.2238,2.1217,2.1217,0,0,1-.6856-.5751,7.4744,7.4744,0,0,0-.7175.7989h-.4205v-5.9782a1.0407,1.0407,0,0,0-.0732-.45.342.342,0,0,0-.2424-.1835,2.8468,2.8468,0,0,0-.5261-.052v-.4849l2.2334-.475v3.49a2.8751,2.8751,0,0,1,.64-.4505,2.0446,2.0446,0,0,1,.952-.1914,2.2864,2.2864,0,0,1,.979.2,2.04,2.04,0,0,1,.7151.5388,2.3624,2.3624,0,0,1,.4289.7558A2.6179,2.6179,0,0,1,92.8023,173.9033ZM91.308,173.86a2.9842,2.9842,0,0,0-.2238-1.1925.8667.8667,0,0,0-.8824-.5182,1.1986,1.1986,0,0,0-.4662.0952,1.6658,1.6658,0,0,0-.4264.2561,2.3512,2.3512,0,0,0-.3642.3769v2.1956a1.5163,1.5163,0,0,0,.6449.5369,1.6975,1.6975,0,0,0,.5687.1168.8916.8916,0,0,0,.7126-.3,1.5787,1.5787,0,0,0,.3479-.7145A4.0472,4.0472,0,0,0,91.308,173.86Z"/>
      <path class="b" d="M96.262,176.147H93.3328v-.4957h.156a.9225.9225,0,0,0,.4559-.0863.3606.3606,0,0,0,.1757-.2434,2.4249,2.4249,0,0,0,.0324-.4584v-1.6018a1.9183,1.9183,0,0,0-.0407-.475.3165.3165,0,0,0-.21-.2052,1.813,1.813,0,0,0-.5688-.07v-.4966l2.2118-.4642v3.3125a1.1892,1.1892,0,0,0,.1133.62q.1134.1679.6041.1678Zm-.6095-6.7056a.785.785,0,0,1-1.57,0,.785.785,0,1,1,1.57,0Z"/>
      <path class="b" d="M100.2381,175.1871a2.14,2.14,0,0,1-.68.8735,1.5785,1.5785,0,0,1-.9118.265,1.42,1.42,0,0,1-.9388-.2591,1.0643,1.0643,0,0,1-.372-.58,3.3645,3.3645,0,0,1-.07-.72v-2.5411H96.451v-.4956a1.9228,1.9228,0,0,0,.89-.1943,1.5507,1.5507,0,0,0,.5958-.5232,1.7657,1.7657,0,0,0,.2782-.7067h.4422v1.4242h1.5267v.4956H98.6574v2.5735a2.6255,2.6255,0,0,0,.0618.6773.2834.2834,0,0,0,.3048.208.5282.5282,0,0,0,.4264-.2031,2.8478,2.8478,0,0,0,.3239-.5035Z"/>
      <path class="b" d="M101.276,169.0371a1.6657,1.6657,0,0,1,1.3206-.4967,1.8414,1.8414,0,0,1,1.3829.51,1.7872,1.7872,0,0,1,.4972,1.3024,1.902,1.902,0,0,1-.7931,1.5969c-.1345.1011-.2262.17-.2753.2081s-.1472.11-.2959.2179a.9487.9487,0,0,0-.3161.3671,2.71,2.71,0,0,0-.1217.847h-.28l-.0093-.4691a3.0376,3.0376,0,0,1,.3464-1.2142,3.6436,3.6436,0,0,0,.346-1.5645,2.2239,2.2239,0,0,0-.1968-1.0354.6674.6674,0,0,0-.633-.3671.5075.5075,0,0,0-.4059.1433.4619.4619,0,0,0-.1212.3043.2961.2961,0,0,0,.0182.1138.6426.6426,0,0,0,.0687.1129l.0643.0913a1.1893,1.1893,0,0,1,.1491.2758.9554.9554,0,0,1,.0432.3131.6843.6843,0,0,1-.1742.4907.5577.5577,0,0,1-.4171.1835.5709.5709,0,0,1-.4446-.2188.944.944,0,0,1-.188-.6341A1.6019,1.6019,0,0,1,101.276,169.0371Zm.7086,5.672a.7136.7136,0,0,1,1.1209,0,1.05,1.05,0,0,1,0,1.3221.7121.7121,0,0,1-1.1209,0,1.0592,1.0592,0,0,1,0-1.3221Z"/>
    </g>
    <path class="b" d="M28.399,196.6869c0-.8715-.0486-3.8258-.0726-4.2376-.0726-1.4045-.46-1.4531-1.38-1.4531H26.171c-.1452,0-.1938-.0481-.1938-.1933v-.557c0-.1453.0486-.2179.1938-.2179.3392,0,1.5012.0967,3.5354.0726.7749,0,2.228-.0726,3.5353-.0726a9.7935,9.7935,0,0,1,4.2622.6537,3.3728,3.3728,0,0,1,1.84,3.2934c0,1.9369-1.0169,3.1-3.2934,3.947v.1208c2.76.7268,4.3588,2.1794,4.3588,4.7465a4.4969,4.4969,0,0,1-1.8889,3.6806c-1.0168.581-2.5666.8475-5.279.8475-.9682,0-2.5666-.0727-3.5353-.0727-1.8889,0-2.9057.0727-3.4141.0727a.1728.1728,0,0,1-.17-.1939v-.6051a.1532.1532,0,0,1,.17-.17h1.0413c.7263,0,.8956-.2905.9683-1.0413.0485-.5811.0971-3.7773.0971-5.7629Zm2.9543,1.0173c.3872.0241.7263.0241,1.1135.0241a4.2633,4.2633,0,0,0,2.5671-.7023,3.5032,3.5032,0,0,0,1.2593-2.8576,3.0106,3.0106,0,0,0-1.0654-2.47,5.043,5.043,0,0,0-2.761-.8475,3.4191,3.4191,0,0,0-.7263.0486.4809.4809,0,0,0-.3145.3872c-.0246.46-.0727,2.543-.0727,4.5767Zm2.0823,8.8384c1.8888,0,3.6325-.8961,3.6325-3.85a3.7592,3.7592,0,0,0-2.3247-3.7773,7.1346,7.1346,0,0,0-2.76-.4358h-.63v4.8427C31.3533,205.5984,31.8858,206.5426,33.4356,206.5426Z"/>
    <path class="b" d="M68.7758,202.2564c.0481.0486.0481.0972.0481.2424-.0967.1453-1.0654,4.165-1.2107,4.8187-.63-.0241-7.6036-.0727-10.0735-.0727-2.18,0-3.051.0727-3.3415.0727-.1939,0-.1939-.0486-.1939-.2179v-.557c0-.1453,0-.1939.1453-.1939h.9687c.8716,0,1.0168-.3391,1.0168-.6536,0-.4358.0972-6.49.0972-7.9428v-1.3559c0-1.55-.0486-4.1164-.0972-4.5281-.0481-.63-.1452-.8721-.7749-.8721H54.3434a.2086.2086,0,0,1-.1938-.2179v-.557c0-.1452.0486-.1933.1938-.1933.242,0,1.114.0726,3.3415.0726,2.6152,0,3.6325-.0726,3.8264-.0726s.2419.0967.2419.2179v.557c0,.0967-.0486.1933-.2419.1933H60.2034c-.7263,0-.8234.2425-.8234.8961,0,.3391-.0967,3.9712-.0967,5.6662v2.0827c0,.4358,0,5.6662.0967,6.7075h1.3564c1.3559,0,3.0995,0,4.0678-.1207,1.3564-.1938,2.9062-3.1,3.2448-4.02.0972-.0967.1457-.1452.291-.0967Z"/>
    <path class="b" d="M120.7678,191.428a10.2211,10.2211,0,0,1,2.7988,7.42,10.0249,10.0249,0,0,1-1.5228,5.5146,6.9326,6.9326,0,0,1-6.1741,3.56,8.2307,8.2307,0,0,1-4.6513-1.6547c-1.4615-1.0775-3.0049-3.81-3.0049-7.42a11.4043,11.4043,0,0,1,1.8933-6.2173,6.5556,6.5556,0,0,1,5.8036-3.2087A6.48,6.48,0,0,1,120.7678,191.428Zm-7.903.5014a10.1507,10.1507,0,0,0-1.8525,6.0664c0,6.5175,3.2929,8.8239,5.0218,8.8239,4.1571,0,4.8157-5.6152,4.8157-7.721,0-5.4648-3.0456-8.573-5.0213-8.573A3.1785,3.1785,0,0,0,112.8648,191.9294Z"/>
    <path class="c" d="M93.5286,191.428a10.2211,10.2211,0,0,1,2.7988,7.42,10.0249,10.0249,0,0,1-1.5228,5.5146,6.9326,6.9326,0,0,1-6.1741,3.56,8.2307,8.2307,0,0,1-4.6513-1.6547c-1.4615-1.0775-3.0049-3.81-3.0049-7.42a11.4034,11.4034,0,0,1,1.8933-6.2173,6.5556,6.5556,0,0,1,5.8036-3.2087A6.48,6.48,0,0,1,93.5286,191.428Zm-7.903.5014a10.1507,10.1507,0,0,0-1.8525,6.0664c0,6.5175,3.2929,8.8239,5.0218,8.8239,4.1571,0,4.8157-5.6152,4.8157-7.721,0-5.4648-3.0456-8.573-5.0213-8.573A3.1785,3.1785,0,0,0,85.6256,191.9294Z"/>
    <path class="b" d="M147.4889,198.5233c0-.7268,0-6.7321-.035-6.8287h-.07c-.1395.3386-2.3361,7.41-2.5452,8.0394-.2615.7749-2.04,6.49-2.127,6.7315-.07.1939-.2091.533-.3836.533-.1046,0-.2092-.1453-.2788-.4358-.07-.1453-2.3361-7.7008-2.4407-8.088-.3137-1.114-1.9178-6.5382-2.1269-6.8287-.07.3391-.0873,6.441-.0873,6.732s-.0173,4.4069.0873,5.9808c.07,1.114.2787,2.0341.8366,2.0341h.7671c.1049,0,.1395.0972.1395.17v.6051c0,.0972-.0346.1938-.1742.1938-.1745,0-.6624-.0726-1.9873-.0726-1.4995,0-2.0924.0726-2.2665.0726-.14,0-.14-.0485-.14-.2178v-.6056c0-.0481,0-.1453.1046-.1453h.495c.5929,0,.7844-.8716.8716-1.7191.1569-1.695.2615-7.6522.2615-8.088v-4.1409c0-.8716-.0869-1.4045-.854-1.4045h-.46c-.1046,0-.1392-.0967-.1392-.1693v-.6537a.1423.1423,0,0,1,.1392-.1452c.1746,0,.6279.0726,2.4757.0726.837,0,1.3249-.0726,1.5341-.0726s.3314.0966.4186.4112c.6275,2.2766,2.8366,9.686,3.3595,11.6715.1572-.4357,1.2106-3.8014,1.6639-5.23.3137-1.0173,1.8828-6.0052,1.97-6.49.0523-.2424.2614-.2905.68-.2905,2.5453.024,3.554-.0726,3.7632-.0726.07,0,.1046.0966.1046.2178v.5085c0,.1452-.0347.2419-.14.2419h-.1972c-.4533,0-.488.4363-.5056.9447-.0173.5324-.0173,5.3756-.0173,6.0052v1.6951c0,1.4531.0349,4.9884.0349,5.4.0173.92.1742,1.3073.488,1.3073h.3717c.1046,0,.1046.0972.1046.17v.557c0,.1453,0,.2419-.1395.2419-.2092,0-1.0458-.0726-2.58-.0726-1.7082,0-2.3707.0726-2.6148.0726-.1046,0-.14-.0966-.14-.2178v-.557c0-.1453.035-.1939.14-.1939h1.0807c.3138,0,.4533-.1453.5056-.8475.0173-.2419.0523-3.7292.0523-5.6662Z"/>
    <path class="b" d="M92.5453,91.1688a3.41,3.41,0,0,0-2.111-1.46,9.4874,9.4874,0,0,0-1.9439.0433,15.158,15.158,0,0,1-4.208-.6172c-2.9812-.8356-7.1062-3.4863-6.9048-7.0252-.012-.0951-.0235-.1905-.0283-.2827-.0291-.0038-.0518-.01-.0788-.0133a3.8431,3.8431,0,0,0-1.2947,2.366,6.8417,6.8417,0,0,0,1.2154,4.9146c1.7741,2.6215,5.1511,4.3016,9.6005,4.944,2.0567.3,4.205.4582,5.3975-.5388A1.6613,1.6613,0,0,0,92.5453,91.1688Zm9.4638-5.6289a3.2421,3.2421,0,0,1-2.44,1.33c-1.8541.0454-3.8717-2.0493-5.1635-3.1715-.31-.27-.9581-1.1054-.4136-1.5791a.6141.6141,0,0,1,.1048-.0633,7.2964,7.2964,0,0,0,1.4086.5512c.9054.2706,2.3591.3345,2.7219-.7632.3863-1.1663-.5671-2.7681-1.0712-3.7857a18.3069,18.3069,0,0,0-2.2519-3.5166c-.3684-.4493-3.5434-4.2834-3.98-4.0911a33.015,33.015,0,0,1-5.0091,1.8412,12.0957,12.0957,0,0,1-5.9558.0922,8.4741,8.4741,0,0,1-4.2457-2.59A4.1725,4.1725,0,0,1,74.6,66.016a1.28,1.28,0,0,1,.4673-.7662,13.0449,13.0449,0,0,0,1.0535.8651,10.9625,10.9625,0,0,0,8.99,2.3376c.813-.1678,1.6056-.5409,2.3989-.7859a10.5382,10.5382,0,0,0-2.0691-1.6506,24.0794,24.0794,0,0,1-2.22-1.7084A3.5115,3.5115,0,0,1,82.1474,61.9a2.0761,2.0761,0,0,1,.8206-1.8074.6862.6862,0,0,1,.4965-.0262c.3177.0687,1.1345,1.5821,1.4219,1.8939A13.82,13.82,0,0,0,86.61,63.5084c1.3067,1.0167,2.723,1.8866,3.9676,2.9822.4128-.2044.7906-.4266,1.1708-.6622,1.2955-.8094,3.08-3.3835,4.8092-2.7581A1.47,1.47,0,0,1,97.7,64.65a3.81,3.81,0,0,1-1.5558,2.67,14.1253,14.1253,0,0,1-2.4666,1.74,39.4377,39.4377,0,0,1,7.1609,7.8891,11.8779,11.8779,0,0,1,1.9625,5.6072A4.4234,4.4234,0,0,1,102.0091,85.54Z"/>
    <path class="b" d="M87.9836,133.6863a6.8972,6.8972,0,0,0-1.537-.1467,13.1592,13.1592,0,0,1-3.7574-.8145,8.37,8.37,0,0,1-1.0818-.52c-2.3971-.8727-4.75-3.1129-4.8958-5.5427a.6536.6536,0,0,0-.2883-.0147c-1.095.2261-1.1919,2.1995-1.02,3.2053.6427,3.56,3.654,5.8171,8.0148,7.2364a9.8589,9.8589,0,0,0,4.9891.5394,1.8394,1.8394,0,0,0,1.5612-1.8939A2.5742,2.5742,0,0,0,87.9836,133.6863Zm11.9658-16.525a4.6954,4.6954,0,0,1-2.347,1.9657,18.0019,18.0019,0,0,1-2.98,1.2979c.5361.9894,1.09,1.9563,1.7092,2.9516a16.55,16.55,0,0,1,1.7461,2.8832,4.3929,4.3929,0,0,1-.2244,3.7348,3.75,3.75,0,0,1-1.1778,1.176c-2.1907,1.3739-4.8816-1.3963-5.9611-2.9451a.9019.9019,0,0,1,.2733-.4958c.7714.6219,2.261,1.1836,3.0148.2673.8348-1.0117.0253-2.3932-.4514-3.3484-.146-.2921-1.514-3.3485-1.5894-3.3337-2.9621.603-6.3474,1.6035-10.109,1.1441a6.3576,6.3576,0,0,1-5.2-3.392c-.3392-.6372-1.1684-2.2955-.2706-2.7254a7.4635,7.4635,0,0,0,3.2065,1.7644,10.3773,10.3773,0,0,0,2.1727.65,8.2194,8.2194,0,0,0,.851.2108c2.9425.5577,5.5439-.1978,7.8921-.7561a38.838,38.838,0,0,0-1.7432-3.5764,11.1639,11.1639,0,0,1-7.0028-.5765,6.8918,6.8918,0,0,1-3.36-2.8209c-.2921-.5358-.66-1.5853.0256-1.8926.3636.2885.7809.5241,1.007.6731a12.0237,12.0237,0,0,0,7.5841,1.6318c-.0762.0094-2.3809-3.2542-2.6777-3.6011a27.3954,27.3954,0,0,1-2.9587-3.8425.8533.8533,0,0,1,.1243-1.2379,2.0316,2.0316,0,0,1,1.3975-.7279,1.9243,1.9243,0,0,1,1.2.5035,18.335,18.335,0,0,1,2.494,3.0322,15.2778,15.2778,0,0,1,1.875,2.8962c.2515.5183.7585,2.0258,1.4708,2.0712.32.0229.949-.639,1.2326-.7956a4.184,4.184,0,0,1,1.5485-.5477,1.6411,1.6411,0,0,1,1.7723,2.3191c-.5115,1.1142-2.11,1.6984-3.2,2.1848.5565,1.1872,1.166,2.3214,1.742,3.4863,1.643-.3982,2.9659-1.6719,4.5356-2.22a1.9249,1.9249,0,0,1,.4129-.1566C99.0363,114.9034,100.4394,115.9305,99.9494,117.1613Zm5.3292-9.731c-1.7422-.0624-2.4018-1.9692-3.57-2.9062a7.0865,7.0865,0,0,0-1.53-.9139c-.1829-.0831-1.7028-.5047-1.7169-.5707a.7011.7011,0,0,1-.0292-.1189c-.0206-.901,1.4661-.88,2.2858-.92a9.1812,9.1812,0,0,1,5.3548,1.2061,3.0471,3.0471,0,0,1,.9809,1.0765A2.1213,2.1213,0,0,1,105.2786,107.43Zm-3.0828,2.99a2.1,2.1,0,0,1-2.66.9859c-1.1636-.4941-1.696-1.9128-2.47-2.8173a5.9214,5.9214,0,0,0-3.4242-1.7325.79.79,0,0,1-.0017-.2014c.1-.6125,1.0561-.6537,1.6818-.7032a8.9627,8.9627,0,0,1,5.8587,1.3309A2.653,2.653,0,0,1,102.1958,110.4207Z"/>
    <path class="b" d="M134.0951,18.2079c-1.4116.0819-2.8721.1687-4.3137.1346a18.2308,18.2308,0,0,1-2.8833-.2524,8.2032,8.2032,0,0,1-1.481-.3825,4.1912,4.1912,0,0,1-.4873-.2847,3.5664,3.5664,0,0,0-.6981-.3863l-.1131.0209v.4947c0,.5143,1.8883,3.6323,6.85,4.0693.3487.0247.7011.0377,1.05.0491.3148.0086.6275.0215.9384.0416l.1752.0111-.1036.1414c-.2939.4042-.7971,1.045-1.3474,1.7131l-.9959,1.6713c-.1233.38-.2467.78-.3421,1.1883l.0076.0215h.1414c1.9825-2.61,5.3489-3.3561,8.3208-4.0156l.3486-.0775c.2574-.0574.5645-.0951.8925-.1345,1.2682-.1555,2.706-.3307,2.706-1.7311,0-1.2078-1.6716-2.5535-4.0687-2.5535a9.9845,9.9845,0,0,0-1.09.0745,10.29,10.29,0,0,1-1.1231.068C135.6845,18.1164,134.8892,18.1617,134.0951,18.2079Z"/>
    <path class="b" d="M133.2715,56.4682l-.1828.0377c-.3552.0274-.8425.065-.8875.3439-.0386.2668.2429.5521.3957.7049l.0772.081c.26.2806.5456.5341.8265.7838a6.6255,6.6255,0,0,1,1.2472,1.3276,9.056,9.056,0,0,1,.9,2.1831c.4325,1.3692.88,2.7843,2.1765,3.1953a3.1455,3.1455,0,0,0,3.3706-.8963,3.5856,3.5856,0,0,0,.9272-2.3714c0-1.7423-.982-3.0746-3.003-4.0714A12.607,12.607,0,0,0,133.2715,56.4682Z"/>
    <path class="b" d="M145.0288,168.513l-.0642-.0212-.0008-.0677c-.01-.4918-.0386-.9912-.0669-1.4847l-.0565-1.1348c-.0775-1.1536-.2574-4.2589-.2574-8.1409v-1.44l.0689-.0206c3.7913-1.1419,5.7135-2.61,5.7135-4.3643,0-1.5435-1.3436-1.8975-2.6418-2.2408-.14-.0453-.3357-.1148-.5674-.2031l-.8442-.5018c0,.0189.0018.04.0018.06l.0038.11a2.6579,2.6579,0,0,0,.5088.5995,3.1421,3.1421,0,0,1,.2818.3033c.7567,1.063.8018,1.8827.1366,2.4351a1.97,1.97,0,0,1-1.1645.42.8767.8767,0,0,1-.896-.58,1.5036,1.5036,0,0,1,.0283-.7915,2.2474,2.2474,0,0,0,.0629-.4334c.0009-.2491.0112-.5336.0227-.8333a9.61,9.61,0,0,0-.1245-2.6271c-.4417-1.5712-2.4-3.1164-3.5381-3.1223a2.339,2.339,0,0,0-2.2708,1.6336l.1348.0306c.5521.3958.9338.6743,1.0044.75a3.62,3.62,0,0,1,.7087,1.2491,9.4279,9.4279,0,0,1,.3392,3.1323v.3056c0,1.9328,0,1.9328-.0058,1.95-.1072.1673-.3711.2333-.84.2333a19.2886,19.2886,0,0,1-2.7457-.3263,18.7,18.7,0,0,1-3.5728-1.0117c-.0943-.0354-.2282-.1013-.3825-.1755-.4638-.2274-1.1667-.5465-1.4078-.4122a.2873.2873,0,0,0-.1434.2037,3.0855,3.0855,0,0,0,.588,1.7408,8.23,8.23,0,0,0,1.35,1.4722,8.9648,8.9648,0,0,0,5.6581,1.8091,10.1393,10.1393,0,0,0,1.4018-.0871l.1075-.0153.0056.6489c.04,3.6382.0792,7.0856.1151,8.751V167.76l-.1092-.0147a15.7747,15.7747,0,0,0-2.0411-.1337c-4.7035,0-8.3877,2.1765-8.3877,4.9579,0,2.6665,3.019,5.0957,6.3357,5.0957a7.5212,7.5212,0,0,0,7.1459-5.7288l.0339-.1249.11.07a9.8112,9.8112,0,0,1,3.1312,3.1489c.7443,1.1836,1.4754,1.4345,1.959,1.4345a2.0465,2.0465,0,0,0,1.7911-2.226C151.6489,172.0987,148.2124,169.6,145.0288,168.513Zm-4.5557,3.8643A4.53,4.53,0,0,1,138.98,173.62a5.6848,5.6848,0,0,1-2.2181.5877c-.1528.0112-.3071.0165-.4617.0165a5.5159,5.5159,0,0,1-3.0773-.8422.5962.5962,0,0,1-.2073-.7949,3.7316,3.7316,0,0,1,2.2066-1.7226,7.2455,7.2455,0,0,1,3.07-.6142,13.4349,13.4349,0,0,1,2.95.3734C141.3661,170.8309,140.4834,172.3643,140.4731,172.3773Z"/>
    <path class="b" d="M154.44,91.6888c.0621-.45-.4089-.8771-.72-1.16-.8968-.8188-1.4425-1.3117-2.2763-2.0419-.09-.081-.19-.1838-.296-.2922a2.3394,2.3394,0,0,0-.8292-.651c-1.1709-.2676-1.8185.6416-2.4062,1.5341l-.1884.2836c-.0342.0488-.0869.1328-.1508.2364-.3789.6077-.737,1.1589-.9631,1.2325a3.6869,3.6869,0,0,1-1.0421.0263c-.1648-.0112-.3221-.0215-.4505-.0215-.5144,0-1.0061.0065-1.4887.012-.9346.0115-1.8315.0236-2.7757-.012l-.0934-.003V90.739c.0021-1.79-.0082-3.3609-.0177-4.9267-.0132-2.0411-.0265-4.0752-.0132-6.5815l.0009-.0869.0877-.0085c.6708-.0622,1.464-.09,2.494-.09.5435,0,1.1015.0077,1.666.015.9251.0115,1.8683.0235,2.7955.0059l.1148-.003c.61-.015,1.63-.0406,1.7264-.43.1357-.537-.6794-1.209-.9856-1.4613l-.0813-.0671a8.9441,8.9441,0,0,0-1.5829-1.1175l-.1375-.1546a1.3515,1.3515,0,0,0-.669-.5406,1.6026,1.6026,0,0,0-1.696.7942,3.8027,3.8027,0,0,0-.26.4805c-.3469.6964-.6369,1.2287-.9516,1.2287l-1.6283.003-.8922-.003-.0009-.096c-.0009-.7652-.0085-1.403-.0162-2.0437-.01-.8313-.02-1.6651-.0168-2.7805a1.89,1.89,0,0,1,.4909-.4043c.4051-.2573.7876-.5014.7387-1.0223-.0539-.5606-.9855-.9195-1.6018-1.158l-.1375-.0536a15.6352,15.6352,0,0,0-1.7075-.5477c-.2261-.063-.4428-.1225-.6463-.1847l.0283-.1884c1.1071-.0038,2.1877-.05,3.3325-.098,1.2014-.0507,2.4416-.1037,3.7266-.1037l.4958.003c.59.0047,1.1946.0179,1.795.0312.6934.015,1.3821.03,2.0352.033.2382.0017.487.02.7358.0386a8.1755,8.1755,0,0,0,1.02.0308c.5833-.0424,1.224-.2175,1.272-.5841.0445-.3787-.3693-.7715-.6716-1.058l-.1281-.1234a21.2759,21.2759,0,0,0-1.7573-1.52l-.5062-.4081c-.0732-.0592-.1619-.1413-.26-.2309a2.727,2.727,0,0,0-.8934-.6415,1.2668,1.2668,0,0,0-1.5847.7246l-.475.7679c-.3524.5739-.6848,1.1165-1.0685,1.6309q-2.53.0624-5.1708.132c-3.0906.0791-6.462.1443-8.9889.0359-.24-.0086-.4844-.0292-.7255-.05-.313-.0262-.6219-.0527-.9161-.0527l-.1769.0029c-.1894.01-.3958.013-.6069.016a5.8793,5.8793,0,0,0-1.5659.1507,2.7861,2.7861,0,0,1,.033.4741c.0036.128.0065.2553-.0011.3722a2.385,2.385,0,0,0,.8689.669,2.5044,2.5044,0,0,0,.9289.047c.1573-.0132.3175-.0264.4815-.0264l.4475.0038c.9594,0,1.9723-.0539,2.9513-.1066,1.2558-.0669,2.5534-.1375,3.7442-.0913l.0907.0027.0026.0907c.0857,2.5543.0989,5.6654.0368,8.3217l-.0017.0924-.0925.0017c-2.0314.05-4.1459.0066-6.0886-.0347-.6333-.0132-1.2476-.0256-1.8347-.035a.61.61,0,0,0-.3722.4025,1.1149,1.1149,0,0,0,.3778.8978c.1434.1545.6719.3383,2.3718.3383,1.272,0,2.8-.1019,3.9158-.1752.6823-.0453,1.2267-.081,1.502-.081.1422,0,.29,0,.29.1213l-.0017,3.1707c-.0039,3.0057-.0086,6.1141.0377,8.337l.0017.096-.0968.002c-1.7876.0347-3.6927.0424-5.5716.0424l-4.8119-.0068c-.0856,0-.1763-.0047-.2685-.0094-.09-.0056-.1828-.01-.2732-.01-.311,0-.4826.0689-.5769.2317a1.1553,1.1553,0,0,0,.2733.8689,2.29,2.29,0,0,0,1.7113.4665c.1487,0,.3024-.0047.4579-.0116,5.9717-.2732,12.4118-.4,20.2654-.4.6286,0,1.3.0171,1.9845.0342.5765.015,1.1625.03,1.7411.0356.1658.0009.373.0115.603.0236.2977.0161.6334.035.9632.035C153.8705,92.2336,154.384,92.0555,154.44,91.6888Z"/>
    <path class="b" d="M153.0772,108.4668l-.0924-.0742a50.4963,50.4963,0,0,0-5.3943-3.8078c-.01.0506-.3042.42-1.2558,1.941l-.132.2085c-.0895.136-.1789.2814-.2714.4334-.5032.82-1.0721,1.749-2.0824,1.785h-.0132c-.2627,0-.8451-.0189-1.5809-.043-1.2938-.0436-3.0661-.1-4.1223-.1a4.12,4.12,0,0,0-.8536.0353l-.053-.0754h-.0968v-.0106c.0038-1.0577-.015-2.0529-.036-3.0611-.015-.8044-.0309-1.6183-.0356-2.4757a2.1582,2.1582,0,0,1,.5594-.4264c.4844-.29,1.033-.6177,1.033-1.1306-.0012-.7173-1.2985-1.1284-2.2455-1.4282-.1931-.0618-.3739-.1183-.5285-.1736a34.1124,34.1124,0,0,0-3.4524-1.07,3.5521,3.5521,0,0,0-.4776.0377,2.3258,2.3258,0,0,1-.2668.03,12.1959,12.1959,0,0,0-.1027,3.4469c.2008,4.323.227,6.52.08,6.5255-1.3925.0324-2.6109.0136-3.9677-.0053-2.1907-.03-4.957-.0112-8.5337-.1319l-.2432-.0094c-.1773-.0094-.3563-.0171-.5239-.0171-.2753,0-.6557.0212-.7829.1943a4.344,4.344,0,0,0,1.6159,1.9387c.0978-.0259.2695-.0566.4429-.0883.1375-.0248.2767-.0507.4146-.0637.3833-.0459.7714-.0812,1.1457-.1095,4.291-.3168,8.8287-.3374,13.2186-.3581,1.16-.0058,2.3073-.0094,3.4371-.0211h.11l-.0132.1095c-.59,4.7606-1.2729,9.3187-3.13,12.7355l-.066.1224-.0912-.106a37.9719,37.9719,0,0,1-5.0286-8.5684l-.1037-.232a2.6185,2.6185,0,0,0-.5888-.9741,1.8514,1.8514,0,0,0-1.4322.04,1.15,1.15,0,0,0-.1923.109,10.34,10.34,0,0,1-4.2015,3.147,3.32,3.32,0,0,0,.9037,2.1878,2.1185,2.1185,0,0,0,1.4416.8745,2.5136,2.5136,0,0,0,.3786-.1131,11.48,11.48,0,0,0,1.0291-.9251c.3816-.4924.7753-.9482,1.1542-1.3816.0451-.053.0884-.1107.132-.1673a1.1961,1.1961,0,0,1,.57-.4846l.0828-.023.4,1.0012a68.2756,68.2756,0,0,0,3.8122,8.4141c.2291.3975-1.43,2.2649-2.8623,3.763a28.76,28.76,0,0,1-5.9758,4.6582c-1.1684.7108-2.1389,1.252-3.0547,1.6984-.2912.1431-2.9568,1.0176-3.4467,1.1778.0595.2544.4239.371.7576.3863l.16.0017a8.5518,8.5518,0,0,0,2.1115-.3633l.3327-.0848a46.334,46.334,0,0,0,6.8377-2.4522,28.0189,28.0189,0,0,0,5.969-3.2754,9.8761,9.8761,0,0,0,.7691-.68,8.4363,8.4363,0,0,1,.8574-.7432l.0789-.0565.0566.0795c.3074.4317.6012.871.8963,1.3114a17.22,17.22,0,0,0,3.0375,3.7254,29.2951,29.2951,0,0,0,4,2.7231l.1885.1118a3.2476,3.2476,0,0,0,1.3551.5707l.017.0942h.0009V138.68a1.5866,1.5866,0,0,0,.3213-.0359,30.5992,30.5992,0,0,1,3.9968-2.9245c.0612-.0359.3036-.1507.6407-.3015.6154-.2791,2.85-1.2662,3.4392-1.4074-.2053-.3339-1.1-.536-1.6018-.649l-.29-.066c-.4146-.1036-.8284-.1991-1.2232-.2921s-.767-.179-1.1024-.265a27.5747,27.5747,0,0,1-8.1606-3.3,13.8828,13.8828,0,0,1-3.1386-2.6476l-.0414-.0471.2865-.5819a56.1267,56.1267,0,0,0,4.0627-9.775,2.4386,2.4386,0,0,1,.5748-.2221c.737-.2114,1.6545-.4734,1.7084-1.1083.0462-.5806-.604-1.0517-1.0789-1.3945-.9743-.7066-2.03-1.3309-3.049-1.9339-.7255-.4293-1.4116-.8345-1.994-1.2225l-.2467-.1661.2976-.0112c4.1685-.1619,8.878.0583,12.1926.2432l.3562.0224c.39.0265.863.0565,1.3239.0565,1.0767,0,1.6669-.1767,1.7525-.5253C154.3322,109.452,153.5163,108.8113,153.0772,108.4668Z"/>
    <path class="b" d="M128.0156,161.2425c.033-.0624.1225-.2509.2329-.4829.2647-.56.4184-.8775.5135-1.0606a4.4609,4.4609,0,0,0-1.4454,1.0971l-.2224.22a10.1525,10.1525,0,0,0-1.8394,2.6984c-.3239.6277-.6095,1.2684-.8686,1.8691-.0471.1095-.1319.2679-.2291.447a3.3592,3.3592,0,0,0-.4981,1.2384l-.1906.0224a8.9771,8.9771,0,0,1-.0638-1.0577c0-2.8054,1.2078-5.87,2.2725-8.5719.2356-.6066.4655-1.146.6784-1.6377a9.182,9.182,0,0,0,1.0309-3.6707,6.4155,6.4155,0,0,0-3.9574-5.9914c-.29-.1371-.5974-.25-.9028-.3633a7.2283,7.2283,0,0,1-1.3924-.626.8951.8951,0,0,0-.0813.2249c-.1016.4653.4723,1.2868.8916,1.8857a6.8144,6.8144,0,0,1,.4493.6919,9.2287,9.2287,0,0,1,1.0639,3.918,16.2189,16.2189,0,0,1-.5474,3.5917l-.1649.7331c-.1979.8727-.4317,1.7638-.6711,2.6724a36.4162,36.4162,0,0,0-1.5714,9.4542c0,3.7748,1.0438,9.7633,3.846,9.7633a1.7742,1.7742,0,0,0,1.6678-1.9652,3.66,3.66,0,0,0-.3053-1.3851c-.7989-1.9468-.31-4.0068.164-5.9984.083-.3522.1658-.7009.24-1.0459.0857-.3958.1658-.7938.2459-1.1908A20.7245,20.7245,0,0,1,128.0156,161.2425Z"/>
    <path class="b" d="M117.5212,92.551c.0942.0595.1846.1169.2676.1746.2524.1735.5371.3654.83.5618l.21.1449c.4788.3333,1.1422.8068,1.6557.7385.4287-.0566.8056-.7444,1.0156-1.37.4637-1.3485.8179-2.8261,1.161-4.2545.146-.6107.2891-1.2031.4325-1.7564.311-1.1768.5783-2.5393.8386-3.8584.1619-.816.323-1.6366.4964-2.4271l.0424-.1735c.096-.3712.35-1.3568.1431-1.6245a.1355.1355,0,0,0-.1186-.0553c-.4108.0724-.7123.8583-.8742,1.28l-.0775.2a34.5512,34.5512,0,0,1-6.3412,10.5012,7.9162,7.9162,0,0,1-.5833.568,1.3869,1.3869,0,0,0-.0254.3863C116.6779,92.0157,117.1255,92.3,117.5212,92.551Z"/>
    <path class="b" d="M153.8387,15.8618a1.8217,1.8217,0,0,0,1.5885-.899,2.3853,2.3853,0,0,0,.111-2.2669,3.0986,3.0986,0,0,0-.9988-1.093,9.5965,9.5965,0,0,0-5.5618-1.2505l-.2291.0105c-.8347.033-2.0955.0837-2.0767.8584l-.0677.1242.0942-.0206c.0454.0027.6484.1864,1.0476.3071.3311.1007.6258.19.7011.2253a7.5339,7.5339,0,0,1,1.6275.9722,7.6381,7.6381,0,0,1,1.13,1.2343c.6822.8631,1.3871,1.7556,2.5611,1.797l.0668.0884.0068-.0009v-.0865Z"/>
    <path class="b" d="M115.256,72.6879a.8976.8976,0,0,0-.0771.2317,8.9187,8.9187,0,0,1,1.55-.1773,3.1943,3.1943,0,0,1,1.0883.1688,6.5436,6.5436,0,0,1,1.6713,1.0526,4.4673,4.4673,0,0,0,2.4442,1.2258,1.9824,1.9824,0,0,0,1.2288-.4609,1.9142,1.9142,0,0,0,.4607-1.3585,2.8666,2.8666,0,0,0-.7982-2.141,3.36,3.36,0,0,0-2.8511-.9225,8.2331,8.2331,0,0,0-3.7492,1.5795l-.1885.1289A2.695,2.695,0,0,0,115.256,72.6879Z"/>
    <path class="b" d="M118.1619,60.4332a4.7223,4.7223,0,0,1,3.32,3.4315c.3533.5919.8009,1.2561,1.52,1.3607a2.3076,2.3076,0,0,0,2.0211-.6934,2.5268,2.5268,0,0,0,.6634-1.9034,2.8512,2.8512,0,0,0-1.0252-1.9242,6.2032,6.2032,0,0,0-3.52-.9166c-.1157,0-.2317.0027-.3448.0074C119.22,59.8555,118.1864,60.1052,118.1619,60.4332Z"/>
    <path class="b" d="M143.21,14.51c-.6278.0471-1.487.1111-1.5735.6481a.597.597,0,0,0,.0017.164l.2373.0218a5.8762,5.8762,0,0,1,3.3376,1.7685,9.8732,9.8732,0,0,1,.7341,1.0308,4.5711,4.5711,0,0,0,1.8232,1.9,2.1652,2.1652,0,0,0,2.67-.9864A2.67,2.67,0,0,0,149.4,15.8785a8.7123,8.7123,0,0,0-5.1588-1.41c-.3062,0-.616.0111-.9269.0338Z"/>
    <path class="b" d="M120.4948,40.765c0,6.4354,10.6888,7.8449,14.8081,7.8449,6.49,0,11.7706-1.8249,11.7706-4.0675,0-1.143-1.2308-1.9118-3.0623-1.9118a11.088,11.088,0,0,0-1.2484.1054,12.1705,12.1705,0,0,0-1.8554.5353,20.1929,20.1929,0,0,1-2.7872.8018,20.808,20.808,0,0,1-4.1082.4034c-3.5861,0-8.1182-.803-10.0837-3.0567a4.1759,4.1759,0,0,1-.9854-3.458,3.542,3.542,0,0,1,.5285-2.0608C122.4508,36.1733,120.4948,38.364,120.4948,40.765Z"/>
    <path class="b" d="M47.2259,30.0215c-2.02,0-2.4451.4731-2.5346.8141a11.37,11.37,0,0,1,1.8353.9272,6.1212,6.1212,0,0,1,1.0723,1.1242,4.82,4.82,0,0,1,1.39,1.8477c.1807.1875.3571.3748.5181.5671a2.45,2.45,0,0,0,1.8121.9478,2.2312,2.2312,0,0,0,2.0991-2.3347C53.4181,31.98,51.2878,30.0215,47.2259,30.0215Zm5.0907-7.5859a7.5959,7.5959,0,0,1-.8987-.0565,14.1443,14.1443,0,0,0-2.3971-.1923,15.4368,15.4368,0,0,0-6.3527,1.2261c-2.8879,1.544-5.4226,8.2339-5.4226,14.3143,0,8.2474,4.7171,9.1379,6.7438,9.1379a8.1386,8.1386,0,0,0,2.5214-.427A4.2893,4.2893,0,0,1,47.9,46.2205c1.5282,0,2.6815.9148,2.6815,2.1274,0,2.54-4.4585,3.0952-6.1772,3.0952-1.714,0-10.2686-.5889-10.2686-12.2452a30.3858,30.3858,0,0,1,.9516-7.4133A27.1511,27.1511,0,0,1,36.1178,28.51c.048-.1225.1093-.3007.1829-.5118.2561-.7491.734-2.1427,1.15-2.3462l-.1366-.2779h0a9.0467,9.0467,0,0,1-1.1148.43c-.341.116-.6849.2329-1.0129.3769-.9222.42-1.8353.8612-2.7455,1.3088l-.3289.162c-2.0278,1-3.7783,1.8646-6.0653,1.8646l-.2108-.0038c-1.212-.027-4.0292-.3709-4.0292-2.9585a.9438.9438,0,0,1,.3327-.801,4.0353,4.0353,0,0,0,2.5988.8227H24.74c2.3971,0,5.3047-1.4425,7.4274-2.4969.5448-.2724,1.0432-.5182,1.4711-.7123l1.6412-.7452A65.94,65.94,0,0,1,45.72,18.56a8.6381,8.6381,0,0,0,.8273-.2686,13.0609,13.0609,0,0,1,3.02-.6145c.4125-.0377.8386-.0592,1.2606-.0592,1.6924,0,4.5332.3654,4.5332,2.8208C55.3611,21.4321,54.4207,22.4356,52.3166,22.4356Zm6.8114,8.14a2.1311,2.1311,0,0,1-2.0558,2.2407c-1.8665,0-2.544-2.1229-3.493-3.3354-.8687-1.111-2.0765-1.2373-3.2543-1.7714.2109-.7568,1.5744-.9329,2.7455-.9329C56.0867,26.7766,59.128,27.9524,59.128,30.5756Z"/>
    <path class="b" d="M59.9687,70.3643c.0009-2.0655-3.1877-3.377-5.3916-3.4948a4.2785,4.2785,0,0,0-.5286-.0008,11.638,11.638,0,0,1-4.2071-.5409,8.5455,8.5455,0,0,1-1.8826-.8463,7.26,7.26,0,0,1-.6661-.5718,7.4806,7.4806,0,0,0-.5906-.5135l-.0133.0009c.1517.8921,1.6489,2.9783,2.4987,2.9783v.0009l.0188-.0026.0133.3109c-1.1646.048-2.3217.1216-3.5364.2064l-.1872.013.0235-.1864c.129-1.0527.2892-2.0892.4909-3.168a8.971,8.971,0,0,0,.1545-1.4331,3.5529,3.5529,0,0,0-3.72-3.8555,2.43,2.43,0,0,0-2.0429.833,13.1849,13.1849,0,0,1,1.245,1.5536,7.1344,7.1344,0,0,1,.5358,2.3443c.0039.0415.2848,4.1685-.1062,4.2127-2.5167.2706-4.9158.5945-7.7914.9932L33.13,69.355c-1.0864.149-2.1821.2988-3.2939.4381a16.4987,16.4987,0,0,1-2.0673.1284,9.8133,9.8133,0,0,1-1.2609-.0783l-.1092-.0017a1.2537,1.2537,0,0,1-.3166-.0295,16.4631,16.4631,0,0,1-2.3508-.7962,1.023,1.023,0,0,0-.555,1.0432c0,2.3462,2.8567,3.98,5.4225,3.98a8.27,8.27,0,0,0,3.1865-.657,39.7751,39.7751,0,0,1,10.2763-2.5779l.1695-.0188.0027.1705c.0321,1.8524.0613,3.5531.0707,4.9591l.002.2026-.1969-.0527a5.7473,5.7473,0,0,0-1.5085-.2026,4.3443,4.3443,0,0,0-4.5389,4.7261,9.6509,9.6509,0,0,0,1.8827,5.5139,3.0654,3.0654,0,0,0,2.5817,1.3945,3.3978,3.3978,0,0,0,.714-.06c.0566-.01.11-.0262.1631-.0394a1.4525,1.4525,0,0,1,.3581-.0622l.1725-.0047-.0132.1705c-.1528,2.0571-1.6471,3.9347-3.034,5.5359A15.0591,15.0591,0,0,1,36.69,94.9811l-.5192.4052a11.3066,11.3066,0,0,1-1.5706.9969,3.3229,3.3229,0,0,0-.73.467c.0133.0024.05.0271.1328.0607a.9382.9382,0,0,0,.3174.043,12.293,12.293,0,0,0,3.1821-.84A13.7078,13.7078,0,0,0,40.88,94.2049a15.8906,15.8906,0,0,0,4.8552-6.1531,13.0039,13.0039,0,0,0,1.1722-5.2388,6.5226,6.5226,0,0,0-1.5894-4.7338l-.0386-.096-.0171-.41c-.0453-.9961-.1036-2.236-.1036-3.6691,0-1.02.032-2.0955.0933-3.1959l.0074-.1426.1425-.0034c.5135-.0142,1.0155-.0142,1.5008-.0142a34.1562,34.1562,0,0,1,9.7512,1.3265,3.1046,3.1046,0,0,0,2.7107-.2806A1.4945,1.4945,0,0,0,59.9687,70.3643ZM41.0457,83.5509c-2.2961,0-2.5234-3.6267-2.5234-3.6626,0-1.1174.5523-1.7855,1.4767-1.7855a2.7176,2.7176,0,0,1,2.397,1.5914,6.1071,6.1071,0,0,1,.1307,1.242C42.5267,83.0986,41.7224,83.5509,41.0457,83.5509Z"/>
    <path class="b" d="M41.54,111.4873a5.7031,5.7031,0,0,0-1.4943.1978l-.2733.066.09-.2638a20.6375,20.6375,0,0,0,1.1419-5.1352c0-2.5871-1.5529-3.5093-3.0057-3.5093a5.07,5.07,0,0,0-3.165,1.4175,4.3593,4.3593,0,0,1,1.8346,2.5064,3.2029,3.2029,0,0,1,.3025,1.6071,19.3816,19.3816,0,0,1-.7332,4.5062l-.0227.0812-.0771.0242c-.4258.1431-.8866.3245-1.371.5129a13.2658,13.2658,0,0,1-4.5162,1.1831,4.1814,4.1814,0,0,1-1.2691-.1831,10.9015,10.9015,0,0,1-2.6648-2.0765,2.96,2.96,0,0,0-.4746,1.9769,4.0007,4.0007,0,0,0,4.2,3.9721,13.9071,13.9071,0,0,0,4.1243-1.1925l.3805-.16-.1838.3716a102.3816,102.3816,0,0,1-8.2151,13.157,6.4409,6.4409,0,0,0-1.5453,3.4427,1.5262,1.5262,0,0,0,1.6233,1.6678c1.0592,0,2.6027-.88,3.6662-2.8515.6107-1.1283,1.29-2.4227,2.0052-3.8119l.197-.3822.0913.4182c.0633.2862.1678.656.3091,1.1472a5.6554,5.6554,0,0,1,.2083,1.4686c.0556,1.1284.1206,2.4081,1.8579,2.9622a5.5061,5.5061,0,0,0,1.9195.3168c5.0221,0,10.36-5.3089,10.36-15.1458C46.84,114.2763,45.0549,111.4873,41.54,111.4873Zm-4.2751,19.2256a2.9355,2.9355,0,0,1-1.3247-.3922,2.362,2.362,0,0,1-.63-.2567,4.2038,4.2038,0,0,1-2.4507-1.7538,1.0239,1.0239,0,0,1-.0527-.6843l-.2043-.0188.1045-.2014c1.3058-2.5764,3.7689-7.5379,5.5844-11.8274,1.8845-1.33,2.8062-1.3945,2.9728-1.3945,1.3418,0,2.0514,1.6189,2.0514,4.6758C43.3147,124.4541,40.7271,130.7129,37.2644,130.7129ZM55.22,125.0537h-.1075c-.457.0152-.9649.03-1.5294.03-1.1127,0-2.0343-.0642-2.0343-.8439a.6177.6177,0,0,1,.0659-.2627c.1208-.0241.4052-.073.7255-.1236.6926-.119,1.1967-.2062,1.3542-.26a13.3913,13.3913,0,0,0,1.8609-.7467c1.613-.8233,2.43-1.8256,2.43-2.9775,0-2.8037-2.4557-4.96-7.5079-6.5839.0887-.3392.4665-.5111,1.13-.5111,6.2431,0,10.7753,3.2943,10.7753,7.83a5.1275,5.1275,0,0,1-1.9684,4.28,2.996,2.996,0,0,1-1.8241.5654,9.1113,9.1113,0,0,1-1.5847-.1908A10.441,10.441,0,0,0,55.22,125.0537Z"/>
    <path class="b" d="M79.5553,11.9412c.3976-2.55,3.28-3.8832,4.5566-3.9235-.36-1.3825-.4437-7.3194,1.2888-8.0167,0,0,1.4746-.21,1.01,5.4564,0,0-.3628,1.3683-.7452,2.4857l1.2237.3045C90.2.8952,93.3179,1.763,93.3179,1.763,95.5162,3.23,88.75,9.6044,88.75,9.6044c.7794,1.6649-.0047,4.4333-.0047,4.4333a6.9292,6.9292,0,0,1,5.1414,1.5847c1.9692-1.338,2.6853.4,2.6853.4.4938,1.5406-1.3209,2.1548-1.3209,2.1548,1.61,2.2078.9864,3.1414.6228,3.5334-.4618.38-2.3774-.992-2.3774-.992-1.15-.2244-2.0668-.8981-3.35-.9679A15.6428,15.6428,0,0,0,82.6327,21.29c-1.3145.651-2.2764.931-2.7959.5212-.6274-2.1495,3.3809-5.465,3.3809-5.465.5436-.4938-.3958-.6454-.3958-.6454A3.4075,3.4075,0,0,1,79.5553,11.9412Zm21.8914,19.6331a11.8653,11.8653,0,0,1-1.5294,6.2641C94.804,47.5641,80.0925,51.9738,77.9194,52.0953c-.5795.0322-.7187-.262-.7329-.5164-.017-.3006-.033-.5851,2.2452-1.57,7.2393-3.0726,17.3359-9.9132,17.3359-18.2314,0-4.238-4.2195-6.0247-6.3683-5.9021a12.8534,12.8534,0,0,0-5.7382,1.9927,8.4629,8.4629,0,0,1-4.286,1.6472c-3.2348.1819-5.5942-1.5791-5.69-3.2752a1.98,1.98,0,0,1,1.46-2.0549,1.1485,1.1485,0,0,1,1.0647.7234c.3428.4579,1.2437.5174,1.9334.4788a17.2329,17.2329,0,0,0,3.9988-.8754l.1084-.0347a34.97,34.97,0,0,1,7.4852-1.487C96.9313,22.64,101.1914,27.0791,101.4467,31.5743Z"/>
    <path class="b" d="M9.5262,93.363c0-3.57,1.0023-7.23,2.1436-7.832a.5685.5685,0,0,1,.6378.0518.2935.2935,0,0,0,.17.0538.3045.3045,0,0,0,.2506-.1318.3009.3009,0,0,0-.08-.4223c-1.13-.7735-2.285-3.0652-2.8173-6.0556a1.418,1.418,0,0,0,.391-2.3058,1.79,1.79,0,0,0,.79-1.4849c0-.9894-.8018-1.2173-1.7893-1.2173-.9894,0-1.7912.2279-1.7912,1.2173a1.7881,1.7881,0,0,0,.7915,1.4849,1.4181,1.4181,0,0,0,.3911,2.3058c-.5315,2.99-1.6866,5.2821-2.8164,6.0527a.3041.3041,0,0,0-.1328.2517.2912.2912,0,0,0,.0527.1705.3031.3031,0,0,0,.2506.1328.3062.3062,0,0,0,.17-.0527.57.57,0,0,1,.6372-.0536c1.1419.6048,2.1445,4.2645,2.1445,7.8347a.3034.3034,0,0,0,.6068,0Z"/>
    <path class="b" d="M9.2406,58.3354a.1959.1959,0,0,0,.0377.0077,1.1141,1.1141,0,0,0,.93-1.3569c-.3551-.81.4128.081,1.113-.1516.4549-.1516.9205-.8763.3033-.8613-1.3162.036-1.7131-2.4309-1.8241-4.2936-.0095-.1849-.0218-.4052-.0312-.6372a5.3879,5.3879,0,0,1,3.7556-3.4165.95.95,0,0,0-.09.2377.9721.9721,0,1,0,1.7744-.2989.9348.9348,0,0,0,.26.1037.9724.9724,0,1,0-.6935-1.29.9694.9694,0,1,0-1.4048.7785,5.144,5.144,0,0,0-1.1636.4408c-.7032.3657-2.5084-1.1581-2.4086-2.46A4.4887,4.4887,0,0,1,11.19,42.0669a1.1008,1.1008,0,0,1,1.4961.1584,1.3044,1.3044,0,0,1,.0377,1.3972c-.1328.2988.2488.5323.6869.4051a2.5676,2.5676,0,0,0,1.5538-2.3262,2.3609,2.3609,0,0,0-2.723-2.3349,3.5381,3.5381,0,0,0-1.9051,1.5564,10.7308,10.7308,0,0,1,.403-1.6224c.5551-1.4689-.8112-5.2482-1.4613-5.2482a.2123.2123,0,0,0-.0377.0124.21.21,0,0,0-.0377-.0124c-.65,0-2.0163,3.7793-1.4613,5.2482a10.7282,10.7282,0,0,1,.4031,1.6224A3.5381,3.5381,0,0,0,6.24,39.3665a2.3624,2.3624,0,0,0-2.7248,2.3349,2.5652,2.5652,0,0,0,1.5535,2.3262c.4393.1284.8209-.1063.6878-.4051a1.3016,1.3016,0,0,1,.0377-1.3972,1.1,1.1,0,0,1,1.4973-.1564,4.482,4.482,0,0,1,1.3918,3.0688c.1,1.302-1.7054,2.8258-2.4085,2.46a5.2014,5.2014,0,0,0-1.1655-.4408.97.97,0,1,0-1.4057-.7785.97.97,0,1,0-.6925,1.29.946.946,0,0,0,.26-.1037.9713.9713,0,1,0,1.774.2989.9026.9026,0,0,0-.09-.2377,5.3857,5.3857,0,0,1,3.7578,3.4186c-.0094.23-.0218.45-.0312.6351-.111,1.8627-.5079,4.33-1.8241,4.2936-.6172-.0141-.1517.71.3032.8613.7.2326,1.469-.6578,1.1131.1516a1.114,1.114,0,0,0,.93,1.3569A.1944.1944,0,0,0,9.2406,58.3354Z"/>
    <line class="d" x1="9.2029" y1="59.7225" x2="9.2029" y2="73.6108"/>
    <path class="b" d="M9.5262,124.6578c0,3.5686,1.0023,7.2287,2.1436,7.8317a.5686.5686,0,0,0,.6378-.0525.289.289,0,0,1,.17-.0529.3046.3046,0,0,1,.2506.1319.3.3,0,0,1-.08.4216c-1.13.7727-2.285,3.0647-2.8173,6.055a1.4189,1.4189,0,0,1,.391,2.3067,1.7888,1.7888,0,0,1,.79,1.4847c0,.9893-.8018,1.2178-1.7893,1.2178-.9894,0-1.7912-.2285-1.7912-1.2178a1.7856,1.7856,0,0,1,.7915-1.4847,1.419,1.419,0,0,1,.3911-2.3067c-.5315-2.99-1.6866-5.2823-2.8164-6.0526a.3028.3028,0,0,1-.1328-.2509.2935.2935,0,0,1,.0527-.1714.3045.3045,0,0,1,.2506-.1319.3012.3012,0,0,1,.17.0524.57.57,0,0,0,.6372.053c1.1419-.6047,2.1445-4.2648,2.1445-7.8334a.3034.3034,0,1,1,.6068,0Z"/>
    <path class="b" d="M9.2406,159.6841a.1636.1636,0,0,1,.0377-.0076,1.1135,1.1135,0,0,1,.93,1.3568c-.3551.81.4128-.0807,1.113.1507.4549.1526.9205.8763.3033.8616-1.3162-.0365-1.7131,2.4309-1.8241,4.2925-.0095.1866-.0218.4069-.0312.6365a5.3875,5.3875,0,0,0,3.7556,3.4192.9707.9707,0,1,1,1.684.06.9082.9082,0,0,1,.26-.1037.9722.9722,0,1,1-.6935,1.2909.9693.9693,0,1,1-1.4048-.7786,5.2594,5.2594,0,0,1-1.1636-.4405c-.7032-.3662-2.5084,1.1566-2.4086,2.4592a4.4813,4.4813,0,0,0,1.3919,3.0694,1.1,1.1,0,0,0,1.4961-.1567,1.3058,1.3058,0,0,0,.0377-1.398c-.1328-.298.2488-.5312.6869-.4051a2.569,2.569,0,0,1,1.5538,2.3273,2.3628,2.3628,0,0,1-2.723,2.3349,3.5437,3.5437,0,0,1-1.9051-1.5564,10.7957,10.7957,0,0,0,.403,1.6224c.5551,1.4681-.8112,5.2465-1.4613,5.2465a.2693.2693,0,0,1-.0377-.0118.2652.2652,0,0,1-.0377.0118c-.65,0-2.0163-3.7784-1.4613-5.2465a10.7931,10.7931,0,0,0,.4031-1.6224A3.5437,3.5437,0,0,1,6.24,178.653a2.3634,2.3634,0,0,1-2.7248-2.3349,2.5667,2.5667,0,0,1,1.5535-2.3273c.4393-.1284.8209.1071.6878.4051a1.3029,1.3029,0,0,0,.0377,1.398,1.1015,1.1015,0,0,0,1.4973.1567,4.485,4.485,0,0,0,1.3918-3.0694c.1-1.3026-1.7054-2.8254-2.4085-2.4592a5.274,5.274,0,0,1-1.1655.4405.9694.9694,0,1,1-1.4057.7786.97.97,0,1,1-.6925-1.2909.9187.9187,0,0,1,.26.1037.9714.9714,0,1,1,1.774-.298.9285.9285,0,0,1-.09.2379,5.3866,5.3866,0,0,0,3.7578-3.4192c-.0094-.23-.0218-.45-.0312-.6365-.111-1.8616-.5079-4.329-1.8241-4.2925-.6172.0147-.1517-.709.3032-.8616.7-.2314,1.469.6578,1.1131-.1507a1.1134,1.1134,0,0,1,.93-1.3568A.1625.1625,0,0,1,9.2406,159.6841Z"/>
    <line class="d" x1="9.2029" y1="158.2967" x2="9.2029" y2="144.4087"/>
    <path class="b" d="M170.273,93.363c0-3.57,1.0026-7.23,2.1427-7.832a.57.57,0,0,1,.6387.0518.2982.2982,0,0,0,.4183-.078.3.3,0,0,0-.0771-.4223c-1.1307-.7735-2.2858-3.0652-2.8173-6.0556a1.4189,1.4189,0,0,0,.39-2.3058,1.79,1.79,0,0,0,.7894-1.4849c0-.9894-.8009-1.2173-1.79-1.2173s-1.79.2279-1.79,1.2173a1.7878,1.7878,0,0,0,.7915,1.4849,1.418,1.418,0,0,0,.3919,2.3058c-.5312,2.99-1.6866,5.2821-2.819,6.0527a.3076.3076,0,0,0-.132.2517.2873.2873,0,0,0,.0548.1705.2962.2962,0,0,0,.2485.1328.31.31,0,0,0,.1717-.0527.5691.5691,0,0,1,.6369-.0536c1.1418.6048,2.1444,4.2645,2.1444,7.8347a.3035.3035,0,0,0,.6069,0Z"/>
    <path class="b" d="M169.9865,58.3354a.2253.2253,0,0,0,.0377.0077,1.1153,1.1153,0,0,0,.931-1.3569c-.3563-.81.4126.081,1.1119-.1516.4561-.1516.9195-.8763.3032-.8613-1.3153.036-1.7127-2.4309-1.8241-4.2936-.0094-.1849-.0206-.4052-.03-.6372A5.387,5.387,0,0,1,174.27,47.626a.9823.9823,0,0,0-.0883.2377.9719.9719,0,0,0,1.8974.4219.9886.9886,0,0,0-.1243-.7208.9559.9559,0,0,0,.2621.1037.9723.9723,0,1,0-.6937-1.29.97.97,0,1,0-1.4057.7785,5.1469,5.1469,0,0,0-1.1628.4408c-.7046.3657-2.51-1.1581-2.41-2.46a4.488,4.488,0,0,1,1.3924-3.0708,1.1013,1.1013,0,0,1,1.4964.1584,1.3014,1.3014,0,0,1,.0377,1.3972c-.1319.2988.2488.5323.6858.4051a2.5626,2.5626,0,0,0,1.5529-2.3262,2.36,2.36,0,0,0-2.7231-2.3349,3.5372,3.5372,0,0,0-1.9033,1.5564,10.5756,10.5756,0,0,1,.4034-1.6224c.5539-1.4689-.8124-5.2482-1.4625-5.2482a.1909.1909,0,0,0-.0377.0124.1789.1789,0,0,0-.0377-.0124c-.65,0-2.0164,3.7793-1.46,5.2482a10.7822,10.7822,0,0,1,.4034,1.6224,3.549,3.549,0,0,0-1.9053-1.5564,2.3618,2.3618,0,0,0-2.7249,2.3349,2.5627,2.5627,0,0,0,1.553,2.3262c.439.1284.8215-.1063.6878-.4051a1.3008,1.3008,0,0,1,.0377-1.3972,1.0987,1.0987,0,0,1,1.4961-.1564,4.4745,4.4745,0,0,1,1.3927,3.0688c.1,1.302-1.7055,2.8258-2.4065,2.46a5.26,5.26,0,0,0-1.1684-.4408.97.97,0,1,0-1.4039-.7785.97.97,0,1,0-.6917,1.29.935.935,0,0,0,.2583-.1037.9886.9886,0,0,0-.1243.7208.9719.9719,0,1,0,1.8974-.4219.9127.9127,0,0,0-.0883-.2377,5.3821,5.3821,0,0,1,3.7557,3.4186c-.01.23-.0209.45-.03.6351-.1109,1.8627-.5067,4.33-1.8241,4.2936-.6162-.0141-.1507.71.3036.8613.7008.2326,1.4678-.6578,1.1136.1516a1.113,1.113,0,0,0,.929,1.3569A.1651.1651,0,0,0,169.9865,58.3354Z"/>
    <line class="d" x1="169.9488" y1="59.7225" x2="169.9488" y2="73.6108"/>
    <path class="b" d="M170.273,124.6578c0,3.5686,1.0026,7.2287,2.1427,7.8317a.57.57,0,0,0,.6387-.0525.2913.2913,0,0,1,.1695-.0529.3039.3039,0,0,1,.1717.5535c-1.1307.7727-2.2858,3.0647-2.8173,6.055a1.42,1.42,0,0,1,.39,2.3067,1.7885,1.7885,0,0,1,.7894,1.4847c0,.9893-.8009,1.2178-1.79,1.2178s-1.79-.2285-1.79-1.2178a1.7853,1.7853,0,0,1,.7915-1.4847,1.4189,1.4189,0,0,1,.3919-2.3067c-.5312-2.99-1.6866-5.2823-2.819-6.0526a.3064.3064,0,0,1-.132-.2509.29.29,0,0,1,.0548-.1714.2975.2975,0,0,1,.2485-.1319.305.305,0,0,1,.1717.0524.57.57,0,0,0,.6369.053c1.1418-.6047,2.1444-4.2648,2.1444-7.8334a.3035.3035,0,1,1,.6069,0Z"/>
    <path class="b" d="M169.9865,159.6841a.1831.1831,0,0,1,.0377-.0076,1.1147,1.1147,0,0,1,.931,1.3568c-.3563.81.4126-.0807,1.1119.1507.4561.1526.9195.8763.3032.8616-1.3153-.0365-1.7127,2.4309-1.8241,4.2925-.0094.1866-.0206.4069-.03.6365a5.3866,5.3866,0,0,0,3.7536,3.4192,1.0126,1.0126,0,0,1-.0883-.2379.9718.9718,0,1,1,1.8974-.4217.9852.9852,0,0,1-.1243.72.9283.9283,0,0,1,.2621-.1037.9721.9721,0,1,1-.6937,1.2909.97.97,0,1,1-1.4057-.7786,5.2626,5.2626,0,0,1-1.1628-.4405c-.7046-.3662-2.51,1.1566-2.41,2.4592a4.4806,4.4806,0,0,0,1.3924,3.0694,1.1,1.1,0,0,0,1.4964-.1567,1.3027,1.3027,0,0,0,.0377-1.398c-.1319-.298.2488-.5312.6858-.4051a2.564,2.564,0,0,1,1.5529,2.3273,2.362,2.362,0,0,1-2.7231,2.3349,3.5429,3.5429,0,0,1-1.9033-1.5564,10.6387,10.6387,0,0,0,.4034,1.6224c.5539,1.4681-.8124,5.2465-1.4625,5.2465a.2367.2367,0,0,1-.0377-.0118.219.219,0,0,1-.0377.0118c-.65,0-2.0164-3.7784-1.46-5.2465a10.8478,10.8478,0,0,0,.4034-1.6224,3.5547,3.5547,0,0,1-1.9053,1.5564,2.3627,2.3627,0,0,1-2.7249-2.3349,2.5641,2.5641,0,0,1,1.553-2.3273c.439-.1284.8215.1071.6878.4051a1.302,1.302,0,0,0,.0377,1.398,1.1,1.1,0,0,0,1.4961.1567,4.4775,4.4775,0,0,0,1.3927-3.0694c.1-1.3026-1.7055-2.8254-2.4065-2.4592a5.3342,5.3342,0,0,1-1.1684.4405.9691.9691,0,1,1-1.4039.7786.9705.9705,0,1,1-.6917-1.2909.9081.9081,0,0,1,.2583.1037.97.97,0,0,1,1.0382-1.4588.9711.9711,0,0,1,.7349,1.1608.9389.9389,0,0,1-.0883.2379,5.383,5.383,0,0,0,3.7557-3.4192c-.01-.23-.0209-.45-.03-.6365-.1109-1.8616-.5067-4.329-1.8241-4.2925-.6162.0147-.1507-.709.3036-.8616.7008-.2314,1.4678.6578,1.1136-.1507a1.1124,1.1124,0,0,1,.929-1.3568A.1419.1419,0,0,1,169.9865,159.6841Z"/>
    <line class="d" x1="169.9488" y1="158.2967" x2="169.9488" y2="144.4087"/>
    <path class="b" d="M62.82,141.5877c-4.414-4.6845-10.5683-5.93-13.9819-2.7153a4.5216,4.5216,0,0,0-.42,6.5772,4.4076,4.4076,0,0,0,6.4581.0155c1.82-1.7134,1.5471-2.92,1.035-5.097a.4952.4952,0,0,1,.0585-.487c.1829-.1718,1.7356-.3461,3.323,1.3388,3.0012,3.183.3289,6.7293-1.8573,8.7875-1.7293,1.6307-3.7569,2.9384-8.4641,5.0517-6.0047,2.6482-7.0019,3.5056-11.0894,7.1808l-.0036.0008a1.0636,1.0636,0,0,0,1.4557,1.5511c4.9143-4.63,7.6375-5.5624,13.4576-4.9456,4.1455.3878,7.2789.617,10.4193-2.3416C66.6707,153.2482,68.1755,147.2806,62.82,141.5877ZM26.8149,169.8222c-.1122.1206-.2281.2387-.3458.3636-.66.69.0651,2.444,1.6093,3.9216,1.5477,1.4768,3.3364,2.115,3.9958,1.4264.1147-.1225.23-.2431.345-.3623a4.7382,4.7382,0,0,0,1.9415-.414c1.5876.55,3.5729.8505,5.1528-.8053a2.2386,2.2386,0,0,0,.69-1.7267,3.02,3.02,0,0,0-.9358-1.8337c.2195-.2306.4379-.4579.6571-.6887.662-.69-.5906-2.9583-2.802-5.0678-2.207-2.1072-4.5315-3.2567-5.1924-2.5652-.8045.8449-1.5228,1.592-2.5091,2.6254C28.7578,165.3913,26.6858,167.31,26.8149,169.8222Zm8.73,4.245a12.7823,12.7823,0,0,0,1.8746-1.74c.4294-.4487.804-.8422,1.1629-1.2183a2.0037,2.0037,0,0,1,.6244,1.1864,1.2752,1.2752,0,0,1-.41.9686A3.1981,3.1981,0,0,1,35.5449,174.0672Zm-2.8142-11.2364c.3677-.3894,2.1039.6629,3.87,2.351,1.768,1.6882,2.9015,3.3715,2.53,3.7623-.37.3874-2.1061-.6651-3.8719-2.3523C33.4866,164.9036,32.36,163.2162,32.7307,162.8308Z"/>
    <path class="e" d="M11.2572,206.5853a11.3063,11.3063,0,0,0-.685-2.8915,9.0475,9.0475,0,0,1-.76-2.6609.588.588,0,0,1,.5311-.6091c1.2189,0,3.425,4.1075,5.5541,4.1075a2.3043,2.3043,0,0,0,2.3566-2.2827c0-3.5744-6.9969-2.204-6.9969-3.8791,0-1.6733,6.9969-.3043,6.9969-3.8793a2.3036,2.3036,0,0,0-2.3566-2.28c-2.1291,0-4.3352,4.1062-5.5541,4.1062a.5864.5864,0,0,1-.5311-.6074,9.0673,9.0673,0,0,1,.76-2.663,11.2763,11.2763,0,0,0,.685-2.8893,1.9344,1.9344,0,0,0-2.0543-2.13,2.0108,2.0108,0,0,0-2.2047,2.13,9.0824,9.0824,0,0,0,.76,2.8893,11.4438,11.4438,0,0,1,.685,2.663.587.587,0,0,1-.5332.6074c-1.2161,0-3.4221-4.1062-5.552-4.1062A2.3048,2.3048,0,0,0,0,194.49c0,3.575,6.9982,2.206,6.9982,3.8793,0,1.6751-6.9982.3047-6.9982,3.8791a2.3055,2.3055,0,0,0,2.3579,2.2827c2.13,0,4.3359-4.1075,5.552-4.1075a.5886.5886,0,0,1,.5332.6091,11.4169,11.4169,0,0,1-.685,2.6609,9.1047,9.1047,0,0,0-.76,2.8915,2.0107,2.0107,0,0,0,2.2047,2.13A1.9344,1.9344,0,0,0,11.2572,206.5853Z"/>
    <path class="f" d="M11.2572,117.2667a11.3057,11.3057,0,0,0-.685-2.8914,9.0484,9.0484,0,0,1-.76-2.6609.588.588,0,0,1,.5311-.6091c1.2189,0,3.425,4.1075,5.5541,4.1075a2.3043,2.3043,0,0,0,2.3566-2.2827c0-3.5744-6.9969-2.204-6.9969-3.8791,0-1.6733,6.9969-.3043,6.9969-3.8793a2.3036,2.3036,0,0,0-2.3566-2.28c-2.1291,0-4.3352,4.1062-5.5541,4.1062a.5864.5864,0,0,1-.5311-.6074,9.0665,9.0665,0,0,1,.76-2.663,11.276,11.276,0,0,0,.685-2.8894,1.9344,1.9344,0,0,0-2.0543-2.13,2.0108,2.0108,0,0,0-2.2047,2.13,9.0822,9.0822,0,0,0,.76,2.8894,11.4426,11.4426,0,0,1,.685,2.663.587.587,0,0,1-.5332.6074c-1.2161,0-3.4221-4.1062-5.552-4.1062A2.3048,2.3048,0,0,0,0,105.1717c0,3.575,6.9982,2.206,6.9982,3.8793,0,1.6751-6.9982.3047-6.9982,3.8791a2.3055,2.3055,0,0,0,2.3579,2.2827c2.13,0,4.3359-4.1075,5.552-4.1075a.5886.5886,0,0,1,.5332.6091,11.4181,11.4181,0,0,1-.685,2.6609,9.1042,9.1042,0,0,0-.76,2.8914,2.0108,2.0108,0,0,0,2.2047,2.13A1.9344,1.9344,0,0,0,11.2572,117.2667Z"/>
    <path class="g" d="M11.2572,27.667a11.3057,11.3057,0,0,0-.685-2.8914,9.0484,9.0484,0,0,1-.76-2.6609.588.588,0,0,1,.5311-.6091c1.2189,0,3.425,4.1075,5.5541,4.1075A2.3043,2.3043,0,0,0,18.2541,23.33c0-3.5744-6.9969-2.204-6.9969-3.8791,0-1.6733,6.9969-.3043,6.9969-3.8793a2.3036,2.3036,0,0,0-2.3566-2.28c-2.1291,0-4.3352,4.1062-5.5541,4.1062a.5864.5864,0,0,1-.5311-.6074,9.0665,9.0665,0,0,1,.76-2.663,11.276,11.276,0,0,0,.685-2.8894,1.9344,1.9344,0,0,0-2.0543-2.13,2.0108,2.0108,0,0,0-2.2047,2.13,9.0822,9.0822,0,0,0,.76,2.8894,11.4426,11.4426,0,0,1,.685,2.663.587.587,0,0,1-.5332.6074c-1.2161,0-3.4221-4.1062-5.552-4.1062A2.3048,2.3048,0,0,0,0,15.572c0,3.575,6.9982,2.206,6.9982,3.8793C6.9982,21.1264,0,19.756,0,23.33a2.3055,2.3055,0,0,0,2.3579,2.2827c2.13,0,4.3359-4.1075,5.552-4.1075a.5886.5886,0,0,1,.5332.6091,11.4181,11.4181,0,0,1-.685,2.6609,9.1042,9.1042,0,0,0-.76,2.8914,2.0107,2.0107,0,0,0,2.2047,2.13A1.9343,1.9343,0,0,0,11.2572,27.667Z"/>
    <path class="h" d="M172.0031,206.5853a11.3063,11.3063,0,0,0-.685-2.8915,9.0445,9.0445,0,0,1-.76-2.6609.588.588,0,0,1,.5311-.6091c1.2189,0,3.425,4.1075,5.5541,4.1075A2.3043,2.3043,0,0,0,179,202.2486c0-3.5744-6.9969-2.204-6.9969-3.8791,0-1.6733,6.9969-.3043,6.9969-3.8793a2.3036,2.3036,0,0,0-2.3566-2.28c-2.1291,0-4.3352,4.1062-5.5541,4.1062a.5864.5864,0,0,1-.5311-.6074,9.0642,9.0642,0,0,1,.76-2.663,11.2763,11.2763,0,0,0,.685-2.8893,1.9344,1.9344,0,0,0-2.0543-2.13,2.0108,2.0108,0,0,0-2.2047,2.13,9.0824,9.0824,0,0,0,.76,2.8893,11.4438,11.4438,0,0,1,.685,2.663.587.587,0,0,1-.5332.6074c-1.2161,0-3.4221-4.1062-5.552-4.1062a2.3048,2.3048,0,0,0-2.3579,2.28c0,3.575,6.9982,2.206,6.9982,3.8793,0,1.6751-6.9982.3047-6.9982,3.8791a2.3055,2.3055,0,0,0,2.3579,2.2827c2.13,0,4.3359-4.1075,5.552-4.1075a.5886.5886,0,0,1,.5332.6091,11.4169,11.4169,0,0,1-.685,2.6609,9.1047,9.1047,0,0,0-.76,2.8915,2.0107,2.0107,0,0,0,2.2047,2.13A1.9344,1.9344,0,0,0,172.0031,206.5853Z"/>
    <path class="i" d="M172.0031,117.2667a11.3057,11.3057,0,0,0-.685-2.8914,9.0453,9.0453,0,0,1-.76-2.6609.588.588,0,0,1,.5311-.6091c1.2189,0,3.425,4.1075,5.5541,4.1075A2.3043,2.3043,0,0,0,179,112.93c0-3.5744-6.9969-2.204-6.9969-3.8791,0-1.6733,6.9969-.3043,6.9969-3.8793a2.3036,2.3036,0,0,0-2.3566-2.28c-2.1291,0-4.3352,4.1062-5.5541,4.1062a.5864.5864,0,0,1-.5311-.6074,9.0634,9.0634,0,0,1,.76-2.663,11.276,11.276,0,0,0,.685-2.8894,1.9344,1.9344,0,0,0-2.0543-2.13,2.0108,2.0108,0,0,0-2.2047,2.13,9.0822,9.0822,0,0,0,.76,2.8894,11.4426,11.4426,0,0,1,.685,2.663.587.587,0,0,1-.5332.6074c-1.2161,0-3.4221-4.1062-5.552-4.1062a2.3048,2.3048,0,0,0-2.3579,2.28c0,3.575,6.9982,2.206,6.9982,3.8793,0,1.6751-6.9982.3047-6.9982,3.8791a2.3055,2.3055,0,0,0,2.3579,2.2827c2.13,0,4.3359-4.1075,5.552-4.1075a.5886.5886,0,0,1,.5332.6091,11.4181,11.4181,0,0,1-.685,2.6609,9.1042,9.1042,0,0,0-.76,2.8914,2.0108,2.0108,0,0,0,2.2047,2.13A1.9344,1.9344,0,0,0,172.0031,117.2667Z"/>
    <path class="j" d="M172.0031,27.667a11.3057,11.3057,0,0,0-.685-2.8914,9.0453,9.0453,0,0,1-.76-2.6609.588.588,0,0,1,.5311-.6091c1.2189,0,3.425,4.1075,5.5541,4.1075A2.3043,2.3043,0,0,0,179,23.33c0-3.5744-6.9969-2.204-6.9969-3.8791,0-1.6733,6.9969-.3043,6.9969-3.8793a2.3036,2.3036,0,0,0-2.3566-2.28c-2.1291,0-4.3352,4.1062-5.5541,4.1062a.5864.5864,0,0,1-.5311-.6074,9.0634,9.0634,0,0,1,.76-2.663,11.276,11.276,0,0,0,.685-2.8894,1.9344,1.9344,0,0,0-2.0543-2.13,2.0108,2.0108,0,0,0-2.2047,2.13,9.0822,9.0822,0,0,0,.76,2.8894,11.4426,11.4426,0,0,1,.685,2.663.587.587,0,0,1-.5332.6074c-1.2161,0-3.4221-4.1062-5.552-4.1062a2.3048,2.3048,0,0,0-2.3579,2.28c0,3.575,6.9982,2.206,6.9982,3.8793,0,1.6751-6.9982.3047-6.9982,3.8791a2.3055,2.3055,0,0,0,2.3579,2.2827c2.13,0,4.3359-4.1075,5.552-4.1075a.5886.5886,0,0,1,.5332.6091,11.4181,11.4181,0,0,1-.685,2.6609,9.1042,9.1042,0,0,0-.76,2.8914,2.0107,2.0107,0,0,0,2.2047,2.13A1.9343,1.9343,0,0,0,172.0031,27.667Z"/>
  </g>
</svg>
