<?xml version="1.0" encoding="UTF-8" standalone="no"?>
<svg
   xmlns:dc="http://purl.org/dc/elements/1.1/"
   xmlns:cc="http://creativecommons.org/ns#"
   xmlns:rdf="http://www.w3.org/1999/02/22-rdf-syntax-ns#"
   xmlns:svg="http://www.w3.org/2000/svg"
   xmlns="http://www.w3.org/2000/svg"
   xmlns:sodipodi="http://sodipodi.sourceforge.net/DTD/sodipodi-0.dtd"
   xmlns:inkscape="http://www.inkscape.org/namespaces/inkscape"
   width="2088.3042"
   height="366.28467"
   viewBox="0 0 2088.3042 366.28466"
   version="1.1"
   id="svg515"
   sodipodi:docname="Is_the_Order_a_Rabbit Logo white.svg"
   inkscape:version="1.0.2 (e86c870879, 2021-01-15, custom)">
  <metadata
     id="metadata519">
    <rdf:RDF>
      <cc:Work
         rdf:about="">
        <dc:format>image/svg+xml</dc:format>
        <dc:type
           rdf:resource="http://purl.org/dc/dcmitype/StillImage" />
        <dc:title>ご注文はうさぎですか？</dc:title>
      </cc:Work>
    </rdf:RDF>
  </metadata>
  <sodipodi:namedview
     pagecolor="#ffffff"
     bordercolor="#666666"
     borderopacity="1"
     objecttolerance="10"
     gridtolerance="10"
     guidetolerance="10"
     inkscape:pageopacity="0"
     inkscape:pageshadow="2"
     inkscape:window-width="1600"
     inkscape:window-height="837"
     id="namedview517"
     showgrid="false"
     fit-margin-top="0"
     fit-margin-left="0"
     fit-margin-right="0"
     fit-margin-bottom="0"
     inkscape:zoom="0.54799351"
     inkscape:cx="1102.7304"
     inkscape:cy="210.27163"
     inkscape:window-x="-8"
     inkscape:window-y="-8"
     inkscape:window-maximized="1"
     inkscape:current-layer="svg515"
     showguides="false"
     inkscape:document-rotation="0" />
  <defs
     id="defs385">
    <style
       id="style383">
      .a, .c {
        fill: #f19ec2;
      }

      .a, .c, .e, .f, .g, .h, .i, .j {
        fill-rule: evenodd;
      }

      .a {
        opacity: 0.8;
      }

      .b {
        fill: #955e4b;
      }

      .c {
        opacity: 0.5;
      }

      .d {
        fill: none;
        stroke: #955e4b;
        stroke-linecap: round;
        stroke-linejoin: round;
        stroke-width: 0.9818px;
        stroke-dasharray: 0 1.5105;
      }

      .e {
        fill: #8f82bc;
      }

      .f {
        fill: #89c997;
      }

      .g {
        fill: #ec6d7b;
      }

      .h {
        fill: #7ecef4;
      }

      .i {
        fill: #facd89;
      }

      .j {
        fill: #88abda;
      }
    </style>
  </defs>
  <title
     id="title387">ご注文はうさぎですか？</title>
  <g
     id="g1506"
     style="opacity:1;fill:#ffffff;fill-opacity:1"
     transform="matrix(2.243437,0,0,2.243437,-488.33831,-99.343976)">
    <path
       class="b"
       d="m 569.17013,197.89687 h -8.44903 v -1.13071 a 4.7577742,4.7577742 0 0 0 1.59624,-0.20329 1.1323047,1.1323047 0 0 0 0.7057,-0.60758 3.1576596,3.1576596 0 0 0 0.16527,-1.15302 v -10.46323 a 2.0943312,2.0943312 0 0 0 -0.448,-1.52386 3.0859516,3.0859516 0 0 0 -2.01967,-0.44231 v -1.13071 h 8.44903 v 1.13071 a 4.618228,4.618228 0 0 0 -1.59647,0.20989 1.1555245,1.1555245 0 0 0 -0.7057,0.60781 3.1071225,3.1071225 0 0 0 -0.1664,1.14847 v 10.46414 a 3.1508303,3.1508303 0 0 0 0.15935,1.11728 1.1659962,1.1659962 0 0 0 0.68134,0.62557 4.4463563,4.4463563 0 0 0 1.62788,0.22104 z"
       id="path391"
       style="fill:#ffffff;fill-opacity:1;stroke-width:2.27645" />
    <path
       class="b"
       d="m 580.78525,194.97437 a 2.7053296,2.7053296 0 0 1 -0.63354,1.80522 3.8927244,3.8927244 0 0 1 -1.73169,1.13504 7.6452196,7.6452196 0 0 1 -2.53574,0.38699 10.185962,10.185962 0 0 1 -1.95182,-0.18985 6.35971,6.35971 0 0 1 -1.72031,-0.57207 l -0.47806,0.68817 h -0.95838 l -0.12293,-3.19272 h 1.03214 a 2.9511859,2.9511859 0 0 0 1.24021,1.47969 5.0093216,5.0093216 0 0 0 2.81187,0.65698 8.2327706,8.2327706 0 0 0 1.00755,-0.0669 2.5826291,2.5826291 0 0 0 1.03783,-0.37334 1.0353281,1.0353281 0 0 0 0.49718,-0.94723 0.83955365,0.83955365 0 0 0 -0.50947,-0.80427 11.377454,11.377454 0 0 0 -1.91017,-0.60781 q -1.69435,-0.42888 -2.77521,-0.81565 a 5.0241185,5.0241185 0 0 1 -1.82981,-1.1125 2.4792784,2.4792784 0 0 1 -0.74963,-1.86669 2.6035724,2.6035724 0 0 1 1.33286,-2.29693 6.4252717,6.4252717 0 0 1 3.49434,-0.84661 8.4831797,8.4831797 0 0 1 2.16058,0.22104 8.6504986,8.6504986 0 0 1 1.36404,0.47805 l 0.29594,-0.62579 h 0.98138 v 2.84874 h -1.00665 a 1.8712394,1.8712394 0 0 0 -0.61464,-0.92036 3.2833195,3.2833195 0 0 0 -1.27139,-0.64583 6.6645262,6.6645262 0 0 0 -1.8355,-0.22765 8.0959561,8.0959561 0 0 0 -1.71371,0.18553 q -0.85299,0.1844 -0.85344,0.87143 a 0.67314538,0.67314538 0 0 0 0.16641,0.4669 1.5206666,1.5206666 0 0 0 0.57093,0.34397 13.291036,13.291036 0 0 0 1.42437,0.41795 c 0.67907,0.17187 1.08473,0.27477 1.2154,0.30596 a 12.996919,12.996919 0 0 1 3.28559,1.24021 2.7237688,2.7237688 0 0 1 1.28347,2.58035 z"
       id="path393"
       style="fill:#ffffff;fill-opacity:1;stroke-width:2.27645" />
  </g>
  <path
     class="b"
     d="m 851.55908,340.12618 a 11.144538,11.144538 0 0 1 -3.52477,4.533 8.2174124,8.2174124 0 0 1 -4.72634,1.36844 7.3605788,7.3605788 0 0 1 -4.86625,-1.34306 5.5204343,5.5204343 0 0 1 -1.92827,-3.00643 17.399994,17.399994 0 0 1 -0.36284,-3.72953 v -13.1718 h -4.22093 v -2.5757 a 9.9637356,9.9637356 0 0 0 4.6133,-1.00714 7.9960766,7.9960766 0 0 0 3.08834,-2.71202 9.0944618,9.0944618 0 0 0 1.44206,-3.66267 h 2.29213 v 7.38183 h 7.91366 v 2.57415 h -7.91366 v 13.33921 a 13.590117,13.590117 0 0 0 0.32036,3.50563 1.4648589,1.4648589 0 0 0 1.57993,1.07817 2.7472583,2.7472583 0 0 0 2.21075,-1.04812 14.794763,14.794763 0 0 0 1.67843,-2.61456 z"
     id="path395"
     style="opacity:1;fill:#ffffff;fill-opacity:1;stroke-width:5.18351" />
  <path
     class="b"
     d="m 883.907,344.94573 h -14.37282 v -2.57465 a 3.90007,3.90007 0 0 0 2.65603,-0.68681 2.6104137,2.6104137 0 0 0 0.7257,-1.99929 v -9.39146 a 15.666629,15.666629 0 0 0 -0.18307,-2.51868 4.0949699,4.0949699 0 0 0 -0.96413,-2.02984 3.0017686,3.0017686 0 0 0 -2.40412,-0.90557 5.6702375,5.6702375 0 0 0 -2.67053,0.7122 5.313094,5.313094 0 0 0 -2.08379,1.85727 7.1858948,7.1858948 0 0 0 -0.99419,2.47772 17.020561,17.020561 0 0 0 -0.20744,2.86387 v 4.8129 a 19.097592,19.097592 0 0 0 0.15302,2.8644 2.1216091,2.1216091 0 0 0 0.8672,1.42443 4.1157039,4.1157039 0 0 0 2.36316,0.51834 v 2.57465 H 852.1398 v -2.57465 a 7.2470602,7.2470602 0 0 0 2.75503,-0.39135 1.7748325,1.7748325 0 0 0 1.08853,-1.16007 10.693573,10.693573 0 0 0 0.21154,-2.52851 v -23.46418 a 4.2173007,4.2173007 0 0 0 -0.67386,-2.8079 5.1835062,5.1835062 0 0 0 -3.38326,-0.74281 v -2.51865 l 11.26893,-2.401 v 18.87469 a 20.516836,20.516836 0 0 1 3.42682,-2.92556 8.8306212,8.8306212 0 0 1 4.9347,-1.18496 10.448393,10.448393 0 0 1 2.90743,0.41469 8.803667,8.803667 0 0 1 2.61508,1.2316 5.1368547,5.1368547 0 0 1 1.6919,1.84636 10.764069,10.764069 0 0 1 1.14711,5.31155 v 8.36409 a 6.0849179,6.0849179 0 0 0 0.60025,3.21378 q 0.60231,0.86201 3.17488,0.86461 z"
     id="path397"
     style="opacity:1;fill:#ffffff;fill-opacity:1;stroke-width:5.18351" />
  <path
     class="b"
     d="m 911.32682,332.80034 h -17.19577 c 0.0159,0.3561 0.0683,1.10875 0.15233,2.26363 a 13.221569,13.221569 0 0 0 0.78375,3.55642 6.6913881,6.6913881 0 0 0 2.26365,3.05826 6.8593338,6.8593338 0 0 0 4.322,1.24405 10.89573,10.89573 0 0 0 3.5792,-0.75264 7.7037269,7.7037269 0 0 0 3.63521,-2.91055 l 2.18017,1.48092 a 11.444145,11.444145 0 0 1 -10.48572,5.28719 17.666426,17.666426 0 0 1 -5.85735,-0.9206 13.181656,13.181656 0 0 1 -4.48996,-2.57465 11.192227,11.192227 0 0 1 -2.82345,-3.88764 11.882151,11.882151 0 0 1 -0.97917,-4.80769 12.478773,12.478773 0 0 1 1.638,-6.26789 11.994634,11.994634 0 0 1 4.6833,-4.58377 14.036416,14.036416 0 0 1 6.96195,-1.70435 12.006556,12.006556 0 0 1 6.47422,1.64835 10.17626,10.17626 0 0 1 3.90212,4.27847 12.80326,12.80326 0 0 1 1.25545,5.59249 z m -6.93397,-2.56945 q 0,-6.37988 -5.03423,-6.37988 a 4.3577737,4.3577737 0 0 0 -3.73212,1.7655 8.2982751,8.2982751 0 0 0 -1.44206,4.61333 z"
     id="path399"
     style="opacity:1;fill:#ffffff;fill-opacity:1;stroke-width:5.18351" />
  <g
     id="g1518"
     style="opacity:1;fill:#ffffff;fill-opacity:1"
     transform="matrix(2.2741388,0,0,2.2741388,-347.42011,-160.86568)">
    <path
       class="b"
       d="m 573.80748,217.284 a 5.1966732,5.1966732 0 0 1 -0.8111,2.91135 5.2649666,5.2649666 0 0 1 -2.19199,1.89697 6.963879,6.963879 0 0 1 -3.02767,0.65675 7.278484,7.278484 0 0 1 -2.92911,-0.60098 5.3796996,5.3796996 0 0 1 -2.26005,-1.82981 5.039826,5.039826 0 0 1 -0.87803,-3.00969 4.7702947,4.7702947 0 0 1 1.81752,-4.04638 6.9431633,6.9431633 0 0 1 4.32342,-1.3809 6.6196802,6.6196802 0 0 1 3.21731,0.73734 5.025712,5.025712 0 0 1 2.04447,1.97528 5.4290985,5.4290985 0 0 1 0.69523,2.69007 z m -3.39191,-0.0737 a 6.9900582,6.9900582 0 0 0 -0.55181,-3.14378 2.1967714,2.1967714 0 0 0 -2.14942,-1.05672 2.1701369,2.1701369 0 0 0 -2.38845,1.88581 11.215599,11.215599 0 0 0 -0.22764,2.50022 7.8164084,7.8164084 0 0 0 0.50378,3.05658 2.1328032,2.1328032 0 0 0 2.19859,1.16623 2.1769663,2.1769663 0 0 0 1.70028,-0.64355 3.1212365,3.1212365 0 0 0 0.74963,-1.59739 12.710087,12.710087 0 0 0 0.16618,-2.1674 z"
       id="path401"
       style="fill:#ffffff;fill-opacity:1;stroke-width:2.27645" />
    <path
       class="b"
       d="m 585.55099,213.82085 a 1.4676254,1.4676254 0 0 1 -0.43685,1.12388 1.4419015,1.4419015 0 0 1 -1.0244,0.41112 1.5252195,1.5252195 0 0 1 -1.22929,-0.68817 3.2534981,3.2534981 0 0 0 -0.40566,-0.44026 0.67291773,0.67291773 0 0 0 -0.45347,-0.13659 1.6417736,1.6417736 0 0 0 -1.49266,1.03897 4.6439519,4.6439519 0 0 0 -0.53383,2.15398 v 2.13826 a 2.6700447,2.6700447 0 0 0 0.26361,1.4114 q 0.26475,0.37857 1.3941,0.37971 h 0.65129 v 1.13071 h -7.6261 v -1.13071 h 0.639 q 1.03055,0 1.26457,-0.39314 a 2.9605193,2.9605193 0 0 0 0.23356,-1.39865 v -3.58609 a 3.0112841,3.0112841 0 0 0 -0.16641,-1.17965 0.86709866,0.86709866 0 0 0 -0.59552,-0.47373 5.8846155,5.8846155 0 0 0 -1.3752,-0.11633 v -1.13048 l 4.78919,-1.05468 a 16.361052,16.361052 0 0 1 0.3442,2.66345 5.1996326,5.1996326 0 0 1 0.90261,-1.3249 4.7049607,4.7049607 0 0 1 1.25205,-0.96976 2.9892026,2.9892026 0 0 1 1.41891,-0.36879 2.2081536,2.2081536 0 0 1 1.59647,0.56547 1.8277593,1.8277593 0 0 1 0.58983,1.37498 z"
       id="path403"
       style="fill:#ffffff;fill-opacity:1;stroke-width:2.27645" />
    <path
       class="b"
       d="m 599.88304,222.19726 a 29.990368,29.990368 0 0 0 -4.75367,0.55181 3.8959114,3.8959114 0 0 1 -0.22105,-1.28915 5.3152761,5.3152761 0 0 1 -3.45086,1.28915 5.0905908,5.0905908 0 0 1 -2.68348,-0.7485 5.5329044,5.5329044 0 0 1 -1.96503,-2.04424 5.6455886,5.6455886 0 0 1 -0.73074,-2.81984 5.7903706,5.7903706 0 0 1 0.3187,-1.87898 5.1108512,5.1108512 0 0 1 1.00164,-1.71371 4.7514002,4.7514002 0 0 1 1.68913,-1.21995 5.6542391,5.6542391 0 0 1 2.29579,-0.44254 5.0216144,5.0216144 0 0 1 1.62083,0.23243 4.045474,4.045474 0 0 1 1.08154,0.53405 7.4321442,7.4321442 0 0 1 0.82225,0.71936 v -4.02931 a 3.6470957,3.6470957 0 0 0 -0.13522,-1.17966 0.70319448,0.70319448 0 0 0 -0.50946,-0.45369 6.038048,6.038048 0 0 0 -1.22223,-0.1227 v -1.13071 l 5.03618,-1.05445 v 13.75429 a 6.2602292,6.2602292 0 0 0 0.0794,1.22678 0.69727572,0.69727572 0 0 0 0.44801,0.49808 4.1167268,4.1167268 0 0 0 1.27799,0.19009 z m -4.97472,-2.32198 v -4.97358 a 6.5420534,6.5420534 0 0 0 -1.22791,-1.14164 2.8093632,2.8093632 0 0 0 -1.69459,-0.51607 2.0856807,2.0856807 0 0 0 -1.12957,0.33054 2.6470526,2.6470526 0 0 0 -0.84775,0.84684 5.5950514,5.5950514 0 0 0 -0.54089,2.86218 5.1006071,5.1006071 0 0 0 0.76876,3.07002 2.2992115,2.2992115 0 0 0 1.90926,1.03214 3.050439,3.050439 0 0 0 1.53478,-0.4043 3.9280093,3.9280093 0 0 0 1.22814,-1.10567 z"
       id="path405"
       style="fill:#ffffff;fill-opacity:1;stroke-width:2.27645" />
    <path
       class="b"
       d="m 611.53504,216.93981 h -7.55212 c 0.008,0.15662 0.0303,0.48716 0.0672,0.99435 a 5.7971999,5.7971999 0 0 0 0.34397,1.56187 2.9391207,2.9391207 0 0 0 0.99435,1.3431 3.0117394,3.0117394 0 0 0 1.89788,0.54635 4.7839534,4.7839534 0 0 0 1.57188,-0.33054 3.3832555,3.3832555 0 0 0 1.59647,-1.27823 l 0.95748,0.65038 a 5.0259397,5.0259397 0 0 1 -4.60503,2.32198 7.7585867,7.7585867 0 0 1 -2.57238,-0.4043 5.7858177,5.7858177 0 0 1 -1.97163,-1.13071 4.9171255,4.9171255 0 0 1 -1.24021,-1.70733 5.2182995,5.2182995 0 0 1 -0.43002,-2.11141 5.4803185,5.4803185 0 0 1 0.71936,-2.75268 5.2683813,5.2683813 0 0 1 2.05677,-2.01329 6.1678055,6.1678055 0 0 1 3.05772,-0.74849 5.2706577,5.2706577 0 0 1 2.84305,0.72414 4.4691208,4.4691208 0 0 1 1.71371,1.87897 5.6228241,5.6228241 0 0 1 0.55159,2.45584 z m -3.04543,-1.12821 q 0,-2.80185 -2.21089,-2.80185 a 1.9122155,1.9122155 0 0 0 -1.63904,0.77536 3.6423152,3.6423152 0 0 0 -0.63354,2.02603 z"
       id="path407"
       style="fill:#ffffff;fill-opacity:1;stroke-width:2.27645" />
    <path
       class="b"
       d="m 623.74886,213.82085 a 1.4676254,1.4676254 0 0 1 -0.43685,1.12388 1.4419015,1.4419015 0 0 1 -1.0244,0.41112 1.5252195,1.5252195 0 0 1 -1.22929,-0.68817 3.2534981,3.2534981 0 0 0 -0.40566,-0.44026 0.67291773,0.67291773 0 0 0 -0.45347,-0.13659 1.6417736,1.6417736 0 0 0 -1.49266,1.03897 4.6439519,4.6439519 0 0 0 -0.53383,2.15398 v 2.13826 a 2.6700447,2.6700447 0 0 0 0.26361,1.4114 q 0.26453,0.37857 1.3941,0.37971 h 0.65129 v 1.13071 h -7.6261 v -1.13071 h 0.639 q 1.03055,0 1.26457,-0.39314 a 2.9605193,2.9605193 0 0 0 0.23356,-1.39865 v -3.58609 a 3.0112841,3.0112841 0 0 0 -0.16641,-1.17965 0.86709866,0.86709866 0 0 0 -0.59552,-0.47373 5.8846155,5.8846155 0 0 0 -1.3752,-0.11633 v -1.13048 l 4.78919,-1.05468 a 16.361052,16.361052 0 0 1 0.3442,2.66345 5.1996326,5.1996326 0 0 1 0.90261,-1.3249 4.7049607,4.7049607 0 0 1 1.25205,-0.96976 2.9892026,2.9892026 0 0 1 1.41891,-0.36879 2.2081536,2.2081536 0 0 1 1.59647,0.56547 1.8277593,1.8277593 0 0 1 0.58983,1.37498 z"
       id="path409"
       style="fill:#ffffff;fill-opacity:1;stroke-width:2.27645" />
  </g>
  <path
     class="b"
     d="m 1115.2391,339.32185 a 7.1373599,7.1373599 0 0 1 -0.8729,3.64618 5.4442,5.4442 0 0 1 -2.348,2.22744 7.5657372,7.5657372 0 0 1 -3.3362,0.71694 6.6938512,6.6938512 0 0 1 -3.941,-1.11087 4.2863814,4.2863814 0 0 1 -1.8867,-2.66106 15.093384,15.093384 0 0 1 -9.4567,3.77401 8.0160288,8.0160288 0 0 1 -4.9829,-1.47975 4.6589286,4.6589286 0 0 1 -1.9431,-3.89714 6.5367968,6.5367968 0 0 1 1.0435,-3.61591 9.6418796,9.6418796 0 0 1 3.055,-2.88801 23.688583,23.688583 0 0 1 4.8003,-2.2379 q 2.7884,-0.96789 6.9522,-2.03858 v -1.60811 a 4.7596314,4.7596314 0 0 0 -0.9423,-3.13379 4.3239491,4.3239491 0 0 0 -3.4746,-1.14216 4.4810035,4.4810035 0 0 0 -3.1264,0.9011 4.7053667,4.7053667 0 0 0 -1.2653,2.72994 5.0006913,5.0006913 0 0 1 -0.8349,2.12519 2.9929012,2.9929012 0 0 1 -2.5196,0.82961 3.3722316,3.3722316 0 0 1 -2.0814,-0.67831 2.3354648,2.3354648 0 0 1 -0.9016,-1.99682 5.5276841,5.5276841 0 0 1 2.8447,-4.56344 15.682468,15.682468 0 0 1 8.7241,-1.94048 13.002632,13.002632 0 0 1 8.5164,2.08396 7.1217065,7.1217065 0 0 1 2.3224,5.57204 v 8.89521 c 0,1.12705 0.028,1.95145 0.085,2.47895 a 2.0229216,2.0229216 0 0 0 0.4639,1.19331 1.6430694,1.6430694 0 0 0 2.4758,-0.34855 3.0419481,3.0419481 0 0 0 0.5505,-1.833 z m -12.9207,0.22485 v -6.97978 a 16.648274,16.648274 0 0 0 -6.7956,3.30804 4.8248531,4.8248531 0 0 0 -1.4495,3.1703 2.8061058,2.8061058 0 0 0 0.7858,2.07876 3.0022932,3.0022932 0 0 0 2.2254,0.78893 5.6022977,5.6022977 0 0 0 2.7294,-0.64544 17.01456,17.01456 0 0 0 2.5045,-1.72081 z"
     id="path411"
     style="opacity:1;fill:#ffffff;fill-opacity:1;stroke-width:5.21776" />
  <path
     class="b"
     d="m 1155.0719,325.73014 a 3.37171,3.37171 0 0 1 -1.0012,2.576 3.3273591,3.3273591 0 0 1 -2.348,0.94234 3.508415,3.508415 0 0 1 -2.8176,-1.57733 7.2192786,7.2192786 0 0 0 -0.9293,-1.01435 1.5705427,1.5705427 0 0 0 -1.0394,-0.30732 3.7567797,3.7567797 0 0 0 -3.4212,2.37668 10.660384,10.660384 0 0 0 -1.2242,4.94175 v 4.89581 a 6.09381,6.09381 0 0 0 0.6048,3.23499 q 0.6068,0.87607 3.1954,0.87555 h 1.4927 v 2.58645 h -17.4794 v -2.58645 h 1.4646 q 2.3621,0 2.8985,-0.9011 a 6.8175119,6.8175119 0 0 0 0.5353,-3.21102 v -8.2195 a 6.9474338,6.9474338 0 0 0 -0.3814,-2.70385 1.9827449,1.9827449 0 0 0 -1.365,-1.08059 13.204559,13.204559 0 0 0 -3.152,-0.26664 v -2.59112 l 10.9771,-2.42209 a 37.638236,37.638236 0 0 1 0.7889,6.10948 12.036827,12.036827 0 0 1 2.0688,-3.04195 10.883704,10.883704 0 0 1 2.8698,-2.22277 6.8509053,6.8509053 0 0 1 3.2522,-0.84476 5.0794794,5.0794794 0 0 1 3.6587,1.29558 4.2070715,4.2070715 0 0 1 1.3519,3.15621 z"
     id="path413"
     style="opacity:1;fill:#ffffff;fill-opacity:1;stroke-width:5.21776" />
  <path
     class="b"
     d="m 1186.1473,339.32185 a 7.132142,7.132142 0 0 1 -0.8735,3.64618 5.4457653,5.4457653 0 0 1 -2.3479,2.22744 7.5657372,7.5657372 0 0 1 -3.3363,0.71694 6.6938512,6.6938512 0 0 1 -3.9409,-1.11087 4.2889902,4.2889902 0 0 1 -1.8873,-2.66106 15.092863,15.092863 0 0 1 -9.4561,3.77401 8.0139416,8.0139416 0 0 1 -4.983,-1.47975 4.6594505,4.6594505 0 0 1 -1.9436,-3.89714 6.5409711,6.5409711 0 0 1 1.0436,-3.61591 9.6476192,9.6476192 0 0 1 3.055,-2.88801 23.705803,23.705803 0 0 1 4.8003,-2.2379 q 2.7889,-0.96789 6.9516,-2.03858 v -1.60811 a 4.7591095,4.7591095 0 0 0 -0.9418,-3.13379 4.3260363,4.3260363 0 0 0 -3.475,-1.14216 4.4810035,4.4810035 0 0 0 -3.1265,0.9011 4.7017143,4.7017143 0 0 0 -1.2648,2.72994 5.0142575,5.0142575 0 0 1 -0.8322,2.12519 2.9934229,2.9934229 0 0 1 -2.5197,0.82961 3.3727533,3.3727533 0 0 1 -2.0818,-0.67831 2.3365084,2.3365084 0 0 1 -0.9012,-1.99682 5.5266406,5.5266406 0 0 1 2.8447,-4.56344 15.680381,15.680381 0 0 1 8.7241,-1.94048 13.003676,13.003676 0 0 1 8.5164,2.08396 7.1217065,7.1217065 0 0 1 2.3225,5.57204 v 8.89521 c 0,1.12705 0.028,1.95145 0.085,2.47895 a 2.0229216,2.0229216 0 0 0 0.4633,1.19331 1.6435912,1.6435912 0 0 0 2.4764,-0.34855 3.0450788,3.0450788 0 0 0 0.5504,-1.833 z m -12.9212,0.22485 v -6.97978 a 16.648274,16.648274 0 0 0 -6.7956,3.30804 4.8248531,4.8248531 0 0 0 -1.4495,3.1703 2.8061058,2.8061058 0 0 0 0.7863,2.07876 3.0007279,3.0007279 0 0 0 2.2254,0.78893 5.6049068,5.6049068 0 0 0 2.7294,-0.64544 17.039605,17.039605 0 0 0 2.504,-1.72081 z"
     id="path415"
     style="opacity:1;fill:#ffffff;fill-opacity:1;stroke-width:5.21776" />
  <path
     class="b"
     d="m 1216.5386,333.55521 a 12.917583,12.917583 0 0 1 -0.9856,5.04973 12.032653,12.032653 0 0 1 -2.7706,4.06984 12.4052,12.4052 0 0 1 -4.0819,2.61724 13.210299,13.210299 0 0 1 -4.8572,0.9011 10.767348,10.767348 0 0 1 -5.1776,-1.16774 11.0705,11.0705 0 0 1 -3.5773,-3.00074 39.040768,39.040768 0 0 0 -3.7432,4.16848 h -2.1946 v -31.19277 a 5.4311557,5.4311557 0 0 0 -0.3814,-2.34798 1.7855139,1.7855139 0 0 0 -1.2653,-0.95746 14.847107,14.847107 0 0 0 -2.7445,-0.27131 v -2.53009 l 11.6533,-2.47843 v 18.20995 a 14.9979,14.9979 0 0 1 3.3362,-2.3506 10.668211,10.668211 0 0 1 4.9673,-0.99867 11.932472,11.932472 0 0 1 5.1087,1.04353 10.644209,10.644209 0 0 1 3.7307,2.81132 12.326412,12.326412 0 0 1 2.2379,3.94358 13.659547,13.659547 0 0 1 0.7451,4.48102 z m -7.7969,-0.22531 a 15.570809,15.570809 0 0 0 -1.1677,-6.22216 4.5211801,4.5211801 0 0 0 -4.6036,-2.70383 6.256082,6.256082 0 0 0 -2.4331,0.49672 8.6917274,8.6917274 0 0 0 -2.2248,1.33627 12.287801,12.287801 0 0 0 -1.8998,1.96656 v 11.4561 a 7.911152,7.911152 0 0 0 3.3644,2.80142 8.8602609,8.8602609 0 0 0 2.9678,0.60941 4.6511022,4.6511022 0 0 0 3.7177,-1.56531 8.2440446,8.2440446 0 0 0 1.8158,-3.72808 21.116755,21.116755 0 0 0 0.4633,-4.4476 z"
     id="path417"
     style="opacity:1;fill:#ffffff;fill-opacity:1;stroke-width:5.21776" />
  <path
     class="b"
     d="m 1248.3157,333.55521 a 12.908191,12.908191 0 0 1 -0.9861,5.04973 12.031087,12.031087 0 0 1 -2.7701,4.06984 12.4052,12.4052 0 0 1 -4.0819,2.61724 13.212386,13.212386 0 0 1 -4.8572,0.9011 10.765783,10.765783 0 0 1 -5.1775,-1.16774 11.0705,11.0705 0 0 1 -3.5773,-3.00074 38.999547,38.999547 0 0 0 -3.7438,4.16848 h -2.194 v -31.19277 a 5.4301121,5.4301121 0 0 0 -0.382,-2.34798 1.7844704,1.7844704 0 0 0 -1.2647,-0.95746 14.85389,14.85389 0 0 0 -2.7451,-0.27131 v -2.53009 l 11.6533,-2.47843 v 18.20995 a 15.001552,15.001552 0 0 1 3.3394,-2.3506 10.668211,10.668211 0 0 1 4.9673,-0.99867 11.929863,11.929863 0 0 1 5.1081,1.04353 10.644209,10.644209 0 0 1 3.7313,2.81132 12.326412,12.326412 0 0 1 2.2379,3.94358 13.659547,13.659547 0 0 1 0.7424,4.48102 z m -7.7968,-0.226 a 15.570809,15.570809 0 0 0 -1.1678,-6.22218 4.5222236,4.5222236 0 0 0 -4.6041,-2.70383 6.2539948,6.2539948 0 0 0 -2.4325,0.49674 8.6917274,8.6917274 0 0 0 -2.2249,1.33625 12.267973,12.267973 0 0 0 -1.9003,1.96658 v 11.45608 a 7.9116739,7.9116739 0 0 0 3.3649,2.80142 8.8571301,8.8571301 0 0 0 2.9674,0.60943 4.6521455,4.6521455 0 0 0 3.7181,-1.56533 8.2372615,8.2372615 0 0 0 1.8153,-3.72808 21.117277,21.117277 0 0 0 0.4639,-4.44708 z"
     id="path419"
     style="opacity:1;fill:#ffffff;fill-opacity:1;stroke-width:5.21776" />
  <path
     class="b"
     d="m 1266.3676,345.26227 h -15.2838 v -2.58646 h 0.8139 a 4.8133742,4.8133742 0 0 0 2.3788,-0.45027 1.8815205,1.8815205 0 0 0 0.9168,-1.27001 12.652521,12.652521 0 0 0 0.1691,-2.39181 v -8.3578 a 10.009209,10.009209 0 0 0 -0.2122,-2.47843 1.6514178,1.6514178 0 0 0 -1.0958,-1.07069 9.4597802,9.4597802 0 0 0 -2.9678,-0.36524 v -2.59112 l 11.5406,-2.42209 v 17.28379 a 6.204948,6.204948 0 0 0 0.5912,3.23501 q 0.5917,0.87607 3.152,0.87555 z m -3.1802,-34.98814 a 4.09595,4.09595 0 0 1 -8.1919,0 4.09595,4.09595 0 1 1 8.1919,0 z"
     id="path421"
     style="opacity:1;fill:#ffffff;fill-opacity:1;stroke-width:5.21776" />
  <path
     class="b"
     d="m 1288.1143,340.25375 a 11.165984,11.165984 0 0 1 -3.548,4.55769 8.2362179,8.2362179 0 0 1 -4.7576,1.38271 7.4092045,7.4092045 0 0 1 -4.8984,-1.3519 5.5532509,5.5532509 0 0 1 -1.941,-3.0263 17.555119,17.555119 0 0 1 -0.3652,-3.7568 v -13.2588 h -4.2499 v -2.58593 a 10.032689,10.032689 0 0 0 4.6438,-1.01382 8.0911645,8.0911645 0 0 0 3.1087,-2.72991 9.2129807,9.2129807 0 0 0 1.4516,-3.68739 h 2.3073 v 7.43112 h 7.9659 v 2.58593 h -7.9649 v 13.42786 a 13.699202,13.699202 0 0 0 0.3225,3.53399 1.4787103,1.4787103 0 0 0 1.5904,1.08529 2.7560154,2.7560154 0 0 0 2.2248,-1.05973 14.859108,14.859108 0 0 0 1.6901,-2.62714 z"
     id="path423"
     style="opacity:1;fill:#ffffff;fill-opacity:1;stroke-width:5.21776" />
  <path
     class="b"
     d="m 1295.4327,308.16459 a 8.6912057,8.6912057 0 0 1 6.8905,-2.59166 9.6079643,9.6079643 0 0 1 7.2157,2.66106 9.3251623,9.3251623 0 0 1 2.5942,6.79559 9.9241599,9.9241599 0 0 1 -4.1382,8.33223 c -0.7017,0.52751 -1.1802,0.887 -1.4364,1.08581 -0.2562,0.19872 -0.7681,0.57396 -1.544,1.13696 a 4.9500792,4.9500792 0 0 0 -1.6493,1.91542 14.140102,14.140102 0 0 0 -0.635,4.41944 h -1.4609 l -0.047,-2.44765 a 15.849436,15.849436 0 0 1 1.8074,-6.33538 19.011393,19.011393 0 0 0 1.8053,-8.16319 11.603754,11.603754 0 0 0 -1.0268,-5.40245 3.4823261,3.4823261 0 0 0 -3.3028,-1.91543 2.6480081,2.6480081 0 0 0 -2.1179,0.74769 2.4100787,2.4100787 0 0 0 -0.6324,1.58778 1.5449757,1.5449757 0 0 0 0.095,0.59378 3.3529259,3.3529259 0 0 0 0.3584,0.58908 l 0.3355,0.47638 a 6.2054697,6.2054697 0 0 1 0.778,1.43905 4.9850381,4.9850381 0 0 1 0.2253,1.63369 3.5705062,3.5705062 0 0 1 -0.9089,2.56034 2.909939,2.909939 0 0 1 -2.1763,0.95746 2.9788133,2.9788133 0 0 1 -2.3198,-1.14165 4.9255558,4.9255558 0 0 1 -0.981,-3.30859 8.3583131,8.3583131 0 0 1 2.2729,-5.62576 z m 3.6973,29.59508 a 3.7233862,3.7233862 0 0 1 5.8486,0 5.4786373,5.4786373 0 0 1 0,6.89839 3.7155595,3.7155595 0 0 1 -5.8486,0 5.5266406,5.5266406 0 0 1 0,-6.89839 z"
     id="path425"
     style="opacity:1;fill:#ffffff;fill-opacity:1;stroke-width:5.21776" />
  <path
     style="opacity:1;fill:#ffffff;fill-opacity:1;stroke-width:5.13162"
     d="m 1148.5377,213.57004 a 16.637222,16.637222 0 0 1 -12.5211,6.82507 c -9.5145,0.23297 -19.8681,-10.51625 -26.4971,-16.27496 -1.5908,-1.38554 -4.9166,-5.67248 -2.1224,-8.10332 a 3.1513273,3.1513273 0 0 1 0.5377,-0.32484 37.442346,37.442346 0 0 0 7.2284,2.82856 c 4.6462,1.3886 12.106,1.71652 13.9678,-3.91647 1.9823,-5.985 -2.9102,-14.20482 -5.497,-19.42675 a 93.944039,93.944039 0 0 0 -11.5559,-18.04587 c -1.8905,-2.30564 -18.1834,-21.98077 -20.4238,-20.99396 a 169.42041,169.42041 0 0 1 -25.7048,9.44832 62.070526,62.070526 0 0 1 -30.5629,0.47315 43.485854,43.485854 0 0 1 -21.7874,-13.2909 21.41168,21.41168 0 0 1 -5.7145,-19.38724 6.5684725,6.5684725 0 0 1 2.398,-3.93186 66.941457,66.941457 0 0 0 5.4061,4.43937 56.255374,56.255374 0 0 0 46.1333,11.99567 c 4.172,-0.86109 8.2393,-2.77569 12.3102,-4.03294 a 54.078029,54.078029 0 0 0 -10.6178,-8.47024 123.56631,123.56631 0 0 1 -11.3922,-8.76688 18.019681,18.019681 0 0 1 -5.5072,-12.354876 10.653754,10.653754 0 0 1 4.2109,-9.27489 3.521317,3.521317 0 0 1 2.5479,-0.13435 c 1.6303,0.35254 5.8218,8.11872 7.2967,9.71877 a 70.918977,70.918977 0 0 0 8.8448,7.944256 c 6.7055,5.21731 13.9734,9.68131 20.3603,15.30352 2.1183,-1.04891 4.057,-2.18916 6.008,-3.39817 6.6481,-4.15353 15.8054,-17.362816 24.679,-14.153496 a 7.5434801,7.5434801 0 0 1 5.8624,8.106406 19.551469,19.551469 0 0 1 -7.9838,13.70141 72.48566,72.48566 0 0 1 -12.6577,8.92902 202.37925,202.37925 0 0 1 36.7471,40.48386 60.952859,60.952859 0 0 1 10.0708,28.77401 22.699204,22.699204 0 0 1 -4.0638,15.31122 z"
     id="path1562" />
  <path
     style="opacity:1;fill:#ffffff;fill-opacity:1;stroke-width:5.13162"
     d="m 1099.9731,242.4554 a 17.498822,17.498822 0 0 0 -10.8328,-7.49216 48.685723,48.685723 0 0 0 -9.9754,0.22227 77.785083,77.785083 0 0 1 -21.5938,-3.16723 c -15.2984,-4.28798 -36.4664,-17.89037 -35.4328,-36.05066 -0.061,-0.48802 -0.1206,-0.97756 -0.1452,-1.45071 -0.1492,-0.0203 -0.2658,-0.0514 -0.4044,-0.0683 a 19.721325,19.721325 0 0 0 -6.6439,12.14143 35.108997,35.108997 0 0 0 6.237,25.21983 c 9.104,13.45256 26.4335,22.07419 49.2661,25.37075 10.5542,1.53947 21.5785,2.35129 27.6979,-2.76492 a 8.5251589,8.5251589 0 0 0 1.8274,-11.96028 z"
     id="path439" />
  <path
     class="b"
     d="m 1262.1272,239.9836 a 35.279167,35.279167 0 0 0 -7.8617,-0.75039 67.309287,67.309287 0 0 1 -19.2191,-4.16615 42.812536,42.812536 0 0 1 -5.5334,-2.65982 c -12.2612,-4.46384 -24.2962,-15.92247 -25.042,-28.35089 a 3.3431631,3.3431631 0 0 0 -1.4747,-0.0753 c -5.6009,1.15649 -6.0966,11.25042 -5.2173,16.39509 3.2874,18.20941 18.6902,29.75446 40.9957,37.01419 a 50.428258,50.428258 0 0 0 25.5193,2.75902 9.4085282,9.4085282 0 0 0 7.9855,-9.68729 13.167029,13.167029 0 0 0 -10.1523,-10.47858 z m 61.2051,-84.52536 a 24.016963,24.016963 0 0 1 -12.0049,10.05455 92.07969,92.07969 0 0 1 -15.2427,6.63875 c 2.7421,5.06079 5.5754,10.00647 8.7425,15.09743 a 84.653225,84.653225 0 0 1 8.9314,14.74756 22.469677,22.469677 0 0 1 -1.1479,19.10351 19.181244,19.181244 0 0 1 -6.0244,6.01523 c -11.2054,7.0275 -24.9694,-7.14206 -30.491,-15.06417 a 4.613217,4.613217 0 0 1 1.3979,-2.53603 c 3.9457,3.18103 11.565,6.05412 15.4207,1.36725 4.27,-5.17484 0.1294,-12.24121 -2.3089,-17.12707 -0.7468,-1.4941 -7.7441,-17.12757 -8.1298,-17.05187 -15.1511,3.08435 -32.4669,8.20189 -51.7075,5.85206 a 32.519113,32.519113 0 0 1 -26.598,-17.35006 c -1.735,-3.25929 -5.9764,-11.74149 -1.3841,-13.94041 a 38.175791,38.175791 0 0 0 16.4012,9.02489 53.079873,53.079873 0 0 0 11.1134,3.32475 42.042217,42.042217 0 0 0 4.3528,1.07825 c 15.0509,2.85263 28.3571,-1.01174 40.3681,-3.86747 a 198.65631,198.65631 0 0 0 -8.9164,-18.29327 57.103332,57.103332 0 0 1 -35.8194,-2.94879 35.251545,35.251545 0 0 1 -17.1863,-14.4289 c -1.4941,-2.74062 -3.3759,-8.1088 0.1309,-9.68064 1.8599,1.47567 3.9944,2.68076 5.1508,3.44289 a 61.501208,61.501208 0 0 0 38.7927,8.34667 c -0.3898,0.0461 -12.1783,-16.64525 -13.6964,-18.41964 a 140.12743,140.12743 0 0 1 -15.1338,-19.654356 4.3646281,4.3646281 0 0 1 0.6358,-6.33188 10.391631,10.391631 0 0 1 7.1482,-3.72319 9.8427916,9.8427916 0 0 1 6.138,2.5754 93.783497,93.783497 0 0 1 12.7568,15.50969 78.145924,78.145924 0 0 1 9.5907,14.814066 c 1.2864,2.6511 3.8797,10.36195 7.5231,10.59417 1.6368,0.11706 4.8541,-3.26849 6.3047,-4.06949 a 21.401153,21.401153 0 0 1 7.9206,-2.80149 8.394224,8.394224 0 0 1 9.0653,11.8622 c -2.6163,5.69914 -10.7926,8.68732 -16.368,11.17525 2.8465,6.07253 5.9641,11.87397 8.9104,17.83242 8.4039,-2.03679 15.1705,-8.55176 23.1995,-11.35529 a 9.8458605,9.8458605 0 0 1 2.112,-0.801 c 5.3815,-0.56113 12.5584,4.69249 10.052,10.98803 z m 27.2588,-49.77406 c -8.9113,-0.31918 -12.2852,-10.072456 -18.2605,-14.865206 a 36.247437,36.247437 0 0 0 -7.826,-4.67459 c -0.9355,-0.42505 -8.7098,-2.58153 -8.7819,-2.91913 a 3.5861254,3.5861254 0 0 1 -0.1494,-0.60817 c -0.1054,-4.60862 7.4991,-4.50119 11.6918,-4.7058 a 46.961823,46.961823 0 0 1 27.3898,6.16919 15.585912,15.585912 0 0 1 5.0173,5.50631 10.850446,10.850446 0 0 1 -9.0811,16.095866 z m -15.7685,15.29385 a 10.741497,10.741497 0 0 1 -13.6059,5.04288 c -5.9518,-2.52731 -8.675,-9.78397 -12.634,-14.41048 a 30.287951,30.287951 0 0 0 -17.5148,-8.86174 4.0408487,4.0408487 0 0 1 -0.01,-1.03017 c 0.5115,-3.132926 5.402,-3.343666 8.6024,-3.596846 a 45.844198,45.844198 0 0 1 29.9673,6.807536 13.570091,13.570091 0 0 1 5.1937,16.05087 z"
     id="path441"
     style="opacity:1;fill:#ffffff;fill-opacity:1;stroke-width:5.11501" />
  <path
     id="path443"
     style="opacity:1;fill:#ffffff;fill-opacity:1;stroke-width:5.12414"
     d="m 149.94648,66.036954 a 49.173731,49.173731 0 0 0 -3.99628,0.15824 l -1.17382,0.0572 c -4.27711,0.16905 -10.73993,0.42672 -10.64359,4.39637 l -0.34731,0.63746 0.48361,-0.10557 c 0.23266,0.0135 3.32238,0.95541 5.36794,1.5739 1.69659,0.51601 3.20598,0.97536 3.59183,1.15624 a 38.604696,38.604696 0 0 1 8.33987,4.98107 39.138631,39.138631 0 0 1 5.79002,6.32195 c 3.49567,4.42264 7.10738,8.99824 13.12312,9.21038 l 0.3429,0.45281 0.0352,-0.004 v -0.44404 a 9.3346307,9.3346307 0 0 0 8.13764,-4.60737 12.222592,12.222592 0 0 0 0.56713,-11.61518 15.877635,15.877635 0 0 0 -5.11734,-5.60095 49.173731,49.173731 0 0 0 -24.50091,-6.56816 z m -26.5452,21.20803 a 44.642972,44.642972 0 0 0 -1.71896,0.0439 c -1.56902,0 -3.15937,0.0554 -4.75247,0.17152 l -0.53635,0.0396 c -3.21693,0.24136 -7.61968,0.572 -8.06291,3.32365 a 3.0591067,3.0591067 0 0 0 0.0135,0.83971 l 1.21339,0.10985 a 30.110423,30.110423 0 0 1 17.10184,9.065296 50.591579,50.591579 0 0 1 3.76326,5.28001 23.422918,23.422918 0 0 0 9.34225,9.73792 11.09477,11.09477 0 0 0 13.68147,-5.05579 13.681432,13.681432 0 0 0 -5.33277,-16.288496 44.642972,44.642972 0 0 0 -24.71192,-7.26717 z m -104.25515,13.202246 -0.58034,0.10984 v 2.5323 c 0,2.63535 9.6761,18.61265 35.10051,20.85191 1.78677,0.12651 3.59332,0.19223 5.38114,0.25059 1.61308,0.0441 3.21654,0.11232 4.80962,0.21542 l 0.89684,0.0572 -0.53194,0.72541 c -1.50599,2.07118 -4.08247,5.35171 -6.90228,8.77513 l -5.10418,8.56409 c -0.63181,1.94717 -1.26529,3.99678 -1.75415,6.08895 l 0.0439,0.10985 h 0.72099 c 10.15857,-13.37397 27.41185,-17.19558 42.64025,-20.57496 l 1.78492,-0.39567 c 1.31894,-0.29412 2.89149,-0.48834 4.57222,-0.69023 6.49842,-0.7968 13.86608,-1.69598 13.86608,-8.87183 0,-6.18892 -8.56446,-13.08355 -20.84751,-13.08355 a 51.161893,51.161893 0 0 0 -5.58336,0.38248 52.727317,52.727317 0 0 1 -5.75482,0.3473 c -4.06758,0.13933 -8.14401,0.36998 -12.2131,0.60671 h -0.004 c -7.23321,0.41967 -14.71354,0.86498 -22.10048,0.69023 a 93.417021,93.417021 0 0 1 -14.77614,-1.29253 42.034277,42.034277 0 0 1 -7.58812,-1.96079 21.476261,21.476261 0 0 1 -2.49712,-1.45957 18.274703,18.274703 0 0 0 -3.57863,-1.97837 z m -3.89517,96.66266 C 10.02128,198.5052 0,209.73418 0,222.03723 c 0,32.97584 54.76885,40.19587 75.87669,40.19587 33.25562,0 60.31359,-9.35175 60.31359,-20.84311 0,-5.85688 -6.30571,-9.79509 -15.69058,-9.79509 a 56.816372,56.816372 0 0 0 -6.39671,0.54076 62.363245,62.363245 0 0 0 -9.50931,2.74333 103.47108,103.47108 0 0 1 -14.27937,4.10619 106.62293,106.62293 0 0 1 -21.04974,2.07068 c -18.37566,0 -41.5989,-4.11597 -51.67037,-15.66422 a 21.397862,21.397862 0 0 1 -5.05141,-17.7217 18.149675,18.149675 0 0 1 2.70817,-10.56005 z" />
  <path
     id="path445"
     style="opacity:1;fill:#ffffff;fill-opacity:1;stroke-width:5.10723"
     d="m 275.02183,74.827164 a 64.386838,64.386838 0 0 0 -0.59154,0.009 l -0.93335,0.19272 c -1.81405,0.14 -4.30101,0.33271 -4.53083,1.75712 -0.19721,1.3626 1.23963,2.8215 2.02004,3.60189 l 0.39438,0.41191 c 1.32786,1.43308 2.78509,2.72972 4.2197,4.00499 a 33.837948,33.837948 0 0 1 6.37123,6.77874 46.251067,46.251067 0 0 1 4.59657,11.151806 c 2.20887,6.99282 4.49525,14.21895 11.11677,16.31803 a 16.06479,16.06479 0 0 0 17.21191,-4.57905 18.312481,18.312481 0 0 0 4.73679,-12.11144 c 0,-8.898326 -5.01479,-15.700996 -15.3365,-20.791876 a 64.386838,64.386838 0 0 0 -29.27517,-6.74368 z m -61.41165,16.93584 a 31.681164,31.681164 0 0 0 -1.13053,0.0262 c -0.5909,0 -1.18388,0.0157 -1.76151,0.0395 -8.05104,0.30797 -13.32714,1.58493 -13.45228,3.26012 a 24.117869,24.117869 0 0 1 16.95338,17.523006 c 1.80439,3.02297 4.09203,6.41541 7.76465,6.94963 a 11.785442,11.785442 0 0 0 10.31927,-3.54055 12.904947,12.904947 0 0 0 3.39156,-9.71894 14.561732,14.561732 0 0 0 -5.23633,-9.828496 31.681164,31.681164 0 0 0 -16.84821,-4.7105 z m 134.12851,24.696146 a 6.469838,6.469838 0 0 0 -5.88921,4.04444 l -2.42317,3.92177 c -1.79979,2.93105 -3.50014,5.70274 -5.45977,8.3299 -8.61421,0.21245 -17.41798,0.43781 -26.40942,0.67479 -15.78439,0.404 -32.99886,0.73772 -45.90431,0.18398 -1.22575,-0.044 -2.47572,-0.14808 -3.70706,-0.25415 -1.59857,-0.13371 -3.17723,-0.27167 -4.6798,-0.27167 l -0.90268,0.018 c -0.96731,0.0511 -2.01986,0.0635 -3.09797,0.0788 a 30.026933,30.026933 0 0 0 -7.99688,0.77123 14.229251,14.229251 0 0 1 0.16647,2.42315 c 0.0202,0.65373 0.0359,1.30469 -0.004,1.90173 a 12.180741,12.180741 0 0 0 4.43881,3.41346 12.790545,12.790545 0 0 0 4.74116,0.24101 c 0.80338,-0.0673 1.62502,-0.13596 2.46262,-0.13596 l 2.28294,0.0224 c 4.89987,0 10.0736,-0.27418 15.07358,-0.54333 6.41365,-0.34169 13.04073,-0.70482 19.12241,-0.46888 l 0.46447,0.0135 0.0135,0.46447 c 0.43769,13.0454 0.50551,28.93326 0.18846,42.49959 l -0.009,0.47326 -0.47322,0.009 c -10.37482,0.25536 -21.17621,0.0357 -31.09801,-0.17522 -3.23442,-0.0675 -6.36996,-0.13169 -9.3684,-0.1797 a 3.1154099,3.1154099 0 0 0 -1.90174,2.05507 5.6940499,5.6940499 0 0 0 1.92803,4.58343 c 0.73237,0.78905 3.43405,1.73084 12.11582,1.73084 6.49642,0 14.30013,-0.52393 19.99877,-0.89828 3.48467,-0.23138 6.2666,-0.41191 7.67263,-0.41191 0.72624,0 1.48108,-0.002 1.48108,0.61785 l -0.0135,16.19532 c -0.0202,15.35081 -0.0457,31.22563 0.19272,42.57848 l 0.0135,0.49077 -0.49515,0.009 c -9.12969,0.17723 -18.85976,0.21896 -28.45574,0.21896 l -24.57782,-0.035 c -0.43717,0 -0.90063,-0.0242 -1.37152,-0.0482 -0.45965,-0.0287 -0.93174,-0.0526 -1.39342,-0.0526 -1.58834,0 -2.46299,0.35165 -2.94461,1.18312 a 5.9003819,5.9003819 0 0 0 1.39342,4.43879 11.695555,11.695555 0 0 0 8.74181,2.38374 c 0.75943,0 1.54133,-0.026 2.33551,-0.0613 30.49885,-1.3953 63.39365,-2.04196 103.50378,-2.04196 3.21041,0 6.63932,0.0879 10.1352,0.17522 2.94432,0.0768 5.93576,0.15099 8.8908,0.1797 0.84679,0.004 1.90578,0.0608 3.08043,0.12272 1.52043,0.0823 3.23209,0.17972 4.91645,0.17972 5.11949,-0.004 7.74154,-0.91403 8.02754,-2.78685 v -0.004 c 0.31717,-2.29825 -2.08749,-4.47944 -3.67636,-5.92426 -4.58015,-4.18181 -7.36666,-6.69952 -11.62506,-10.42882 -0.45965,-0.41367 -0.97039,-0.93621 -1.51175,-1.48982 a 11.947852,11.947852 0 0 0 -4.23725,-3.32582 c -5.98005,-1.3667 -9.28519,3.27653 -12.28671,7.83474 l -0.96401,1.4504 c -0.17477,0.24923 -0.44047,0.6759 -0.76683,1.20502 -1.93511,3.10364 -3.76605,5.92082 -4.9208,6.29672 a 18.829844,18.829844 0 0 1 -5.32396,0.13146 c -0.84167,-0.0572 -1.64469,-0.10948 -2.30047,-0.10948 -2.62715,0 -5.13775,0.0333 -7.60251,0.0615 -4.7732,0.0588 -9.35306,0.12048 -14.17529,-0.0615 l -0.47763,-0.0135 v -0.47763 c 0.0113,-9.14193 -0.0424,-17.16369 -0.092,-25.16059 -0.0673,-10.42437 -0.13372,-20.81294 -0.0657,-33.61319 l 0.004,-0.44257 0.44696,-0.0437 c 3.42592,-0.31767 7.4776,-0.4601 12.73804,-0.4601 2.77578,0 5.62654,0.0373 8.50956,0.0744 4.72469,0.0588 9.54066,0.12048 14.27607,0.0308 l 0.58717,-0.0135 c 3.11543,-0.0765 8.32396,-0.20662 8.8163,-2.19531 0.69306,-2.74258 -3.46656,-6.17373 -5.03037,-7.4623 l -0.41629,-0.34617 a 45.679569,45.679569 0 0 0 -8.0845,-5.70515 l -0.7011,-0.78873 a 6.9024202,6.9024202 0 0 0 -3.41785,-2.76057 8.1848456,8.1848456 0 0 0 -8.66293,4.05321 19.42126,19.42126 0 0 0 -1.32771,2.45382 c -1.7717,3.55668 -3.25221,6.27482 -4.85946,6.27482 l -8.31676,0.018 -4.55713,-0.018 -0.004,-0.49076 c -0.004,-3.90806 -0.0413,-7.16537 -0.0832,-10.43757 -0.0511,-4.24564 -0.0996,-8.50061 -0.0832,-14.1972 a 9.652663,9.652663 0 0 1 2.50642,-2.06824 c 2.06894,-1.31409 4.02252,-2.55843 3.77277,-5.21879 -0.27527,-2.86311 -5.03333,-4.69743 -8.1809,-5.9155 l -0.7011,-0.27167 a 79.852549,79.852549 0 0 0 -8.72427,-2.8 c -1.15475,-0.32175 -2.26022,-0.62442 -3.29955,-0.9421 l 0.1447,-0.96401 c 5.65423,-0.0202 11.17235,-0.2544 17.01911,-0.49954 6.13581,-0.25895 12.47198,-0.53019 19.03478,-0.53019 l 2.5327,0.018 c 3.01327,0.024 6.10046,0.0899 9.16684,0.15772 3.54135,0.0765 7.05821,0.1557 10.39377,0.17095 1.21653,0.009 2.48896,0.10209 3.75964,0.19721 a 41.754151,41.754151 0 0 0 5.20563,0.15771 c 2.97906,-0.21649 6.25315,-1.11172 6.49827,-2.98404 0.2273,-1.93411 -1.88706,-3.93963 -3.43097,-5.40284 l -0.65291,-0.63099 a 108.66089,108.66089 0 0 0 -8.97403,-7.76462 l -2.58529,-2.0814 c -0.37384,-0.30235 -0.82668,-0.72111 -1.32771,-1.17872 a 13.927414,13.927414 0 0 0 -4.5659,-3.27762 6.469838,6.469838 0 0 0 -2.20407,-0.34615 z M 208.80327,145.3224 a 17.16029,17.16029 0 0 0 -2.29171,0.19273 42.048329,42.048329 0 0 0 -19.14432,8.06698 l -0.96401,0.65728 a 13.763983,13.763983 0 0 0 -3.9787,3.43537 4.5842489,4.5842489 0 0 0 -0.39439,1.18309 45.549846,45.549846 0 0 1 7.91364,-0.90702 16.314022,16.314022 0 0 1 5.56056,0.86321 33.419666,33.419666 0 0 1 8.53586,5.37655 22.815526,22.815526 0 0 0 12.48389,6.26165 10.124571,10.124571 0 0 0 6.27483,-2.35306 9.7762579,9.7762579 0 0 0 2.35305,-6.94084 14.640384,14.640384 0 0 0 -4.0795,-10.93272 17.16029,17.16029 0 0 0 -12.2692,-4.90331 z m 20.80943,42.80631 c -2.09806,0.36978 -3.63828,4.38402 -4.46513,6.53774 l -0.39874,1.02098 a 176.4609,176.4609 0 0 1 -32.38628,53.63388 40.429848,40.429848 0 0 1 -2.97528,2.90077 7.0832161,7.0832161 0 0 0 -0.13146,1.97184 c 0.42902,2.19151 2.71584,3.6433 4.73676,4.92521 0.4811,0.30388 0.94327,0.59922 1.36716,0.8939 1.28906,0.88609 2.74133,1.86705 4.23724,2.87012 l 1.07357,0.74054 c 2.44533,1.70223 5.8344,4.11719 8.45697,3.76837 2.18946,-0.28905 4.11121,-3.80273 5.18374,-6.99781 2.36823,-6.88711 4.18073,-14.43005 5.93302,-21.72522 0.74566,-3.119 1.47606,-6.14384 2.20845,-8.96966 1.58833,-6.01019 2.95167,-12.97263 4.28109,-19.70957 0.82686,-4.1675 1.65149,-8.35462 2.53707,-12.39189 l 0.2147,-0.88952 c 0.4903,-1.8958 1.78846,-6.92764 0.73177,-8.29484 a 0.69202956,0.69202956 0 0 0 -0.6047,-0.28484 z" />
  <path
     class="b"
     d="m 755.60101,213.79327 -0.32798,-0.1084 -0.004,-0.34584 c -0.0512,-2.51241 -0.19726,-5.06366 -0.34178,-7.58474 l -0.28864,-5.79726 c -0.3955,-5.89319 -1.31453,-21.75694 -1.31453,-41.58852 v -7.3564 l 0.35197,-0.10525 c 19.36826,-5.8335 29.188,-13.33344 29.188,-22.29548 0,-7.88511 -6.86391,-9.69355 -13.49589,-11.44735 -0.71522,-0.23141 -1.71497,-0.58645 -2.89863,-1.03755 l -4.31266,-2.56351 c 0,0.0965 0.0112,0.20443 0.0112,0.30653 l 0.0202,0.56194 a 13.578156,13.578156 0 0 0 2.59926,3.0626 16.051741,16.051741 0 0 1 1.4396,1.54946 c 3.86569,5.43044 4.09609,9.61795 0.69783,12.43994 a 10.063947,10.063947 0 0 1 -5.94896,2.14562 4.4787122,4.4787122 0 0 1 -4.57732,-2.96299 7.6812953,7.6812953 0 0 1 0.14452,-4.04347 11.481074,11.481074 0 0 0 0.32134,-2.21406 c 0.004,-1.27255 0.0572,-2.72595 0.11602,-4.257 a 49.093675,49.093675 0 0 0 -0.63605,-13.42082 C 754.08758,98.704094 744.08339,90.810274 738.2693,90.780134 a 11.949022,11.949022 0 0 0 -11.60062,8.34543 l 0.68865,0.15641 c 2.82044,2.021996 4.7704,3.444736 5.13107,3.831446 a 18.493142,18.493142 0 0 1 3.62047,6.38116 48.163398,48.163398 0 0 1 1.73284,16.00168 v 1.56118 c 0,9.87392 0,9.87392 -0.0307,9.96178 -0.54766,0.85467 -1.89581,1.19184 -4.29124,1.19184 a 98.537798,98.537798 0 0 1 -14.02669,-1.66694 95.530874,95.530874 0 0 1 -18.25201,-5.16838 c -0.48173,-0.18087 -1.16578,-0.51748 -1.95404,-0.89656 -2.36936,-1.16169 -5.96021,-2.79183 -7.19189,-2.10577 a 1.4677016,1.4677016 0 0 0 -0.73257,1.04065 15.762594,15.762594 0 0 0 3.00386,8.89303 42.043802,42.043802 0 0 0 6.89661,7.5209 45.797603,45.797603 0 0 0 28.90499,9.24196 51.797658,51.797658 0 0 0 7.16123,-0.44496 l 0.54918,-0.0781 0.0307,3.31498 c 0.20444,18.58613 0.40459,36.19753 0.58801,44.70539 v 7.37939 l -0.55787,-0.0751 a 80.586677,80.586677 0 0 0 -10.42718,-0.68303 c -24.02831,0 -42.84941,11.11889 -42.84941,25.32796 0,13.62209 15.42286,26.0319 32.36656,26.0319 a 38.422823,38.422823 0 0 0 36.50558,-29.26616 l 0.17325,-0.63807 0.56194,0.35762 a 50.121526,50.121526 0 0 1 15.99606,16.08647 c 3.80234,6.04654 7.53723,7.32829 10.00775,7.32829 a 10.454756,10.454756 0 0 0 9.15001,-11.37175 c 5.2e-4,-10.93351 -17.55519,-23.69837 -33.81895,-29.25142 z m -23.27326,19.74118 a 23.141971,23.141971 0 0 1 -7.62768,6.34846 29.041386,29.041386 0 0 1 -11.33137,3.00233 c -0.78059,0.0573 -1.56886,0.0844 -2.35865,0.0844 a 28.178543,28.178543 0 0 1 -15.7207,-4.30248 3.045749,3.045749 0 0 1 -1.05902,-4.06081 19.063263,19.063263 0 0 1 11.27264,-8.80008 37.014383,37.014383 0 0 1 15.68341,-3.13773 68.633569,68.633569 0 0 1 15.07038,1.90757 c 0.63295,1.0585 -3.87641,8.89202 -3.92902,8.95845 z"
     id="path447"
     style="opacity:1;fill:#ffffff;fill-opacity:1;stroke-width:5.10861" />
  <path
     class="b"
     d="m 584.53275,116.32526 -0.47524,-0.38164 A 259.72237,259.72237 0 0 0 556.3125,96.358624 c -0.0515,0.26024 -1.56461,2.16021 -6.45907,9.983316 l -0.67893,1.0724 c -0.46033,0.69951 -0.92016,1.44734 -1.39592,2.22914 -2.58816,4.21759 -5.51424,8.99581 -10.7106,9.18096 h -0.0678 c -1.35116,0 -4.34669,-0.0971 -8.1312,-0.22119 -6.65451,-0.22436 -15.77016,-0.51435 -21.2026,-0.51435 a 21.190784,21.190784 0 0 0 -4.39041,0.18165 l -0.2726,-0.3878 h -0.49788 v -0.0545 c 0.0203,-5.44017 -0.0773,-10.55888 -0.18527,-15.74444 -0.0773,-4.137356 -0.15906,-8.323566 -0.18324,-12.733496 a 11.100473,11.100473 0 0 1 2.87723,-2.19315 c 2.49146,-1.49159 5.31313,-3.17707 5.31313,-5.81512 -0.005,-3.68935 -6.67871,-5.8038 -11.54949,-7.34579 -0.99319,-0.31786 -1.92313,-0.60846 -2.7183,-0.89289 a 175.45352,175.45352 0 0 0 -17.75704,-5.50344 18.26985,18.26985 0 0 0 -2.45649,0.19386 11.962506,11.962506 0 0 1 -1.37226,0.15431 62.728321,62.728321 0 0 0 -0.52823,17.72876 c 1.0328,22.234886 1.16755,33.534936 0.41148,33.563226 -7.16219,0.16674 -13.42889,0.07 -20.40744,-0.0258 -11.26763,-0.15432 -25.49581,-0.0576 -43.8922,-0.67841 l -1.25086,-0.0463 c -0.91192,-0.0463 -1.8326,-0.0879 -2.69463,-0.0879 -1.41598,0 -3.37253,0.10912 -4.02676,0.99935 a 22.342904,22.342904 0 0 0 8.31121,9.9715 c 0.50303,-0.1333 1.38614,-0.29112 2.27801,-0.45416 0.70722,-0.12766 1.42317,-0.26078 2.13244,-0.32763 1.97148,-0.23609 3.96761,-0.41765 5.8928,-0.5632 22.07029,-1.62943 45.40949,-1.7354 67.98846,-1.84186 5.96634,-0.031 11.86737,-0.0463 17.67837,-0.10845 h 0.56578 l -0.068,0.5632 c -3.03462,24.48565 -6.54703,47.92975 -16.09882,65.50369 l -0.33948,0.62956 -0.46907,-0.54519 a 195.30445,195.30445 0 0 1 -25.86385,-44.07067 l -0.53337,-1.19325 a 13.467978,13.467978 0 0 0 -3.02843,-5.01019 9.52248,9.52248 0 0 0 -7.36637,0.20583 5.9149034,5.9149034 0 0 0 -0.98907,0.56063 53.182696,53.182696 0 0 1 -21.60997,16.18626 17.076069,17.076069 0 0 0 4.64807,11.25272 10.896281,10.896281 0 0 0 7.41473,4.49791 12.928436,12.928436 0 0 0 1.94728,-0.58172 59.046166,59.046166 0 0 0 5.29307,-4.75816 c 1.96273,-2.5326 3.98767,-4.87697 5.93651,-7.10611 0.23197,-0.2726 0.45468,-0.56937 0.67893,-0.86049 a 6.1520139,6.1520139 0 0 1 2.93174,-2.4925 l 0.42588,-0.11817 2.05734,5.14957 a 351.16831,351.16831 0 0 0 19.60766,43.27703 c 1.17834,2.0445 -7.35505,11.64926 -14.72195,19.35459 a 147.92402,147.92402 0 0 1 -30.73589,23.95895 c -6.00954,3.65593 -11.0012,6.43952 -15.71152,8.73554 -1.49775,0.73603 -15.20799,5.23392 -17.72774,6.0579 0.30604,1.30848 2.18028,1.90819 3.89663,1.98689 l 0.82294,0.0113 a 43.985277,43.985277 0 0 0 10.86028,-1.86859 l 1.71122,-0.43617 a 238.31404,238.31404 0 0 0 35.16898,-12.61262 144.11225,144.11225 0 0 0 30.70092,-16.84667 50.796675,50.796675 0 0 0 3.95579,-3.49752 43.391217,43.391217 0 0 1 4.40993,-3.82256 l 0.40581,-0.2906 0.29113,0.40888 c 1.58108,2.22042 3.09221,4.47991 4.61002,6.74507 a 88.569247,88.569247 0 0 0 15.62307,19.16118 150.67625,150.67625 0 0 0 20.57358,14.006 l 0.96953,0.57501 a 16.703687,16.703687 0 0 0 6.9698,2.93534 l 0.0874,0.48451 h 0.005 v -0.48347 a 8.1605092,8.1605092 0 0 0 1.65257,-0.18459 157.38375,157.38375 0 0 1 20.55711,-15.04186 c 0.31478,-0.18459 1.56153,-0.77511 3.29537,-1.55074 3.16526,-1.43553 14.65869,-6.51257 17.68917,-7.23881 -1.05595,-1.71739 -5.65773,-2.75687 -8.23868,-3.33807 l -1.49159,-0.33945 c -2.13246,-0.53286 -4.26079,-1.02405 -6.2914,-1.50239 -2.03061,-0.47834 -3.94499,-0.92068 -5.67009,-1.363 a 141.82755,141.82755 0 0 1 -41.97317,-16.97321 71.404712,71.404712 0 0 1 -16.14306,-13.61765 l -0.21284,-0.24225 1.47358,-2.99293 a 288.68175,288.68175 0 0 0 20.89606,-50.27668 12.542681,12.542681 0 0 1 2.95642,-1.14235 c 3.79068,-1.08732 8.50974,-2.43489 8.78697,-5.70044 0.23765,-2.98624 -3.1066,-5.40931 -5.54919,-7.17245 -5.01122,-3.63433 -10.44109,-6.84536 -15.68221,-9.94681 -3.73153,-2.20806 -7.26041,-4.29217 -10.25594,-6.2878 l -1.26888,-0.85433 1.53068,-0.0576 c 21.44024,-0.83272 45.66306,0.29987 62.71135,1.25087 l 1.83207,0.11523 c 2.00594,0.13624 4.43877,0.2906 6.80935,0.2906 5.53789,0 8.57352,-0.90884 9.01379,-2.70181 0.88878,-3.46254 -3.30771,-6.75792 -5.56618,-8.5298 z"
     id="path451"
     style="opacity:1;fill:#ffffff;fill-opacity:1;stroke-width:5.1434" />
  <path
     class="b"
     d="m 668.01032,177.09067 c 0.1687,-0.31909 0.62641,-1.28302 1.19096,-2.46938 1.3536,-2.86366 2.13958,-4.48725 2.62589,-5.42357 a 22.811601,22.811601 0 0 0 -7.39132,5.61021 l -1.13729,1.12502 a 51.916606,51.916606 0 0 0 -9.4061,13.79873 c -1.65632,3.20987 -3.11678,6.4862 -4.44173,9.55799 -0.24086,0.55994 -0.67449,1.36995 -1.17154,2.2858 a 17.177864,17.177864 0 0 0 -2.54712,6.33278 l -0.97467,0.11456 a 45.90599,45.90599 0 0 1 -0.32626,-5.40874 c 0,-14.34592 6.17629,-30.0173 11.62084,-43.83394 1.20478,-3.10195 2.3804,-5.86027 3.46911,-8.37467 a 46.953782,46.953782 0 0 0 5.27169,-18.77077 32.806797,32.806797 0 0 0 -20.23685,-30.6381 c -1.48298,-0.70108 -3.05492,-1.278406 -4.61664,-1.857786 a 36.963193,36.963193 0 0 1 -7.12028,-3.20115 4.5772524,4.5772524 0 0 0 -0.41575,1.15007 c -0.51955,2.37938 2.4152,6.580266 4.55936,9.642836 a 34.84664,34.84664 0 0 1 2.29757,3.53817 47.192591,47.192591 0 0 1 5.44045,20.03538 82.938217,82.938217 0 0 1 -2.79924,18.36679 l -0.84323,3.74885 c -1.01201,4.46269 -2.2076,9.01949 -3.4318,13.66577 a 186.22069,186.22069 0 0 0 -8.03564,48.34575 c 0,19.3031 5.33766,49.92635 19.66721,49.92635 a 9.072686,9.072686 0 0 0 8.52859,-10.04939 18.716058,18.716058 0 0 0 -1.5612,-7.08297 c -4.08531,-9.95528 -1.58524,-20.48946 0.83865,-30.67388 0.42442,-1.80103 0.84783,-3.58417 1.22727,-5.34838 0.43824,-2.02399 0.84786,-4.05925 1.25745,-6.08938 a 105.9784,105.9784 0 0 1 8.46162,-28.02295 z"
     id="path453"
     style="opacity:1;fill:#ffffff;fill-opacity:1;stroke-width:5.11368" />
  <path
     class="b"
     d="m 1500.5211,152.20745 c -10.3253,0 -12.4982,2.41825 -12.9556,4.16127 a 58.117691,58.117691 0 0 1 9.3811,4.73938 31.288479,31.288479 0 0 1 5.481,5.74634 24.637404,24.637404 0 0 1 7.105,9.4445 c 0.9237,0.95842 1.8253,1.9158 2.6483,2.89874 a 12.523162,12.523162 0 0 0 9.2625,4.84467 11.404767,11.404767 0 0 0 10.7296,-11.9338 c -6e-4,-9.89022 -10.8896,-19.9011 -31.6519,-19.9011 z m 26.021,-38.77529 a 38.826401,38.826401 0 0 1 -4.5937,-0.28878 72.29851,72.29851 0 0 0 -12.2527,-0.98296 78.905116,78.905116 0 0 0 -32.4718,6.26722 c -14.7615,7.89213 -27.7176,42.08751 -27.7176,73.16746 0,42.15653 24.1114,46.70832 34.4709,46.70832 a 41.600409,41.600409 0 0 0 12.8881,-2.18261 21.924733,21.924733 0 0 1 7.1014,-1.11225 c 7.8114,0 13.7065,4.67598 13.7065,10.87417 0,12.98322 -22.7896,15.82111 -31.5747,15.82111 -8.7611,0 -52.4879,-3.01017 -52.4879,-62.59127 a 155.31684,155.31684 0 0 1 4.8641,-37.89303 138.7827,138.7827 0 0 1 5.2674,-16.73812 c 0.2453,-0.62616 0.5586,-1.53701 0.9349,-2.61605 1.309,-3.82903 3.7518,-10.9524 5.8782,-11.99259 l -0.6983,-1.4205 v 0 a 46.242157,46.242157 0 0 1 -5.6983,2.19796 c -1.743,0.59292 -3.5008,1.19046 -5.1774,1.92652 -4.7138,2.14684 -9.3811,4.40203 -14.0336,6.68991 l -1.6811,0.82808 c -10.3651,5.11148 -19.3128,9.53088 -31.0028,9.53088 l -1.0775,-0.0202 c -6.1951,-0.13805 -20.5952,-1.89582 -20.5952,-15.12234 a 4.8242285,4.8242285 0 0 1 1.7005,-4.09429 20.626414,20.626414 0 0 0 13.2838,4.20522 h 0.01 c 12.2528,0 27.115,-7.37332 37.9651,-12.76288 2.7848,-1.39237 5.3323,-2.64879 7.5195,-3.64092 l 8.389,-3.80909 a 337.05195,337.05195 0 0 1 53.3656,-20.759816 44.153601,44.153601 0 0 0 4.2287,-1.37296 66.760718,66.760718 0 0 1 15.4367,-3.141 c 2.1085,-0.19264 4.2865,-0.30261 6.4435,-0.30261 8.6507,0 23.1715,1.86774 23.1715,14.418496 0,5.07879 -4.8069,10.20816 -15.562,10.20816 z m 34.8165,41.60756 a 10.893106,10.893106 0 0 1 -10.5082,11.45334 c -9.5406,0 -13.0037,-10.8512 -17.8545,-17.04887 -4.4404,-5.67889 -10.614,-6.32447 -16.6343,-9.0545 1.078,-3.8684 8.0475,-4.76854 14.0336,-4.76854 15.4178,0 30.9634,6.01011 30.9634,19.41857 z"
     id="path467"
     style="opacity:1;fill:#ffffff;fill-opacity:1;stroke-width:5.1115" />
  <path
     class="b"
     d="m 1768.3614,131.4619 c 0,-10.58711 -16.3392,-17.30944 -27.6357,-17.91326 a 21.93025,21.93025 0 0 0 -2.7094,-0.005 59.652739,59.652739 0 0 1 -21.5643,-2.77248 43.801554,43.801554 0 0 1 -9.6496,-4.33788 37.212483,37.212483 0 0 1 -3.4143,-2.93086 38.343209,38.343209 0 0 0 -3.0272,-2.63203 l -0.068,0.005 c 0.7776,4.5726 8.4517,15.26583 12.8076,15.26583 v 0.005 l 0.096,-0.0135 0.068,1.59357 c -5.9694,0.24603 -11.9004,0.62329 -18.1265,1.05794 l -0.9596,0.0666 0.1205,-0.95542 c 0.6612,-5.39583 1.4824,-10.70861 2.5162,-16.23819 a 45.982533,45.982533 0 0 0 0.7919,-7.345606 18.211052,18.211052 0 0 0 -19.0675,-19.76209 12.455418,12.455418 0 0 0 -10.4713,4.2697 67.581663,67.581663 0 0 1 6.3815,7.96325 36.568696,36.568696 0 0 1 2.7463,12.01616 c 0.02,0.21278 1.4598,21.366416 -0.5443,21.592976 -12.8998,1.387 -25.1969,3.0472 -39.9363,5.09082 l -5.9212,0.80576 c -5.5685,0.76373 -11.1848,1.53156 -16.8835,2.24556 a 84.567164,84.567164 0 0 1 -10.5963,0.65815 50.299899,50.299899 0 0 1 -6.463,-0.40135 l -0.5597,-0.01 a 6.4260732,6.4260732 0 0 1 -1.6228,-0.15109 84.38469,84.38469 0 0 1 -12.0495,-4.08107 5.2435773,5.2435773 0 0 0 -2.8447,5.34712 c 0,12.02588 14.6425,20.40023 27.794,20.40023 a 42.389427,42.389427 0 0 0 16.333,-3.36759 203.87469,203.87469 0 0 1 52.6731,-13.2135 l 0.8688,-0.0963 0.014,0.87394 c 0.1646,9.49482 0.3142,18.21207 0.3624,25.4188 l 0.011,1.03844 -1.0093,-0.2701 a 29.458858,29.458858 0 0 0 -7.7321,-1.03847 22.26752,22.26752 0 0 0 -23.265,24.2245 49.467487,49.467487 0 0 0 9.6502,28.26251 15.71228,15.71228 0 0 0 13.233,7.14779 17.416058,17.416058 0 0 0 3.6597,-0.30755 c 0.2901,-0.0514 0.5638,-0.1342 0.836,-0.20198 a 7.4450596,7.4450596 0 0 1 1.8355,-0.31882 l 0.8842,-0.0241 -0.068,0.87395 c -0.7832,10.54406 -8.4425,20.16803 -15.5513,28.37528 a 77.188225,77.188225 0 0 1 -11.2617,9.96589 l -2.6612,2.07691 a 57.954088,57.954088 0 0 1 -8.0504,5.10979 17.032144,17.032144 0 0 0 -3.7418,2.3937 c 0.068,0.0108 0.2563,0.13893 0.6807,0.31112 a 4.8089191,4.8089191 0 0 0 1.6269,0.22044 63.010064,63.010064 0 0 0 16.3104,-4.30557 70.261884,70.261884 0 0 0 17.312,-9.78494 81.450234,81.450234 0 0 0 24.8863,-31.53884 66.653914,66.653914 0 0 0 6.0083,-26.85247 33.432803,33.432803 0 0 0 -8.1467,-24.26397 l -0.198,-0.49207 -0.088,-2.10152 c -0.2322,-5.1057 -0.531,-11.46104 -0.531,-18.80665 0,-5.22821 0.1639,-10.74088 0.4782,-16.38119 l 0.038,-0.73091 0.7304,-0.018 c 2.6321,-0.0727 5.2052,-0.0727 7.6927,-0.0727 a 175.07398,175.07398 0 0 1 49.9815,6.79923 15.913206,15.913206 0 0 0 13.8943,-1.43826 7.6603384,7.6603384 0 0 0 3.0964,-6.30254 z m -96.9934,67.59036 c -11.7691,0 -12.9342,-18.58933 -12.9342,-18.77333 0,-5.72746 2.8309,-9.15192 7.5691,-9.15192 a 13.929566,13.929566 0 0 1 12.2863,8.15702 31.303079,31.303079 0 0 1 0.6699,6.36611 c 0,11.08376 -4.1226,13.40212 -7.5911,13.40212 z"
     id="path469"
     style="opacity:1;fill:#ffffff;fill-opacity:1;stroke-width:5.12569" />
  <path
     class="b"
     d="m 1868.7241,134.36218 a 29.297041,29.297041 0 0 0 -7.6761,1.01611 l -1.4041,0.33904 0.4623,-1.35515 a 106.01562,106.01562 0 0 0 5.8662,-26.37972 c 0,-13.290016 -7.9774,-18.027416 -15.4405,-18.027416 a 26.044781,26.044781 0 0 0 -16.2588,7.28179 22.39389,22.39389 0 0 1 9.4246,12.875426 16.45342,16.45342 0 0 1 1.5537,8.25574 99.564015,99.564015 0 0 1 -3.7664,23.14855 l -0.1177,0.41712 -0.3959,0.12429 c -2.1874,0.73508 -4.5546,1.66695 -7.0428,2.63477 a 68.146919,68.146919 0 0 1 -23.2001,6.07762 21.480011,21.480011 0 0 1 -6.5193,-0.94058 56.001419,56.001419 0 0 1 -13.6891,-10.66706 15.205633,15.205633 0 0 0 -2.438,10.15542 20.551748,20.551748 0 0 0 21.5754,20.4048 71.441301,71.441301 0 0 0 21.1867,-6.12591 l 1.9547,-0.82191 -0.9441,1.90892 a 525.93818,525.93818 0 0 1 -42.2015,67.58801 33.087148,33.087148 0 0 0 -7.9383,17.68526 7.8401474,7.8401474 0 0 0 8.339,8.56757 c 5.4411,0 13.3703,-4.52059 18.8334,-14.64828 3.1372,-5.7961 6.6269,-12.44549 10.3008,-19.58185 l 1.0121,-1.96338 0.469,2.14831 c 0.3249,1.47024 0.862,3.3699 1.5879,5.8932 a 29.052005,29.052005 0 0 1 1.0699,7.54425 c 0.2856,5.79665 0.6196,12.37052 9.5442,15.21694 a 28.285044,28.285044 0 0 0 9.8605,1.62742 c 25.7989,0 53.2196,-27.27203 53.2196,-77.80453 0,-28.2676 -9.172,-42.5948 -27.2282,-42.5948 z m -21.9613,98.76266 a 15.079775,15.079775 0 0 1 -6.8053,-2.01475 12.133684,12.133684 0 0 1 -3.236,-1.31871 21.59508,21.59508 0 0 1 -12.5895,-9.00931 5.2598132,5.2598132 0 0 1 -0.2708,-3.51526 l -1.0493,-0.0965 0.5368,-1.03462 c 6.708,-13.23506 19.3609,-38.72246 28.6871,-60.75779 9.6811,-6.83226 14.4159,-7.16358 15.2715,-7.16358 6.893,0 10.5381,8.31634 10.5381,24.01975 0,28.73916 -13.2971,60.89086 -31.0851,60.89086 z m 92.2361,-29.07154 h -0.5524 c -2.3475,0.0781 -4.9567,0.15401 -7.8566,0.15401 -5.7159,0 -10.4501,-0.3298 -10.4501,-4.33512 a 3.1731483,3.1731483 0 0 1 0.3386,-1.34952 c 0.6204,-0.12401 2.0814,-0.37501 3.7267,-0.63494 3.558,-0.6113 6.1476,-1.05926 6.9567,-1.33562 a 68.791618,68.791618 0 0 0 9.5596,-3.83583 c 8.2861,-4.2293 12.4828,-9.37817 12.4828,-15.29555 0,-14.40269 -12.615,-25.47967 -38.5682,-33.82171 0.4556,-1.74251 2.3962,-2.62557 5.8048,-2.62557 32.0711,0 55.3531,16.92294 55.3531,40.22301 a 26.340163,26.340163 0 0 1 -10.1117,21.98654 15.390566,15.390566 0 0 1 -9.3706,2.90448 46.805094,46.805094 0 0 1 -8.1404,-0.98017 53.635814,53.635814 0 0 0 -9.1723,-1.05408 z"
     id="path471"
     style="opacity:1;fill:#ffffff;fill-opacity:1;stroke-width:5.13704" />
  <path
     style="opacity:1;fill:#ffffff;fill-opacity:1;stroke-width:5.1133"
     d="m 966.40875,161.44872 a 60.67079,60.67079 0 0 1 -7.82028,32.0302 c -26.14582,49.73037 -101.37007,72.27848 -112.48178,72.89975 -2.96315,0.16464 -3.67492,-1.33969 -3.74751,-2.64052 -0.0869,-1.53705 -0.16869,-2.99178 11.48037,-8.02786 37.01667,-15.71112 88.64356,-50.68912 88.64356,-93.22255 0,-21.67014 -21.57555,-30.80607 -32.56298,-30.17917 a 65.723237,65.723237 0 0 0 -29.34112,10.18925 43.273311,43.273311 0 0 1 -21.91558,8.42264 c -16.5405,0.9301 -28.60479,-8.07442 -29.09466,-16.74707 a 10.124326,10.124326 0 0 1 7.46541,-10.50731 5.8726203,5.8726203 0 0 1 5.44413,3.69895 c 1.75283,2.34137 6.35938,2.64561 9.88603,2.44825 a 88.116917,88.116917 0 0 0 20.44707,-4.47619 l 0.55425,-0.17744 a 178.81196,178.81196 0 0 1 38.27405,-7.60348 c 31.68047,-1.79119 53.46361,20.90725 54.76904,43.89253 z"
     id="path1558" />
  <path
     style="opacity:1;fill:#ffffff;fill-opacity:1;stroke-width:5.1133"
     d="m 854.47153,61.058874 c 2.03305,-13.0389 16.77161,-19.85594 23.29924,-20.06201 -1.84078,-7.06913 -2.26877,-37.4262705 6.59003,-40.9917505 0,0 7.54007,-1.07381 5.16443,27.9001705 0,0 -1.85512,6.99652 -3.81044,12.71013 l 6.25715,1.55699 C 908.90104,4.5774235 924.84377,9.0147435 924.84377,9.0147435 936.08434,16.515924 901.48675,49.110134 901.48675,49.110134 c 3.9853,8.51311 -0.0241,22.66877 -0.0241,22.66877 a 35.43105,35.43105 0 0 1 26.28951,8.10305 c 10.0691,-6.8416 13.73073,2.0453 13.73073,2.0453 2.52494,7.87755 -6.75416,11.01813 -6.75416,11.01813 8.23241,11.289136 5.04377,16.062906 3.18456,18.067316 -2.36131,1.94306 -12.15634,-5.07239 -12.15634,-5.07239 -5.8803,-1.14741 -10.56816,-4.59224 -17.12954,-4.94915 a 79.986264,79.986264 0 0 0 -38.42029,7.87091 c -6.72143,3.32874 -11.6399,4.76047 -14.29627,2.66503 -3.20808,-10.99102 17.28754,-27.944146 17.28754,-27.944146 2.7796,-2.52495 -2.02382,-3.30012 -2.02382,-3.30012 a 17.423556,17.423556 0 0 1 -16.70304,-19.22396 z"
     id="path473" />
  <path
     class="b"
     d="m 1349.8213,327.09567 c 18.3046,0 37.0785,-5.14269 40.1715,-10.99063 a 2.9237239,2.9237239 0 0 0 -0.2693,-3.27612 1.4941768,1.4941768 0 0 1 -0.2713,-0.86943 1.5588065,1.5588065 0 0 1 2.8391,-0.88069 c 3.9634,5.79975 15.7198,11.72464 31.0581,14.45088 a 7.2836629,7.2836629 0 0 1 11.8318,-2.00043 9.173825,9.173825 0 0 1 7.6156,-4.04911 c 5.0744,0 6.2465,4.1081 6.2465,9.18152 0,5.07342 -1.1721,9.18152 -6.2465,9.18152 a 9.1574109,9.1574109 0 0 1 -7.6156,-4.05988 7.2780206,7.2780206 0 0 1 -11.8318,-2.01019 c -15.3367,2.72471 -27.0947,8.65116 -31.0458,14.45962 a 1.5716298,1.5716298 0 0 1 -1.287,0.67708 1.4875086,1.4875086 0 0 1 -0.8792,-0.28109 1.5259787,1.5259787 0 0 1 -0.6765,-1.27465 1.5644487,1.5644487 0 0 1 0.2688,-0.88072 2.9237239,2.9237239 0 0 0 0.2718,-3.26686 c -3.1017,-5.85668 -21.8756,-10.99937 -40.1802,-10.99937 a 1.5567547,1.5567547 0 1 1 0,-3.11298 z"
     id="path493"
     style="opacity:1;fill:#ffffff;fill-opacity:1;stroke-width:5.12935" />
  <path
     class="b"
     d="m 1893.4922,328.29775 a 0.93819381,0.93819381 0 0 1 -0.04,-0.19298 5.7116592,5.7116592 0 0 1 6.9524,-4.77056 c 4.1497,1.82573 -0.4127,-2.11417 0.7717,-5.69737 0.7812,-2.33684 4.49,-4.71135 4.4161,-1.55338 -0.188,6.7394 12.4556,8.77574 21.9927,9.34657 0.957,0.0452 2.0856,0.10544 3.2609,0.15364 a 27.60063,27.60063 0 0 0 17.5204,-19.23313 5.1885033,5.1885033 0 0 1 -1.2194,0.45236 4.979701,4.979701 0 1 1 -2.1599,-9.72213 5.0481075,5.0481075 0 0 1 3.69,0.63686 4.7565543,4.7565543 0 0 1 -0.533,-1.34301 4.9809847,4.9809847 0 1 1 6.6165,3.55457 4.9702231,4.9702231 0 1 1 -3.9893,7.20255 26.96525,26.96525 0 0 1 -2.2593,5.95819 c -1.8761,3.61031 5.9272,12.86113 12.6026,12.34865 a 22.958338,22.958338 0 0 0 15.7266,-7.13451 5.6363352,5.6363352 0 0 0 -0.8017,-7.66747 6.6749601,6.6749601 0 0 0 -7.1645,-0.1932 c -1.5263,0.676 -2.7222,-1.27476 -2.0765,-3.51393 a 13.137786,13.137786 0 0 1 11.9254,-7.9569 12.10274,12.10274 0 0 1 11.9634,13.95297 18.153608,18.153608 0 0 1 -7.9745,9.75241 54.512084,54.512084 0 0 0 8.3136,-2.06711 c 7.5213,-2.83816 26.8828,4.1628 26.8828,7.49397 a 1.212837,1.212837 0 0 1 -0.06,0.19299 1.1221425,1.1221425 0 0 1 0.06,0.19325 c 0,3.3304 -19.3615,10.33188 -26.8828,7.48094 a 55.583504,55.583504 0 0 0 -8.3136,-2.06698 18.214081,18.214081 0 0 1 7.9745,9.76254 12.10633,12.10633 0 0 1 -11.9634,13.96225 13.138287,13.138287 0 0 1 -11.9254,-7.95759 c -0.6572,-2.24926 0.5502,-4.20928 2.0765,-3.52423 a 6.6713729,6.6713729 0 0 0 7.1645,-0.19301 5.6363352,5.6363352 0 0 0 0.8017,-7.66593 22.942449,22.942449 0 0 0 -15.7266,-7.13626 c -6.6754,-0.51237 -14.4787,8.73908 -12.6026,12.33082 a 27.33213,27.33213 0 0 1 2.2593,5.98681 4.9656117,4.9656117 0 1 1 3.9893,7.19349 4.9727861,4.9727861 0 1 1 -6.6165,3.54428 4.6530521,4.6530521 0 0 1 0.533,-1.32344 4.9702231,4.9702231 0 0 1 -7.4747,-5.31979 4.9758613,4.9758613 0 0 1 5.9459,-3.76545 4.8108695,4.8108695 0 0 1 1.2196,0.45235 27.582179,27.582179 0 0 0 -17.5203,-19.24394 c -1.1774,0.0503 -2.3044,0.10699 -3.261,0.15364 -9.5371,0.56834 -22.1809,2.59639 -21.9926,9.34659 0.075,3.15744 -3.6349,0.77218 -4.4161,-1.55563 -1.1845,-3.59074 3.3702,-7.52084 -0.7718,-5.70592 a 5.6998732,5.6998732 0 0 1 -6.9525,-4.76024 0.72708743,0.72708743 0 0 1 0.035,-0.1886 z"
     id="path495"
     style="opacity:1;fill:#ffffff;fill-opacity:1;stroke-width:5.12402" />
  <line
     class="d"
     x1="1886.6627"
     y1="328.54831"
     x2="1450.682"
     y2="328.54831"
     id="line497"
     style="opacity:1;stroke:#ffffff;stroke-width:8.06896;stroke-miterlimit:4;stroke-dasharray:0, 12.41409999999999947;stroke-dashoffset:0;stroke-opacity:1" />
  <path
     id="path1549"
     style="opacity:1;fill:#ffffff;fill-opacity:1;stroke-width:3.97539"
     d="m 2040.5027,215.72175 c 12.1305,0.0344 21.9618,3.13792 21.9531,6.94051 -0.02,4.63784 -0.017,8.75994 -0.034,14.43894 -0.013,3.82203 0.6421,15.02973 -6.6454,21.87794 -0.01,0.65468 0,1.31042 -0.01,1.99259 -0.01,3.79575 -6.9144,6.83017 -15.4109,6.8153 -8.5042,-0.0268 -15.3934,-3.12361 -15.3882,-6.91375 0.01,-0.66705 0.01,-1.33072 0.01,-1.98922 a 18.836168,18.836168 0 0 1 -4.4245,-6.53073 c -6.0667,-2.79423 -12.5871,-7.39908 -12.5584,-16.49722 a 8.8992966,8.8992966 0 0 1 2.7735,-6.85285 12.005662,12.005662 0 0 1 7.7341,-2.68162 c 0.01,-1.26563 0,-2.51841 0.013,-3.78384 0,-3.80131 9.8393,-6.85604 21.9887,-6.81611 z m -3.5562,3.07361 c -8.0196,0.33774 -14.0558,1.87932 -14.0652,3.75488 -0.01,2.12964 7.8691,3.89191 17.578,3.91582 9.73,0.0387 17.607,-1.70003 17.605,-3.82586 0.019,-2.12911 -7.8589,-3.89025 -17.571,-3.91259 -1.2148,-0.003 -2.4009,0.0195 -3.5468,0.0675 z m -18.7702,11.47083 a 7.9654786,7.9654786 0 0 0 -4.7413,1.68157 5.0694107,5.0694107 0 0 0 -1.4934,3.90651 12.713678,12.713678 0 0 0 7.1159,11.25895 50.81456,50.81456 0 0 1 -0.5844,-10.15334 c 0,-2.46895 0.011,-4.62742 0.018,-6.69408 a 7.9654786,7.9654786 0 0 0 -0.3137,2e-4 z" />
  <path
     style="opacity:1;fill:#ffffff;fill-opacity:1;stroke-width:3.97907"
     d="m 2044.0366,73.525614 c -25.6109,0.006 -46.008,14.43566 -46.0083,33.093446 a 17.991725,17.991725 0 0 0 17.9059,19.15962 17.538112,17.538112 0 0 0 17.6632,-18.66482 c 0,-9.946116 -4.2378,-12.447306 -11.9409,-16.902846 a 1.9704313,1.9704313 0 0 1 -1.2512,-1.49804 c 0,-0.9984 3.7322,-5.97162 12.9436,-5.97331 17.4073,-0.0102 20.3896,17.405136 20.3875,29.352726 0.01,9.45776 -1.7373,18.89849 -8.4573,38.29891 -8.71,24.61806 -8.9467,29.84569 -9.452,51.71196 l -0.016,0.0162 a 4.2322581,4.2322581 0 0 0 8.4645,0.0147 c -0.01,-26.8659 4.723,-37.29776 22.3871,-52.47408 12.4324,-10.95021 21.6442,-19.40135 21.6415,-36.56931 0.01,-18.905426 -13.1754,-39.544216 -44.276,-39.561566 z"
     id="path499" />
  <path
     class="b"
     d="m 724.85862,326.03349 c -18.30457,0 -37.07846,-5.14269 -40.17146,-10.99063 a 2.9237239,2.9237239 0 0 1 0.26929,-3.27612 1.4941768,1.4941768 0 0 0 0.27135,-0.86943 1.5588065,1.5588065 0 0 0 -2.8391,-0.88069 c -3.96344,5.79975 -15.71988,11.72464 -31.05814,14.45088 a 7.2836629,7.2836629 0 0 0 -11.83185,-2.00043 9.173825,9.173825 0 0 0 -7.61553,-4.04911 c -5.07446,0 -6.24652,4.1081 -6.24652,9.18152 0,5.07342 1.17206,9.18152 6.24652,9.18152 a 9.1574109,9.1574109 0 0 0 7.61553,-4.05988 7.2780206,7.2780206 0 0 0 11.83185,-2.01019 c 15.33671,2.72471 27.0947,8.65116 31.04583,14.45962 a 1.5716298,1.5716298 0 0 0 1.28695,0.67708 1.4875086,1.4875086 0 0 0 0.87917,-0.28109 1.5259787,1.5259787 0 0 0 0.67657,-1.27465 1.5644487,1.5644487 0 0 0 -0.26879,-0.88072 2.9237239,2.9237239 0 0 1 -0.27185,-3.26686 c 3.10172,-5.85668 21.87561,-10.99937 40.18018,-10.99937 a 1.5567547,1.5567547 0 1 0 0,-3.11298 z"
     id="path1478"
     style="opacity:1;fill:#ffffff;fill-opacity:1;stroke-width:5.12935" />
  <path
     class="b"
     d="m 181.18776,327.23557 a 0.93819381,0.93819381 0 0 0 0.04,-0.19298 5.7116592,5.7116592 0 0 0 -6.9524,-4.77056 c -4.1497,1.82573 0.4127,-2.11417 -0.7717,-5.69737 -0.7812,-2.33684 -4.49,-4.71135 -4.4161,-1.55338 0.188,6.7394 -12.4556,8.77574 -21.9927,9.34657 -0.957,0.0452 -2.0856,0.10544 -3.2609,0.15364 a 27.60063,27.60063 0 0 1 -17.5204,-19.23313 5.1885033,5.1885033 0 0 0 1.2194,0.45236 4.979701,4.979701 0 1 0 2.1599,-9.72213 5.0481075,5.0481075 0 0 0 -3.69,0.63686 4.7565543,4.7565543 0 0 0 0.533,-1.34301 4.9809847,4.9809847 0 1 0 -6.6165,3.55457 4.9702231,4.9702231 0 1 0 3.9893,7.20255 26.96525,26.96525 0 0 0 2.2593,5.95819 c 1.8761,3.61031 -5.9272,12.86113 -12.6026,12.34865 a 22.958338,22.958338 0 0 1 -15.7266,-7.13451 5.6363352,5.6363352 0 0 1 0.8017,-7.66747 6.6749601,6.6749601 0 0 1 7.1645,-0.1932 c 1.5263,0.676 2.7222,-1.27476 2.0765,-3.51393 a 13.137786,13.137786 0 0 0 -11.9254,-7.9569 12.10274,12.10274 0 0 0 -11.9634,13.95297 18.153608,18.153608 0 0 0 7.9745,9.75241 54.512084,54.512084 0 0 1 -8.3136,-2.06711 c -7.5213,-2.83816 -26.8828,4.1628 -26.8828,7.49397 a 1.212837,1.212837 0 0 0 0.06,0.19299 1.1221425,1.1221425 0 0 0 -0.06,0.19325 c 0,3.3304 19.3615,10.33188 26.8828,7.48094 a 55.583504,55.583504 0 0 1 8.3136,-2.06698 18.214081,18.214081 0 0 0 -7.9745,9.76254 12.10633,12.10633 0 0 0 11.9634,13.96225 13.138287,13.138287 0 0 0 11.9254,-7.95759 c 0.6572,-2.24926 -0.5502,-4.20928 -2.0765,-3.52423 a 6.6713729,6.6713729 0 0 1 -7.1645,-0.19301 5.6363352,5.6363352 0 0 1 -0.8017,-7.66593 22.942449,22.942449 0 0 1 15.7266,-7.13626 c 6.6754,-0.51237 14.4787,8.73908 12.6026,12.33082 a 27.33213,27.33213 0 0 0 -2.2593,5.98681 4.9656117,4.9656117 0 1 0 -3.9893,7.19349 4.9727861,4.9727861 0 1 0 6.6165,3.54428 4.6530521,4.6530521 0 0 0 -0.533,-1.32344 4.9702231,4.9702231 0 0 0 7.4747,-5.31979 4.9758613,4.9758613 0 0 0 -5.9459,-3.76545 4.8108695,4.8108695 0 0 0 -1.2196,0.45235 27.582179,27.582179 0 0 1 17.5203,-19.24394 c 1.1774,0.0503 2.3044,0.10699 3.261,0.15364 9.5371,0.56834 22.1809,2.59639 21.9926,9.34659 -0.075,3.15744 3.6349,0.77218 4.4161,-1.55563 1.1845,-3.59074 -3.3702,-7.52084 0.7718,-5.70592 a 5.6998732,5.6998732 0 0 0 6.9525,-4.76024 0.72708743,0.72708743 0 0 0 -0.035,-0.1886 z"
     id="path1480"
     style="opacity:1;fill:#ffffff;fill-opacity:1;stroke-width:5.12402" />
  <line
     class="d"
     x1="188.01727"
     y1="327.48611"
     x2="623.99792"
     y2="327.48611"
     id="line1482"
     style="opacity:1;stroke:#ffffff;stroke-width:8.06896;stroke-miterlimit:4;stroke-dasharray:0, 12.41409999999999947;stroke-dashoffset:0;stroke-opacity:1" />
</svg>
